<?xml version="1.0" encoding="utf-8" standalone="no"?>
<!DOCTYPE svg PUBLIC "-//W3C//DTD SVG 1.1//EN"
  "http://www.w3.org/Graphics/SVG/1.1/DTD/svg11.dtd">
<svg xmlns:xlink="http://www.w3.org/1999/xlink" width="576pt" height="288pt" viewBox="0 0 576 288" xmlns="http://www.w3.org/2000/svg" version="1.1">
 <metadata>
  <rdf:RDF xmlns:dc="http://purl.org/dc/elements/1.1/" xmlns:cc="http://creativecommons.org/ns#" xmlns:rdf="http://www.w3.org/1999/02/22-rdf-syntax-ns#">
   <cc:Work>
    <dc:type rdf:resource="http://purl.org/dc/dcmitype/StillImage"/>
    <dc:date>2025-06-16T16:17:06.723054</dc:date>
    <dc:format>image/svg+xml</dc:format>
    <dc:creator>
     <cc:Agent>
      <dc:title>Matplotlib v3.10.3, https://matplotlib.org/</dc:title>
     </cc:Agent>
    </dc:creator>
   </cc:Work>
  </rdf:RDF>
 </metadata>
 <defs>
  <style type="text/css">*{stroke-linejoin: round; stroke-linecap: butt}</style>
 </defs>
 <g id="figure_1">
  <g id="patch_1">
   <path d="M 0 288
L 576 288
L 576 0
L 0 0
z
" style="fill: #ffffff"/>
  </g>
  <g id="axes_1">
   <g id="patch_2">
    <path d="M 38.4 148.8
L 556.8 148.8
L 556.8 28.8
L 38.4 28.8
z
" style="fill: #ffffff"/>
   </g>
   <g id="matplotlib.axis_1">
    <g id="xtick_1">
     <g id="line2d_1">
      <defs>
       <path id="m9c3f798ab0" d="M 0 0
L 0 3.5
" style="stroke: #000000; stroke-width: 0.8"/>
      </defs>
      <g>
       <use xlink:href="#m9c3f798ab0" x="57.546814" y="148.8" style="stroke: #000000; stroke-width: 0.8"/>
      </g>
     </g>
    </g>
    <g id="xtick_2">
     <g id="line2d_2">
      <g>
       <use xlink:href="#m9c3f798ab0" x="217.103601" y="148.8" style="stroke: #000000; stroke-width: 0.8"/>
      </g>
     </g>
    </g>
    <g id="xtick_3">
     <g id="line2d_3">
      <g>
       <use xlink:href="#m9c3f798ab0" x="376.660388" y="148.8" style="stroke: #000000; stroke-width: 0.8"/>
      </g>
     </g>
    </g>
    <g id="xtick_4">
     <g id="line2d_4">
      <g>
       <use xlink:href="#m9c3f798ab0" x="536.217175" y="148.8" style="stroke: #000000; stroke-width: 0.8"/>
      </g>
     </g>
    </g>
   </g>
   <g id="matplotlib.axis_2">
    <g id="ytick_1">
     <g id="line2d_5">
      <defs>
       <path id="mfa37e6ab67" d="M 0 0
L -3.5 0
" style="stroke: #000000; stroke-width: 0.8"/>
      </defs>
      <g>
       <use xlink:href="#mfa37e6ab67" x="38.4" y="142.329616" style="stroke: #000000; stroke-width: 0.8"/>
      </g>
     </g>
     <g id="text_1">
      <!-- −2.4 -->
      <g transform="translate(11.172417 145.494365) scale(0.0833 -0.0833)">
       <defs>
        <path id="DejaVuSans-2212" d="M 678 2272
L 4684 2272
L 4684 1741
L 678 1741
L 678 2272
z
" transform="scale(0.015625)"/>
        <path id="DejaVuSans-32" d="M 1228 531
L 3431 531
L 3431 0
L 469 0
L 469 531
Q 828 903 1448 1529
Q 2069 2156 2228 2338
Q 2531 2678 2651 2914
Q 2772 3150 2772 3378
Q 2772 3750 2511 3984
Q 2250 4219 1831 4219
Q 1534 4219 1204 4116
Q 875 4013 500 3803
L 500 4441
Q 881 4594 1212 4672
Q 1544 4750 1819 4750
Q 2544 4750 2975 4387
Q 3406 4025 3406 3419
Q 3406 3131 3298 2873
Q 3191 2616 2906 2266
Q 2828 2175 2409 1742
Q 1991 1309 1228 531
z
" transform="scale(0.015625)"/>
        <path id="DejaVuSans-2e" d="M 684 794
L 1344 794
L 1344 0
L 684 0
L 684 794
z
" transform="scale(0.015625)"/>
        <path id="DejaVuSans-34" d="M 2419 4116
L 825 1625
L 2419 1625
L 2419 4116
z
M 2253 4666
L 3047 4666
L 3047 1625
L 3713 1625
L 3713 1100
L 3047 1100
L 3047 0
L 2419 0
L 2419 1100
L 313 1100
L 313 1709
L 2253 4666
z
" transform="scale(0.015625)"/>
       </defs>
       <use xlink:href="#DejaVuSans-2212"/>
       <use xlink:href="#DejaVuSans-32" transform="translate(83.789062 0)"/>
       <use xlink:href="#DejaVuSans-2e" transform="translate(147.412109 0)"/>
       <use xlink:href="#DejaVuSans-34" transform="translate(179.199219 0)"/>
      </g>
     </g>
    </g>
    <g id="ytick_2">
     <g id="line2d_6">
      <g>
       <use xlink:href="#mfa37e6ab67" x="38.4" y="124.453783" style="stroke: #000000; stroke-width: 0.8"/>
      </g>
     </g>
     <g id="text_2">
      <!-- −1.6 -->
      <g transform="translate(11.172417 127.618533) scale(0.0833 -0.0833)">
       <defs>
        <path id="DejaVuSans-31" d="M 794 531
L 1825 531
L 1825 4091
L 703 3866
L 703 4441
L 1819 4666
L 2450 4666
L 2450 531
L 3481 531
L 3481 0
L 794 0
L 794 531
z
" transform="scale(0.015625)"/>
        <path id="DejaVuSans-36" d="M 2113 2584
Q 1688 2584 1439 2293
Q 1191 2003 1191 1497
Q 1191 994 1439 701
Q 1688 409 2113 409
Q 2538 409 2786 701
Q 3034 994 3034 1497
Q 3034 2003 2786 2293
Q 2538 2584 2113 2584
z
M 3366 4563
L 3366 3988
Q 3128 4100 2886 4159
Q 2644 4219 2406 4219
Q 1781 4219 1451 3797
Q 1122 3375 1075 2522
Q 1259 2794 1537 2939
Q 1816 3084 2150 3084
Q 2853 3084 3261 2657
Q 3669 2231 3669 1497
Q 3669 778 3244 343
Q 2819 -91 2113 -91
Q 1303 -91 875 529
Q 447 1150 447 2328
Q 447 3434 972 4092
Q 1497 4750 2381 4750
Q 2619 4750 2861 4703
Q 3103 4656 3366 4563
z
" transform="scale(0.015625)"/>
       </defs>
       <use xlink:href="#DejaVuSans-2212"/>
       <use xlink:href="#DejaVuSans-31" transform="translate(83.789062 0)"/>
       <use xlink:href="#DejaVuSans-2e" transform="translate(147.412109 0)"/>
       <use xlink:href="#DejaVuSans-36" transform="translate(179.199219 0)"/>
      </g>
     </g>
    </g>
    <g id="ytick_3">
     <g id="line2d_7">
      <g>
       <use xlink:href="#mfa37e6ab67" x="38.4" y="106.577951" style="stroke: #000000; stroke-width: 0.8"/>
      </g>
     </g>
     <g id="text_3">
      <!-- −0.8 -->
      <g transform="translate(11.172417 109.7427) scale(0.0833 -0.0833)">
       <defs>
        <path id="DejaVuSans-30" d="M 2034 4250
Q 1547 4250 1301 3770
Q 1056 3291 1056 2328
Q 1056 1369 1301 889
Q 1547 409 2034 409
Q 2525 409 2770 889
Q 3016 1369 3016 2328
Q 3016 3291 2770 3770
Q 2525 4250 2034 4250
z
M 2034 4750
Q 2819 4750 3233 4129
Q 3647 3509 3647 2328
Q 3647 1150 3233 529
Q 2819 -91 2034 -91
Q 1250 -91 836 529
Q 422 1150 422 2328
Q 422 3509 836 4129
Q 1250 4750 2034 4750
z
" transform="scale(0.015625)"/>
        <path id="DejaVuSans-38" d="M 2034 2216
Q 1584 2216 1326 1975
Q 1069 1734 1069 1313
Q 1069 891 1326 650
Q 1584 409 2034 409
Q 2484 409 2743 651
Q 3003 894 3003 1313
Q 3003 1734 2745 1975
Q 2488 2216 2034 2216
z
M 1403 2484
Q 997 2584 770 2862
Q 544 3141 544 3541
Q 544 4100 942 4425
Q 1341 4750 2034 4750
Q 2731 4750 3128 4425
Q 3525 4100 3525 3541
Q 3525 3141 3298 2862
Q 3072 2584 2669 2484
Q 3125 2378 3379 2068
Q 3634 1759 3634 1313
Q 3634 634 3220 271
Q 2806 -91 2034 -91
Q 1263 -91 848 271
Q 434 634 434 1313
Q 434 1759 690 2068
Q 947 2378 1403 2484
z
M 1172 3481
Q 1172 3119 1398 2916
Q 1625 2713 2034 2713
Q 2441 2713 2670 2916
Q 2900 3119 2900 3481
Q 2900 3844 2670 4047
Q 2441 4250 2034 4250
Q 1625 4250 1398 4047
Q 1172 3844 1172 3481
z
" transform="scale(0.015625)"/>
       </defs>
       <use xlink:href="#DejaVuSans-2212"/>
       <use xlink:href="#DejaVuSans-30" transform="translate(83.789062 0)"/>
       <use xlink:href="#DejaVuSans-2e" transform="translate(147.412109 0)"/>
       <use xlink:href="#DejaVuSans-38" transform="translate(179.199219 0)"/>
      </g>
     </g>
    </g>
    <g id="ytick_4">
     <g id="line2d_8">
      <g>
       <use xlink:href="#mfa37e6ab67" x="38.4" y="88.702119" style="stroke: #000000; stroke-width: 0.8"/>
      </g>
     </g>
     <g id="text_4">
      <!-- 0.0 -->
      <g transform="translate(18.152697 91.866868) scale(0.0833 -0.0833)">
       <use xlink:href="#DejaVuSans-30"/>
       <use xlink:href="#DejaVuSans-2e" transform="translate(63.623047 0)"/>
       <use xlink:href="#DejaVuSans-30" transform="translate(95.410156 0)"/>
      </g>
     </g>
    </g>
    <g id="ytick_5">
     <g id="line2d_9">
      <g>
       <use xlink:href="#mfa37e6ab67" x="38.4" y="70.826286" style="stroke: #000000; stroke-width: 0.8"/>
      </g>
     </g>
     <g id="text_5">
      <!-- 0.8 -->
      <g transform="translate(18.152697 73.991036) scale(0.0833 -0.0833)">
       <use xlink:href="#DejaVuSans-30"/>
       <use xlink:href="#DejaVuSans-2e" transform="translate(63.623047 0)"/>
       <use xlink:href="#DejaVuSans-38" transform="translate(95.410156 0)"/>
      </g>
     </g>
    </g>
    <g id="ytick_6">
     <g id="line2d_10">
      <g>
       <use xlink:href="#mfa37e6ab67" x="38.4" y="52.950454" style="stroke: #000000; stroke-width: 0.8"/>
      </g>
     </g>
     <g id="text_6">
      <!-- 1.6 -->
      <g transform="translate(18.152697 56.115203) scale(0.0833 -0.0833)">
       <use xlink:href="#DejaVuSans-31"/>
       <use xlink:href="#DejaVuSans-2e" transform="translate(63.623047 0)"/>
       <use xlink:href="#DejaVuSans-36" transform="translate(95.410156 0)"/>
      </g>
     </g>
    </g>
    <g id="ytick_7">
     <g id="line2d_11">
      <g>
       <use xlink:href="#mfa37e6ab67" x="38.4" y="35.074622" style="stroke: #000000; stroke-width: 0.8"/>
      </g>
     </g>
     <g id="text_7">
      <!-- 2.4 -->
      <g transform="translate(18.152697 38.239371) scale(0.0833 -0.0833)">
       <use xlink:href="#DejaVuSans-32"/>
       <use xlink:href="#DejaVuSans-2e" transform="translate(63.623047 0)"/>
       <use xlink:href="#DejaVuSans-34" transform="translate(95.410156 0)"/>
      </g>
     </g>
    </g>
    <g id="text_8">
     <!-- 1e−15 -->
     <g transform="translate(38.4 25.8) scale(0.1 -0.1)">
      <defs>
       <path id="DejaVuSans-65" d="M 3597 1894
L 3597 1613
L 953 1613
Q 991 1019 1311 708
Q 1631 397 2203 397
Q 2534 397 2845 478
Q 3156 559 3463 722
L 3463 178
Q 3153 47 2828 -22
Q 2503 -91 2169 -91
Q 1331 -91 842 396
Q 353 884 353 1716
Q 353 2575 817 3079
Q 1281 3584 2069 3584
Q 2775 3584 3186 3129
Q 3597 2675 3597 1894
z
M 3022 2063
Q 3016 2534 2758 2815
Q 2500 3097 2075 3097
Q 1594 3097 1305 2825
Q 1016 2553 972 2059
L 3022 2063
z
" transform="scale(0.015625)"/>
       <path id="DejaVuSans-35" d="M 691 4666
L 3169 4666
L 3169 4134
L 1269 4134
L 1269 2991
Q 1406 3038 1543 3061
Q 1681 3084 1819 3084
Q 2600 3084 3056 2656
Q 3513 2228 3513 1497
Q 3513 744 3044 326
Q 2575 -91 1722 -91
Q 1428 -91 1123 -41
Q 819 9 494 109
L 494 744
Q 775 591 1075 516
Q 1375 441 1709 441
Q 2250 441 2565 725
Q 2881 1009 2881 1497
Q 2881 1984 2565 2268
Q 2250 2553 1709 2553
Q 1456 2553 1204 2497
Q 953 2441 691 2322
L 691 4666
z
" transform="scale(0.015625)"/>
      </defs>
      <use xlink:href="#DejaVuSans-31"/>
      <use xlink:href="#DejaVuSans-65" transform="translate(63.623047 0)"/>
      <use xlink:href="#DejaVuSans-2212" transform="translate(125.146484 0)"/>
      <use xlink:href="#DejaVuSans-31" transform="translate(208.935547 0)"/>
      <use xlink:href="#DejaVuSans-35" transform="translate(272.558594 0)"/>
     </g>
    </g>
   </g>
   <g id="line2d_12">
    <path d="M 38.4 88.702119
L 99.191136 88.592826
L 100.308033 88.365617
L 101.105817 88.004075
L 101.744044 87.506675
L 102.382271 86.739115
L 103.020499 85.616837
L 103.658726 84.070544
L 104.45651 81.520691
L 106.530748 74.142591
L 106.849861 73.601561
L 107.168975 73.47016
L 107.328532 73.568023
L 107.647645 74.222373
L 107.966759 75.510304
L 108.445429 78.774286
L 108.9241 83.798552
L 109.562327 93.214622
L 110.519668 111.606087
L 111.636565 133.009
L 112.115235 139.448724
L 112.434349 142.138501
L 112.753463 143.345455
L 112.913019 143.238691
L 113.072576 142.837267
L 113.39169 140.507621
L 113.87036 133.848271
L 114.508587 119.432775
L 115.625485 85.506874
L 116.582825 57.958301
L 117.221053 45.173931
L 117.699723 39.781932
L 118.018837 38.2306
L 118.178393 38.0442
L 118.33795 38.265257
L 118.657064 39.795048
L 119.135734 44.390567
L 119.773961 53.582476
L 121.848199 85.765298
L 122.486427 91.973731
L 122.965097 95.326978
L 123.762881 98.47815
L 124.241551 99.374008
L 124.560665 99.681698
L 125.039335 99.809761
L 125.518006 99.614702
L 125.996676 99.220638
L 126.315789 98.845029
L 127.432687 96.953058
L 128.868698 93.412847
L 129.506925 91.482213
L 131.581163 86.234259
L 132.378947 85.190163
L 132.538504 85.246479
L 132.698061 85.043584
L 132.857618 85.178039
L 133.017175 85.121518
L 133.495845 85.460913
L 134.612742 87.919861
L 135.570083 91.480877
L 138.442105 104.743328
L 138.920776 105.997067
L 139.080332 106.048149
L 139.239889 106.28367
L 139.71856 105.835686
L 140.037673 104.878746
L 140.516343 102.138269
L 140.995014 97.887494
L 141.633241 89.455567
L 142.271468 78.376692
L 144.505263 38.072131
L 144.824377 35.40099
L 145.14349 34.254545
L 145.303047 34.346874
L 145.462604 34.790508
L 145.781717 37.038237
L 146.260388 43.839053
L 146.739058 54.09301
L 147.536842 77.033598
L 149.13241 124.526136
L 149.770637 136.456176
L 150.249307 140.760408
L 150.568421 141.589623
L 150.887535 140.685464
L 151.366205 136.463773
L 152.004432 126.926592
L 154.238227 86.202771
L 154.876454 79.22326
L 155.355125 76.037331
L 155.674238 74.830207
L 155.993352 74.263201
L 156.312465 74.245998
L 156.791136 75.131719
L 158.227147 80.99686
L 158.705817 83.275472
L 159.184488 85.08992
L 159.663158 86.901202
L 160.939612 89.844009
L 162.05651 90.982753
L 162.216066 90.888273
L 162.53518 91.044686
L 162.694737 90.940151
L 162.854294 91.060377
L 163.01385 90.830124
L 163.173407 90.98983
L 163.332964 90.650758
L 163.492521 90.777042
L 163.652078 90.454944
L 163.811634 90.465541
L 164.449861 89.501792
L 164.609418 89.489027
L 164.928532 88.875205
L 165.088089 88.639639
L 165.247645 88.153175
L 165.407202 88.086493
L 165.566759 87.527414
L 165.726316 87.381686
L 167.162327 84.632489
L 167.48144 84.258021
L 167.640997 84.01426
L 167.800554 84.040242
L 167.960111 83.719242
L 168.119668 83.796425
L 168.438781 83.571574
L 168.598338 83.75342
L 168.757895 83.588292
L 168.917452 83.843722
L 169.077008 83.783704
L 170.034349 84.886551
L 170.193906 85.302569
L 170.353463 85.371243
L 170.672576 86.015359
L 172.268144 88.605689
L 173.385042 89.538951
L 173.544598 89.666665
L 173.704155 89.566425
L 173.863712 89.822845
L 174.023269 89.663072
L 174.182825 89.778774
L 174.501939 89.759699
L 174.821053 89.767363
L 174.980609 89.715926
L 175.140166 89.85713
L 175.299723 89.639063
L 175.45928 89.910282
L 175.618837 89.748388
L 175.778393 89.788623
L 175.93795 89.956064
L 176.097507 89.769854
L 176.257064 90.141883
L 176.41662 89.909144
L 176.735734 90.269388
L 176.895291 90.204429
L 177.054848 90.614565
L 177.214404 90.407268
L 177.373961 90.780077
L 177.693075 90.947191
L 177.852632 91.21858
L 178.012188 91.208688
L 178.331302 91.599371
L 178.490859 91.644107
L 178.650416 91.939662
L 178.809972 91.879018
L 179.129086 92.140106
L 179.92687 92.304135
L 180.086427 92.072363
L 180.245983 92.16378
L 180.40554 91.86907
L 180.565097 91.82904
L 181.043767 91.232503
L 184.075346 84.809766
L 184.713573 84.110132
L 185.032687 83.93833
L 185.351801 83.882917
L 185.990028 84.154049
L 186.787812 85.091768
L 187.266482 85.994046
L 188.702493 88.975324
L 189.34072 90.596982
L 189.500277 90.743355
L 189.819391 91.55528
L 190.776731 93.644907
L 191.255402 94.736466
L 192.212742 96.678688
L 192.372299 96.822951
L 192.531856 97.289302
L 192.691413 97.370007
L 193.010526 97.968143
L 193.170083 97.995811
L 193.32964 98.396223
L 193.489197 98.347308
L 193.80831 98.638054
L 193.967867 98.536763
L 194.127424 98.728888
L 194.286981 98.452333
L 194.446537 98.458922
L 194.925208 97.793371
L 195.882548 94.182393
L 196.361219 91.340971
L 196.839889 87.754571
L 197.79723 78.522035
L 199.233241 64.506241
L 199.711911 61.34738
L 200.190582 59.968282
L 200.509695 59.948038
L 200.988366 61.878114
L 201.467036 65.77223
L 202.105263 73.735737
L 204.339058 108.342403
L 204.977285 113.174401
L 205.296399 114.089778
L 205.455956 114.344955
L 205.775069 113.76198
L 206.094183 112.290888
L 206.413296 110.144635
L 207.051524 104.315087
L 208.487535 90.03692
L 209.125762 86.245012
L 209.444875 85.131622
L 209.763989 84.512064
L 210.083102 84.374596
L 210.72133 85.502237
L 211.040443 86.388329
L 211.67867 88.345606
L 212.157341 89.804294
L 212.636011 90.820306
L 213.114681 91.365533
L 213.274238 91.256419
L 213.433795 91.418173
L 214.550693 90.081378
L 215.66759 87.800228
L 216.784488 86.326016
L 217.103601 86.237415
L 217.263158 86.116321
L 217.422715 86.204992
L 217.582271 86.093704
L 218.858726 86.523227
L 219.018283 86.717444
L 219.337396 86.794523
L 219.496953 86.923959
L 219.65651 86.888977
L 219.816066 87.049482
L 220.13518 87.056121
L 220.294737 87.208469
L 220.454294 87.060782
L 220.61385 87.242493
L 220.773407 87.103998
L 221.092521 87.172877
L 221.411634 87.132007
L 222.368975 86.710786
L 222.688089 86.619537
L 222.847645 86.408232
L 223.007202 86.392865
L 223.645429 85.686977
L 223.804986 85.625782
L 224.443213 84.641024
L 224.762327 84.158527
L 225.240997 83.322481
L 226.198338 81.471615
L 226.357895 81.397171
L 226.517452 80.955517
L 226.677008 80.936403
L 226.996122 80.548438
L 227.155679 80.636038
L 227.315235 80.35267
L 227.474792 80.702223
L 227.634349 80.547622
L 228.432133 82.369373
L 229.229917 86.475667
L 230.346814 95.634541
L 231.623269 107.171493
L 232.421053 111.742413
L 232.740166 112.605749
L 233.05928 112.687218
L 233.218837 112.520593
L 233.697507 110.715219
L 234.01662 108.866507
L 234.814404 101.680599
L 236.569529 82.962513
L 237.207756 78.267843
L 237.686427 76.018498
L 238.00554 75.038371
L 238.324654 74.429411
L 238.803324 74.284762
L 238.962881 74.275102
L 239.441551 74.705914
L 239.760665 75.196762
L 242.47313 80.393405
L 244.387812 87.024935
L 244.866482 88.967956
L 245.026039 89.353563
L 245.345152 90.515119
L 245.98338 92.255249
L 246.46205 93.131855
L 246.621607 93.115215
L 246.781163 93.447674
L 246.94072 93.344258
L 247.100277 93.551895
L 247.419391 93.38261
L 247.578947 93.39827
L 247.738504 93.065212
L 247.898061 93.203546
L 248.057618 92.749681
L 248.217175 92.763792
L 248.536288 92.249468
L 248.695845 92.073979
L 249.014958 91.581366
L 249.653186 90.637169
L 249.972299 90.35238
L 250.291413 90.108746
L 250.610526 89.88134
L 251.248753 89.713333
L 252.684765 90.476549
L 252.844321 90.686152
L 253.003878 90.682016
L 253.163435 90.979169
L 253.322992 90.966015
L 253.482548 91.217988
L 253.642105 91.249831
L 254.120776 91.58021
L 254.759003 91.836364
L 255.078116 91.793923
L 255.237673 91.797232
L 255.39723 91.624607
L 255.556787 91.661031
L 256.195014 91.039945
L 256.514127 90.666441
L 256.992798 89.814525
L 257.152355 89.739314
L 257.471468 89.091466
L 258.269252 87.527828
L 259.067036 86.185306
L 259.226593 86.166477
L 259.38615 85.749728
L 259.545706 85.875999
L 259.705263 85.564843
L 259.86482 85.616853
L 260.024377 85.460627
L 261.141274 85.991532
L 261.619945 86.697767
L 261.779501 86.811665
L 262.098615 87.355199
L 263.375069 89.256686
L 263.534626 89.314572
L 263.85374 89.627102
L 264.491967 89.844638
L 264.651524 89.709963
L 264.81108 89.750686
L 265.289751 89.349028
L 265.449307 89.280039
L 266.087535 88.440429
L 266.247091 88.349971
L 266.406648 87.946034
L 266.566205 87.935499
L 266.885319 87.413921
L 268.002216 86.281798
L 268.161773 86.573865
L 268.32133 86.291502
L 268.640443 86.480081
L 268.8 86.446405
L 268.959557 86.756156
L 269.119114 86.66281
L 269.27867 87.027546
L 269.438227 87.088829
L 270.395568 88.684353
L 271.033795 90.054448
L 272.629363 92.541016
L 273.427147 92.777686
L 273.586704 92.798046
L 273.74626 92.60511
L 273.905817 92.638115
L 274.544044 91.795601
L 274.703601 91.816104
L 274.863158 91.316922
L 275.022715 91.246241
L 275.660942 90.002337
L 275.820499 89.865451
L 276.299169 88.992344
L 277.416066 87.398278
L 277.575623 87.457907
L 277.73518 87.039604
L 277.894737 87.1642
L 278.21385 86.795392
L 278.373407 86.897874
L 278.532964 86.508669
L 278.692521 86.747941
L 279.011634 86.421223
L 279.171191 86.534029
L 279.330748 86.164944
L 279.490305 86.435007
L 279.649861 86.048959
L 279.809418 86.141636
L 280.288089 85.853654
L 280.607202 85.463605
L 280.766759 85.391535
L 280.926316 85.019311
L 281.085873 85.035723
L 281.404986 84.506377
L 281.564543 84.358063
L 281.7241 83.940075
L 281.883657 83.94153
L 282.043213 83.499244
L 282.20277 83.406296
L 282.840997 82.496302
L 283.000554 82.51542
L 283.160111 82.279091
L 283.319668 82.352152
L 283.479224 82.246954
L 283.798338 82.396131
L 283.957895 82.506192
L 284.596122 83.664497
L 285.393906 86.677847
L 286.67036 93.997595
L 287.14903 97.197168
L 288.265928 102.484131
L 288.744598 103.419825
L 288.904155 103.539124
L 289.223269 103.455515
L 289.701939 102.355807
L 290.499723 98.370269
L 290.818837 96.467226
L 292.095291 86.737361
L 293.052632 80.783804
L 293.371745 79.194741
L 294.009972 77.442997
L 294.169529 77.236911
L 294.329086 77.266978
L 294.488643 77.091361
L 294.648199 77.359644
L 294.807756 77.365024
L 295.924654 80.866925
L 296.722438 84.56842
L 297.360665 87.852888
L 298.637119 92.476422
L 299.275346 93.481499
L 299.434903 93.407257
L 299.59446 93.512664
L 300.07313 93.214765
L 301.349584 90.420707
L 301.828255 88.949597
L 302.306925 87.7794
L 302.785596 86.439572
L 302.945152 86.383574
L 303.104709 85.848588
L 303.264266 85.794212
L 303.58338 85.280845
L 303.742936 85.303782
L 303.902493 84.987031
L 304.06205 85.210928
L 304.221607 84.882603
L 304.381163 85.16105
L 304.54072 85.073993
L 305.019391 85.360478
L 305.178947 85.7296
L 305.338504 85.680562
L 305.498061 86.096294
L 305.657618 86.149486
L 306.295845 87.251563
L 306.455402 87.369501
L 306.774515 87.888713
L 307.891413 89.377106
L 308.210526 89.679539
L 308.689197 90.079484
L 308.848753 89.984623
L 309.00831 90.305072
L 309.167867 90.175723
L 309.327424 90.392801
L 309.646537 90.43901
L 310.125208 90.664818
L 310.284765 90.622377
L 310.603878 90.766305
L 310.763435 90.889873
L 310.922992 90.862332
L 311.082548 91.043815
L 311.242105 90.991883
L 311.401662 91.20787
L 311.561219 91.184185
L 311.720776 91.360398
L 311.880332 91.366925
L 312.359003 91.750475
L 312.99723 92.137997
L 313.156787 92.348793
L 313.316343 92.288408
L 313.4759 92.565928
L 313.635457 92.469879
L 313.795014 92.726952
L 313.954571 92.630152
L 314.273684 92.816695
L 314.433241 92.774072
L 314.592798 92.872092
L 314.752355 92.740278
L 314.911911 92.82627
L 315.231025 92.608124
L 315.390582 92.531931
L 315.869252 91.935595
L 316.028809 91.813747
L 317.46482 88.497181
L 317.94349 86.780941
L 318.103047 86.557864
L 318.422161 85.398716
L 319.539058 81.971593
L 320.496399 80.428091
L 320.815512 80.249853
L 321.294183 80.371686
L 321.45374 80.702121
L 321.613296 80.698376
L 322.251524 82.171081
L 322.41108 82.339113
L 322.570637 83.084024
L 322.730194 83.267743
L 323.208864 84.788368
L 323.847091 86.880033
L 324.485319 88.540709
L 324.644875 89.067947
L 324.804432 89.16111
L 324.963989 89.795297
L 325.123546 89.787256
L 325.283102 90.272104
L 325.602216 90.618032
L 326.080886 91.175984
L 326.240443 91.206769
L 326.559557 91.426366
L 327.038227 91.751244
L 327.197784 91.73457
L 327.676454 92.0519
L 328.314681 92.413445
L 328.474238 92.650479
L 328.633795 92.638328
L 328.952909 92.963898
L 329.591136 93.565194
L 329.750693 93.595483
L 330.069806 93.813961
L 330.548476 93.97643
L 330.708033 93.875364
L 330.86759 93.983797
L 331.027147 93.762693
L 331.186704 93.768862
L 331.665374 93.385484
L 331.824931 92.867686
L 331.984488 92.924017
L 332.303601 92.21064
L 332.463158 91.946964
L 332.622715 91.405561
L 332.782271 91.296367
L 333.101385 90.472509
L 334.218283 87.727369
L 334.377839 87.608897
L 334.696953 86.94922
L 335.33518 86.041089
L 335.654294 85.848155
L 335.973407 85.71633
L 336.292521 85.625344
L 336.452078 85.736511
L 336.611634 85.660206
L 336.930748 85.852266
L 337.090305 85.88354
L 337.249861 86.1044
L 337.409418 86.033208
L 337.568975 86.359165
L 337.728532 86.33084
L 338.366759 86.988807
L 338.526316 86.998159
L 338.685873 87.283624
L 338.845429 87.275966
L 339.004986 87.526034
L 339.164543 87.569217
L 339.3241 87.801598
L 339.483657 87.828048
L 340.121884 88.379017
L 340.440997 88.608704
L 342.674792 89.806827
L 343.153463 89.921415
L 343.79169 90.005553
L 343.951247 89.820789
L 344.110803 89.949216
L 344.27036 89.766389
L 344.429917 89.800271
L 345.068144 89.366707
L 345.227701 89.357649
L 345.546814 89.09945
L 346.025485 88.648056
L 347.780609 87.194229
L 347.940166 87.287305
L 348.099723 87.061724
L 348.418837 87.051015
L 348.578393 86.925931
L 348.73795 87.042298
L 348.897507 86.889443
L 349.21662 87.018957
L 349.376177 86.963607
L 349.535734 87.178982
L 349.695291 87.065448
L 350.014404 87.32583
L 350.173961 87.373398
L 350.333518 87.616418
L 350.493075 87.598608
L 350.812188 87.913074
L 352.088643 89.194406
L 352.248199 89.274408
L 352.407756 89.562782
L 352.567313 89.504256
L 352.72687 89.843495
L 352.886427 89.761529
L 353.20554 90.075993
L 353.365097 90.031826
L 353.524654 90.239531
L 353.684211 90.148922
L 353.843767 90.317673
L 354.162881 90.262744
L 354.481994 90.262187
L 354.960665 90.074689
L 355.279778 89.965641
L 355.439335 89.825282
L 355.598892 89.834962
L 356.077562 89.498615
L 357.513573 88.782584
L 357.832687 88.724878
L 357.992244 88.675769
L 358.151801 88.764142
L 358.311357 88.552806
L 358.470914 88.772919
L 358.630471 88.575467
L 358.949584 88.706711
L 359.109141 88.577492
L 359.268698 88.766516
L 359.428255 88.589493
L 359.747368 88.747435
L 359.906925 88.553365
L 360.066482 88.829005
L 360.226039 88.542818
L 360.385596 88.723337
L 360.704709 88.553986
L 360.864266 88.684835
L 361.023823 88.467824
L 361.18338 88.567982
L 361.502493 88.387982
L 361.66205 88.446208
L 361.821607 88.257813
L 362.14072 88.23871
L 362.300277 88.111027
L 362.459834 88.153717
L 362.619391 87.980382
L 362.778947 88.046337
L 363.098061 87.906925
L 363.576731 87.766504
L 363.736288 87.866116
L 363.895845 87.761845
L 364.055402 87.846853
L 364.374515 87.850845
L 365.65097 88.298209
L 366.12964 88.60794
L 366.927424 89.081708
L 367.086981 89.378225
L 367.246537 89.242682
L 367.406094 89.569905
L 367.565651 89.541117
L 367.884765 89.856708
L 368.044321 89.799355
L 368.203878 90.07963
L 368.363435 90.040166
L 368.682548 90.301328
L 368.842105 90.270492
L 369.001662 90.460277
L 369.320776 90.479455
L 369.480332 90.689873
L 369.639889 90.503368
L 369.799446 90.734567
L 369.959003 90.612268
L 370.278116 90.757495
L 370.437673 90.535751
L 370.59723 90.709609
L 370.756787 90.509354
L 371.0759 90.505033
L 371.235457 90.207946
L 371.395014 90.333484
L 371.554571 90.013365
L 371.873684 89.818406
L 372.033241 89.507877
L 372.192798 89.502333
L 372.352355 89.085993
L 372.511911 89.005813
L 373.469252 87.359251
L 374.745706 85.259128
L 374.905263 85.197215
L 375.06482 84.823128
L 375.224377 84.891286
L 375.383934 84.599818
L 375.703047 84.510274
L 375.862604 84.410967
L 376.022161 84.510236
L 376.181717 84.449829
L 376.660388 84.66155
L 376.979501 84.950656
L 378.734626 87.518571
L 378.894183 88.027307
L 379.05374 87.908444
L 379.213296 88.515022
L 379.372853 88.465751
L 379.691967 89.019435
L 379.851524 89.051824
L 380.01108 89.435157
L 380.170637 89.360083
L 380.330194 89.686238
L 380.649307 89.833191
L 380.808864 90.022096
L 380.968421 90.032937
L 381.287535 90.236508
L 381.766205 90.561592
L 381.925762 90.547024
L 382.244875 90.757971
L 382.404432 90.787687
L 382.563989 91.010121
L 382.723546 90.92916
L 383.042659 91.18595
L 383.202216 91.210576
L 383.361773 91.473159
L 383.52133 91.332179
L 383.680886 91.642727
L 383.840443 91.516639
L 384.159557 91.803468
L 384.319114 91.648311
L 384.47867 91.882193
L 384.638227 91.726506
L 384.797784 91.84124
L 385.755125 91.387292
L 385.914681 91.099114
L 386.074238 91.068877
L 386.712465 90.087993
L 387.031579 89.617963
L 387.98892 88.078438
L 388.148476 87.969892
L 388.308033 87.634305
L 388.46759 87.590413
L 388.627147 87.310914
L 388.786704 87.28068
L 389.105817 87.070456
L 389.265374 86.982119
L 389.424931 87.046148
L 389.584488 86.937352
L 390.063158 87.2137
L 390.382271 87.348313
L 390.860942 87.894549
L 391.020499 87.897044
L 391.180055 88.257894
L 391.339612 88.205401
L 391.499169 88.58499
L 391.658726 88.602261
L 391.977839 88.978276
L 392.137396 88.977157
L 392.296953 89.300646
L 392.45651 89.170485
L 392.616066 89.452831
L 392.775623 89.321013
L 392.93518 89.510367
L 393.094737 89.42369
L 393.254294 89.478147
L 393.41385 89.395057
L 393.573407 89.445877
L 393.732964 89.243534
L 393.892521 89.321227
L 394.211634 89.065735
L 395.647645 87.908867
L 395.807202 87.695075
L 395.966759 87.756432
L 396.126316 87.439041
L 396.285873 87.602414
L 396.445429 87.376139
L 397.40277 87.343508
L 398.519668 87.731833
L 398.679224 87.964541
L 398.838781 87.919224
L 399.157895 88.211398
L 399.317452 88.236998
L 399.636565 88.462204
L 399.796122 88.496074
L 399.955679 88.714726
L 400.115235 88.579391
L 400.274792 88.867126
L 400.434349 88.676163
L 400.593906 88.922773
L 400.753463 88.830295
L 401.072576 88.890995
L 401.87036 88.782003
L 402.189474 88.635789
L 403.146814 88.059317
L 403.625485 87.866172
L 403.944598 87.714394
L 404.582825 87.514478
L 404.742382 87.600606
L 404.901939 87.510378
L 405.061496 87.656198
L 405.221053 87.59957
L 405.85928 88.078951
L 406.018837 88.102005
L 406.178393 88.424603
L 406.33795 88.426414
L 406.497507 88.791097
L 406.657064 88.815716
L 406.976177 89.303544
L 408.731302 91.708078
L 408.890859 91.643821
L 409.050416 91.943302
L 409.209972 91.929884
L 409.529086 92.139936
L 409.688643 92.149797
L 409.848199 92.276273
L 410.007756 92.152007
L 410.167313 92.28067
L 410.32687 92.123079
L 410.486427 92.177087
L 410.645983 91.992923
L 410.80554 92.03519
L 410.965097 91.791469
L 411.124654 91.803799
L 411.284211 91.534247
L 411.443767 91.546671
L 411.762881 91.123711
L 411.922438 91.000598
L 412.081994 90.692414
L 412.241551 90.677683
L 412.401108 90.284578
L 412.560665 90.241412
L 412.879778 89.754744
L 413.518006 88.926121
L 413.677562 88.623094
L 413.837119 88.573612
L 414.156233 88.104321
L 414.475346 87.655615
L 414.634903 87.504142
L 414.79446 87.176645
L 414.954017 87.123701
L 415.592244 86.317411
L 415.751801 86.260313
L 416.070914 85.950653
L 416.868698 85.423094
L 417.028255 85.493224
L 417.187812 85.311603
L 417.347368 85.420482
L 417.666482 85.386257
L 418.942936 86.184388
L 419.421607 86.800535
L 419.581163 86.865771
L 419.900277 87.299626
L 420.538504 88.204864
L 421.974515 89.778789
L 422.134072 89.754264
L 422.293629 89.954909
L 422.453186 89.919262
L 422.772299 90.090645
L 422.931856 89.998153
L 423.091413 90.137722
L 423.25097 89.979071
L 423.410526 90.098825
L 423.570083 89.876177
L 423.72964 89.984364
L 423.889197 89.762042
L 424.048753 89.782688
L 424.367867 89.56376
L 425.006094 89.019154
L 425.484765 88.655716
L 426.601662 87.944323
L 426.920776 87.914809
L 427.080332 87.849001
L 427.239889 87.914194
L 427.399446 87.818735
L 427.559003 87.963948
L 427.71856 87.849062
L 427.878116 88.017513
L 428.037673 87.988989
L 428.6759 88.441047
L 428.835457 88.31159
L 428.995014 88.69893
L 429.154571 88.506404
L 429.314127 88.918545
L 429.473684 88.785287
L 429.792798 89.132844
L 429.952355 89.153659
L 430.111911 89.400495
L 430.271468 89.335405
L 430.431025 89.568028
L 430.590582 89.539945
L 430.750139 89.690542
L 430.909695 89.675252
L 431.069252 89.842308
L 431.228809 89.709002
L 431.388366 89.955793
L 431.547922 89.757171
L 431.707479 89.94268
L 432.026593 89.778848
L 432.18615 89.961286
L 432.345706 89.655939
L 432.505263 89.874597
L 432.66482 89.655953
L 432.983934 89.694809
L 433.14349 89.380923
L 433.303047 89.63427
L 433.462604 89.281248
L 433.622161 89.37892
L 434.260388 88.959089
L 434.419945 89.133185
L 434.579501 88.926624
L 434.898615 88.904594
L 435.855956 88.845818
L 436.015512 88.921643
L 436.175069 88.873521
L 436.334626 88.972218
L 436.494183 88.928453
L 436.813296 89.037819
L 436.972853 89.045934
L 437.13241 89.16662
L 437.291967 89.083641
L 437.451524 89.261878
L 437.61108 89.139397
L 437.930194 89.276664
L 438.089751 89.174282
L 438.249307 89.312647
L 438.408864 89.150627
L 438.727978 89.186071
L 438.887535 89.043318
L 439.047091 89.138179
L 439.206648 88.909792
L 439.366205 88.945055
L 440.483102 88.05719
L 440.642659 88.038535
L 440.802216 87.740293
L 440.961773 87.776057
L 441.12133 87.479433
L 441.280886 87.49401
L 441.440443 87.243217
L 441.6 87.239974
L 441.919114 86.995334
L 442.397784 86.767061
L 442.716898 86.6875
L 443.514681 86.748874
L 444.631579 87.415892
L 445.110249 87.945282
L 445.429363 88.213658
L 445.908033 88.775184
L 446.06759 88.843759
L 446.54626 89.381006
L 446.705817 89.449453
L 447.024931 89.707478
L 447.344044 89.962917
L 448.141828 90.393858
L 448.301385 90.307229
L 448.460942 90.496763
L 448.620499 90.348818
L 448.939612 90.453528
L 449.099169 90.345926
L 449.258726 90.471988
L 449.418283 90.274112
L 449.577839 90.400581
L 449.896953 90.187929
L 450.05651 90.232444
L 450.216066 90.049425
L 450.375623 90.088464
L 450.694737 89.921801
L 452.290305 89.199643
L 452.449861 89.229765
L 452.768975 89.091714
L 454.045429 88.633882
L 454.204986 88.741394
L 454.364543 88.416695
L 454.5241 88.645415
L 454.683657 88.359136
L 455.00277 88.356618
L 455.162327 88.133147
L 455.321884 88.308726
L 455.48144 87.958432
L 455.640997 88.082706
L 455.960111 87.752362
L 456.119668 87.914244
L 456.279224 87.526227
L 456.438781 87.717842
L 456.598338 87.465528
L 456.917452 87.459945
L 457.077008 87.169461
L 457.236565 87.39708
L 457.396122 87.04241
L 457.555679 87.261429
L 457.715235 87.043433
L 458.034349 87.104169
L 458.193906 86.963031
L 458.353463 87.184744
L 458.513019 86.910042
L 458.672576 87.25722
L 458.832133 87.007474
L 458.99169 87.300417
L 459.151247 87.203504
L 459.47036 87.486937
L 459.629917 87.424002
L 459.789474 87.796511
L 459.94903 87.603952
L 460.108587 88.012624
L 460.268144 87.956853
L 460.587258 88.315922
L 460.746814 88.429391
L 460.906371 88.695906
L 461.065928 88.739723
L 461.704155 89.488485
L 461.863712 89.370716
L 462.023269 89.750062
L 462.182825 89.679276
L 462.501939 90.007768
L 462.661496 89.94956
L 462.821053 90.211748
L 462.980609 90.060941
L 463.140166 90.288405
L 463.45928 90.245073
L 463.618837 90.318404
L 463.778393 90.221075
L 463.93795 90.282967
L 464.257064 90.179187
L 464.735734 90.010313
L 465.533518 89.502362
L 465.693075 89.580646
L 465.852632 89.302723
L 466.012188 89.351691
L 466.331302 89.056944
L 466.490859 89.137123
L 466.650416 88.769865
L 466.809972 89.018348
L 466.969529 88.655751
L 467.129086 88.751416
L 467.448199 88.502335
L 467.607756 88.610514
L 467.767313 88.360575
L 467.92687 88.465538
L 468.245983 88.250701
L 468.40554 88.3968
L 468.565097 88.165444
L 468.724654 88.326188
L 469.043767 88.152477
L 469.203324 88.292603
L 469.362881 88.075629
L 469.522438 88.247802
L 469.841551 88.1226
L 470.001108 88.251628
L 470.160665 88.050342
L 470.320222 88.27398
L 470.479778 88.124106
L 471.596676 88.313132
L 471.756233 88.061628
L 471.915789 88.336944
L 472.075346 88.166318
L 472.234903 88.203154
L 472.39446 88.376904
L 472.554017 88.05166
L 472.713573 88.508178
L 472.87313 88.093092
L 473.032687 88.427452
L 473.351801 88.29591
L 473.511357 88.523097
L 473.670914 88.27169
L 473.830471 88.582914
L 473.990028 88.431582
L 474.309141 88.623696
L 474.468698 88.580538
L 474.628255 88.756655
L 474.947368 88.807553
L 475.426039 89.018375
L 476.542936 89.37996
L 476.702493 89.510192
L 476.86205 89.390353
L 477.021607 89.612061
L 477.181163 89.417557
L 477.34072 89.627489
L 477.500277 89.455824
L 477.659834 89.556068
L 478.138504 89.528934
L 478.298061 89.263703
L 478.457618 89.402248
L 478.776731 89.139621
L 478.936288 89.129705
L 479.095845 88.870901
L 479.255402 88.94911
L 479.574515 88.612907
L 479.734072 88.610472
L 479.893629 88.301666
L 480.053186 88.405574
L 480.372299 88.067868
L 480.531856 88.036776
L 480.691413 87.76759
L 480.85097 87.881188
L 481.010526 87.632087
L 481.32964 87.638384
L 481.489197 87.389302
L 481.648753 87.55248
L 481.80831 87.395009
L 482.127424 87.505836
L 482.286981 87.285071
L 482.446537 87.593229
L 482.606094 87.414078
L 482.925208 87.628385
L 483.084765 87.629577
L 483.244321 87.823069
L 483.403878 87.810423
L 484.042105 88.322607
L 484.361219 88.521527
L 485.478116 89.283926
L 485.637673 89.256719
L 485.79723 89.464396
L 485.956787 89.390296
L 486.2759 89.621545
L 486.435457 89.357749
L 486.595014 89.722575
L 486.754571 89.373646
L 486.914127 89.591294
L 487.233241 89.301367
L 487.392798 89.589281
L 487.552355 89.149271
L 487.711911 89.360574
L 488.031025 89.031985
L 488.190582 89.169638
L 488.350139 88.807505
L 488.509695 88.877629
L 488.669252 88.819132
L 488.828809 88.536728
L 488.988366 88.762541
L 489.147922 88.349689
L 489.307479 88.505939
L 489.467036 88.407498
L 489.626593 88.170527
L 489.78615 88.423289
L 489.945706 88.070262
L 490.105263 88.271039
L 490.424377 88.008137
L 490.583934 88.355622
L 490.74349 88.009411
L 490.903047 88.302131
L 491.222161 88.204535
L 491.381717 88.467721
L 491.541274 88.265579
L 491.700831 88.559941
L 491.860388 88.514631
L 493.455956 89.395131
L 493.615512 89.342555
L 493.775069 89.52105
L 493.934626 89.452948
L 494.25374 89.584781
L 494.413296 89.486005
L 494.572853 89.649071
L 494.73241 89.443338
L 494.891967 89.618832
L 495.21108 89.448732
L 495.370637 89.493794
L 495.530194 89.26931
L 495.689751 89.468046
L 495.849307 89.105778
L 496.008864 89.336401
L 496.168421 89.075179
L 496.487535 89.098656
L 496.647091 88.772649
L 496.806648 89.042064
L 496.966205 88.634883
L 497.125762 88.834917
L 497.444875 88.497126
L 497.604432 88.7002
L 497.763989 88.331722
L 497.923546 88.561105
L 498.083102 88.306116
L 498.402216 88.358356
L 498.561773 88.128803
L 498.72133 88.296415
L 499.040443 88.074
L 499.2 88.164033
L 499.359557 87.954179
L 499.519114 88.064126
L 499.838227 87.863449
L 499.997784 88.042436
L 500.157341 87.680109
L 500.316898 88.009911
L 500.476454 87.691279
L 500.636011 87.829766
L 500.955125 87.710639
L 501.114681 87.748737
L 501.433795 87.682899
L 501.593352 87.724231
L 501.752909 87.62644
L 501.912465 87.742523
L 502.231579 87.734326
L 502.869806 87.924315
L 503.029363 87.975942
L 503.18892 88.149294
L 503.348476 88.105038
L 503.508033 88.337399
L 503.66759 88.299156
L 503.986704 88.603403
L 504.14626 88.653349
L 504.305817 88.907263
L 504.465374 88.855123
L 504.624931 89.181702
L 504.784488 89.098613
L 505.103601 89.425409
L 505.263158 89.483399
L 505.422715 89.724821
L 505.582271 89.635637
L 505.741828 89.927456
L 505.901385 89.827771
L 506.220499 90.072907
L 506.380055 90.002352
L 506.539612 90.203352
L 506.699169 90.080193
L 507.018283 90.179552
L 507.177839 90.088713
L 507.337396 90.250556
L 507.496953 90.020691
L 507.65651 90.159173
L 507.975623 89.963732
L 508.13518 90.010715
L 508.294737 89.830998
L 508.454294 89.883184
L 508.773407 89.671422
L 508.932964 89.664785
L 509.252078 89.474557
L 509.730748 89.315339
L 510.049861 89.092422
L 510.209418 89.084931
L 510.368975 88.852837
L 510.528532 89.033969
L 510.688089 88.701805
L 511.007202 88.737074
L 511.166759 88.445299
L 511.326316 88.730109
L 511.485873 88.24376
L 511.645429 88.529758
L 511.804986 88.211645
L 512.1241 88.254496
L 512.283657 87.875087
L 512.443213 88.136387
L 512.60277 87.782589
L 512.762327 87.836625
L 512.921884 87.769667
L 513.08144 87.556478
L 513.240997 87.660601
L 513.560111 87.400626
L 513.719668 87.455307
L 513.879224 87.2149
L 514.038781 87.367061
L 514.357895 87.143736
L 514.517452 87.336356
L 514.677008 86.98578
L 514.836565 87.374312
L 514.996122 87.067608
L 515.315235 87.363591
L 515.474792 87.174916
L 515.634349 87.617313
L 515.793906 87.299094
L 515.953463 87.740314
L 516.113019 87.650282
L 518.825485 90.404452
L 518.985042 90.3156
L 519.144598 90.573006
L 519.304155 90.507049
L 519.463712 90.660914
L 519.623269 90.629543
L 519.782825 90.730902
L 519.942382 90.619492
L 520.101939 90.719736
L 520.421053 90.603245
L 520.899723 90.42839
L 521.05928 90.116598
L 521.218837 90.160885
L 521.53795 89.812859
L 524.250416 87.102287
L 525.367313 86.782363
L 525.52687 86.943055
L 525.686427 86.817312
L 525.845983 87.010389
L 526.00554 86.950646
L 526.324654 87.135971
L 527.441551 87.947065
L 527.920222 88.409687
L 529.037119 89.361354
L 529.356233 89.506234
L 529.515789 89.684699
L 529.675346 89.640809
L 529.834903 89.842976
L 529.99446 89.765668
L 530.154017 89.956702
L 530.313573 89.863995
L 530.47313 89.997818
L 530.792244 89.987467
L 531.590028 89.874363
L 531.749584 89.733984
L 531.909141 89.776266
L 532.068698 89.599829
L 532.228255 89.628393
L 532.387812 89.421551
L 532.547368 89.483443
L 532.706925 89.234498
L 532.866482 89.29165
L 533.185596 89.043315
L 533.345152 88.967966
L 533.504709 88.768461
L 533.664266 88.832185
L 533.823823 88.58387
L 533.98338 88.609767
L 534.302493 88.328467
L 534.46205 88.473531
L 534.621607 88.152945
L 534.781163 88.325102
L 535.100277 88.103504
L 535.259834 88.211859
L 535.419391 87.93576
L 535.578947 88.194607
L 535.738504 87.983063
L 536.057618 88.111743
L 536.217175 87.964138
L 536.376731 88.219729
L 536.536288 88.037255
L 536.855402 88.203313
L 537.014958 88.17468
L 537.174515 88.343049
L 537.334072 88.241634
L 537.653186 88.429931
L 537.812742 88.397492
L 537.972299 88.54068
L 538.291413 88.561648
L 538.45097 88.647617
L 538.610526 88.596917
L 538.92964 88.678094
L 539.089197 88.660947
L 539.248753 88.780055
L 539.40831 88.624491
L 539.567867 88.760315
L 539.886981 88.664518
L 540.046537 88.682125
L 540.206094 88.560572
L 540.525208 88.536549
L 540.684765 88.435581
L 540.844321 88.51276
L 541.003878 88.310019
L 541.163435 88.37959
L 541.482548 88.17521
L 541.642105 88.257402
L 541.801662 88.011275
L 541.961219 88.144768
L 542.280332 87.954784
L 542.439889 88.029824
L 542.599446 87.835322
L 542.759003 88.012434
L 542.91856 87.854911
L 543.237673 87.991652
L 543.39723 87.850478
L 543.556787 88.064177
L 543.8759 88.038986
L 544.035457 88.231681
L 544.195014 88.079735
L 544.354571 88.441935
L 544.514127 88.286604
L 544.833241 88.650806
L 544.992798 88.58383
L 545.152355 88.997472
L 545.311911 88.79526
L 545.471468 89.196581
L 545.631025 89.164037
L 546.428809 89.882127
L 546.588366 89.835534
L 546.747922 90.148526
L 546.907479 90.058667
L 547.226593 90.366235
L 547.38615 90.200318
L 547.545706 90.571742
L 547.705263 90.272012
L 547.86482 90.533915
L 548.183934 90.358734
L 548.34349 90.543729
L 548.503047 90.293778
L 548.662604 90.377454
L 548.822161 90.332631
L 548.981717 90.059579
L 549.141274 90.285958
L 549.300831 89.861579
L 549.460388 89.963079
L 549.619945 89.818548
L 549.779501 89.491767
L 549.939058 89.711269
L 550.098615 89.170196
L 550.258172 89.324655
L 550.577285 88.804908
L 550.736842 88.925437
L 550.896399 88.385319
L 551.055956 88.590037
L 551.215512 88.204995
L 551.534626 88.069124
L 551.694183 87.794692
L 552.013296 87.650269
L 552.172853 87.405046
L 552.33241 87.56044
L 552.491967 87.157224
L 552.651524 87.320809
L 552.970637 87.028445
L 553.130194 87.212323
L 553.289751 86.89764
L 553.449307 87.128262
L 553.768421 86.982731
L 553.927978 87.119686
L 554.087535 86.97928
L 554.406648 87.170867
L 554.566205 87.102771
L 554.725762 87.390594
L 554.885319 87.191846
L 555.044875 87.493284
L 555.363989 87.527251
L 555.523546 87.762573
L 555.683102 87.667804
L 555.842659 87.967926
L 556.002216 87.952402
L 556.8 88.565743
L 556.8 88.565743
" clip-path="url(#p5c75c20a56)" style="fill: none; stroke: #000000; stroke-linecap: square"/>
   </g>
   <g id="patch_3">
    <path d="M 38.4 148.8
L 38.4 28.8
" style="fill: none; stroke: #000000; stroke-width: 0.8; stroke-linejoin: miter; stroke-linecap: square"/>
   </g>
   <g id="patch_4">
    <path d="M 556.8 148.8
L 556.8 28.8
" style="fill: none; stroke: #000000; stroke-width: 0.8; stroke-linejoin: miter; stroke-linecap: square"/>
   </g>
   <g id="patch_5">
    <path d="M 38.4 148.8
L 556.8 148.8
" style="fill: none; stroke: #000000; stroke-width: 0.8; stroke-linejoin: miter; stroke-linecap: square"/>
   </g>
   <g id="patch_6">
    <path d="M 38.4 28.8
L 556.8 28.8
" style="fill: none; stroke: #000000; stroke-width: 0.8; stroke-linejoin: miter; stroke-linecap: square"/>
   </g>
   <g id="text_9">
    <g id="patch_7">
     <path d="M 48.768 45.360878
L 121.340522 45.360878
Q 123.839522 45.360878 123.839522 42.861878
L 123.839522 34.8
Q 123.839522 32.301 121.340522 32.301
L 48.768 32.301
Q 46.269 32.301 46.269 34.8
L 46.269 42.861878
Q 46.269 45.360878 48.768 45.360878
z
" style="fill: #ffffff; opacity: 0.8; stroke: #000000; stroke-linejoin: miter"/>
    </g>
    <!-- AA.S0001.S2.PRE -->
    <g transform="translate(48.768 41.129498) scale(0.0833 -0.0833)">
     <defs>
      <path id="DejaVuSans-41" d="M 2188 4044
L 1331 1722
L 3047 1722
L 2188 4044
z
M 1831 4666
L 2547 4666
L 4325 0
L 3669 0
L 3244 1197
L 1141 1197
L 716 0
L 50 0
L 1831 4666
z
" transform="scale(0.015625)"/>
      <path id="DejaVuSans-53" d="M 3425 4513
L 3425 3897
Q 3066 4069 2747 4153
Q 2428 4238 2131 4238
Q 1616 4238 1336 4038
Q 1056 3838 1056 3469
Q 1056 3159 1242 3001
Q 1428 2844 1947 2747
L 2328 2669
Q 3034 2534 3370 2195
Q 3706 1856 3706 1288
Q 3706 609 3251 259
Q 2797 -91 1919 -91
Q 1588 -91 1214 -16
Q 841 59 441 206
L 441 856
Q 825 641 1194 531
Q 1563 422 1919 422
Q 2459 422 2753 634
Q 3047 847 3047 1241
Q 3047 1584 2836 1778
Q 2625 1972 2144 2069
L 1759 2144
Q 1053 2284 737 2584
Q 422 2884 422 3419
Q 422 4038 858 4394
Q 1294 4750 2059 4750
Q 2388 4750 2728 4690
Q 3069 4631 3425 4513
z
" transform="scale(0.015625)"/>
      <path id="DejaVuSans-50" d="M 1259 4147
L 1259 2394
L 2053 2394
Q 2494 2394 2734 2622
Q 2975 2850 2975 3272
Q 2975 3691 2734 3919
Q 2494 4147 2053 4147
L 1259 4147
z
M 628 4666
L 2053 4666
Q 2838 4666 3239 4311
Q 3641 3956 3641 3272
Q 3641 2581 3239 2228
Q 2838 1875 2053 1875
L 1259 1875
L 1259 0
L 628 0
L 628 4666
z
" transform="scale(0.015625)"/>
      <path id="DejaVuSans-52" d="M 2841 2188
Q 3044 2119 3236 1894
Q 3428 1669 3622 1275
L 4263 0
L 3584 0
L 2988 1197
Q 2756 1666 2539 1819
Q 2322 1972 1947 1972
L 1259 1972
L 1259 0
L 628 0
L 628 4666
L 2053 4666
Q 2853 4666 3247 4331
Q 3641 3997 3641 3322
Q 3641 2881 3436 2590
Q 3231 2300 2841 2188
z
M 1259 4147
L 1259 2491
L 2053 2491
Q 2509 2491 2742 2702
Q 2975 2913 2975 3322
Q 2975 3731 2742 3939
Q 2509 4147 2053 4147
L 1259 4147
z
" transform="scale(0.015625)"/>
      <path id="DejaVuSans-45" d="M 628 4666
L 3578 4666
L 3578 4134
L 1259 4134
L 1259 2753
L 3481 2753
L 3481 2222
L 1259 2222
L 1259 531
L 3634 531
L 3634 0
L 628 0
L 628 4666
z
" transform="scale(0.015625)"/>
     </defs>
     <use xlink:href="#DejaVuSans-41"/>
     <use xlink:href="#DejaVuSans-41" transform="translate(71.158203 0)"/>
     <use xlink:href="#DejaVuSans-2e" transform="translate(137.816406 0)"/>
     <use xlink:href="#DejaVuSans-53" transform="translate(169.603516 0)"/>
     <use xlink:href="#DejaVuSans-30" transform="translate(233.080078 0)"/>
     <use xlink:href="#DejaVuSans-30" transform="translate(296.703125 0)"/>
     <use xlink:href="#DejaVuSans-30" transform="translate(360.326172 0)"/>
     <use xlink:href="#DejaVuSans-31" transform="translate(423.949219 0)"/>
     <use xlink:href="#DejaVuSans-2e" transform="translate(487.572266 0)"/>
     <use xlink:href="#DejaVuSans-53" transform="translate(519.359375 0)"/>
     <use xlink:href="#DejaVuSans-32" transform="translate(582.835938 0)"/>
     <use xlink:href="#DejaVuSans-2e" transform="translate(646.458984 0)"/>
     <use xlink:href="#DejaVuSans-50" transform="translate(678.246094 0)"/>
     <use xlink:href="#DejaVuSans-52" transform="translate(738.548828 0)"/>
     <use xlink:href="#DejaVuSans-45" transform="translate(808.03125 0)"/>
    </g>
   </g>
  </g>
  <g id="axes_2">
   <g id="patch_8">
    <path d="M 38.4 268.8
L 556.8 268.8
L 556.8 148.8
L 38.4 148.8
z
" style="fill: #ffffff"/>
   </g>
   <g id="matplotlib.axis_3">
    <g id="xtick_5">
     <g id="line2d_13">
      <g>
       <use xlink:href="#m9c3f798ab0" x="57.546814" y="268.8" style="stroke: #000000; stroke-width: 0.8"/>
      </g>
     </g>
     <g id="text_10">
      <!-- 1970-01-01T00:00:00 -->
      <g transform="translate(12.091696 282.129498) scale(0.0833 -0.0833)">
       <defs>
        <path id="DejaVuSans-39" d="M 703 97
L 703 672
Q 941 559 1184 500
Q 1428 441 1663 441
Q 2288 441 2617 861
Q 2947 1281 2994 2138
Q 2813 1869 2534 1725
Q 2256 1581 1919 1581
Q 1219 1581 811 2004
Q 403 2428 403 3163
Q 403 3881 828 4315
Q 1253 4750 1959 4750
Q 2769 4750 3195 4129
Q 3622 3509 3622 2328
Q 3622 1225 3098 567
Q 2575 -91 1691 -91
Q 1453 -91 1209 -44
Q 966 3 703 97
z
M 1959 2075
Q 2384 2075 2632 2365
Q 2881 2656 2881 3163
Q 2881 3666 2632 3958
Q 2384 4250 1959 4250
Q 1534 4250 1286 3958
Q 1038 3666 1038 3163
Q 1038 2656 1286 2365
Q 1534 2075 1959 2075
z
" transform="scale(0.015625)"/>
        <path id="DejaVuSans-37" d="M 525 4666
L 3525 4666
L 3525 4397
L 1831 0
L 1172 0
L 2766 4134
L 525 4134
L 525 4666
z
" transform="scale(0.015625)"/>
        <path id="DejaVuSans-2d" d="M 313 2009
L 1997 2009
L 1997 1497
L 313 1497
L 313 2009
z
" transform="scale(0.015625)"/>
        <path id="DejaVuSans-54" d="M -19 4666
L 3928 4666
L 3928 4134
L 2272 4134
L 2272 0
L 1638 0
L 1638 4134
L -19 4134
L -19 4666
z
" transform="scale(0.015625)"/>
        <path id="DejaVuSans-3a" d="M 750 794
L 1409 794
L 1409 0
L 750 0
L 750 794
z
M 750 3309
L 1409 3309
L 1409 2516
L 750 2516
L 750 3309
z
" transform="scale(0.015625)"/>
       </defs>
       <use xlink:href="#DejaVuSans-31"/>
       <use xlink:href="#DejaVuSans-39" transform="translate(63.623047 0)"/>
       <use xlink:href="#DejaVuSans-37" transform="translate(127.246094 0)"/>
       <use xlink:href="#DejaVuSans-30" transform="translate(190.869141 0)"/>
       <use xlink:href="#DejaVuSans-2d" transform="translate(254.492188 0)"/>
       <use xlink:href="#DejaVuSans-30" transform="translate(290.576172 0)"/>
       <use xlink:href="#DejaVuSans-31" transform="translate(354.199219 0)"/>
       <use xlink:href="#DejaVuSans-2d" transform="translate(417.822266 0)"/>
       <use xlink:href="#DejaVuSans-30" transform="translate(453.90625 0)"/>
       <use xlink:href="#DejaVuSans-31" transform="translate(517.529297 0)"/>
       <use xlink:href="#DejaVuSans-54" transform="translate(581.152344 0)"/>
       <use xlink:href="#DejaVuSans-30" transform="translate(642.236328 0)"/>
       <use xlink:href="#DejaVuSans-30" transform="translate(705.859375 0)"/>
       <use xlink:href="#DejaVuSans-3a" transform="translate(769.482422 0)"/>
       <use xlink:href="#DejaVuSans-30" transform="translate(803.173828 0)"/>
       <use xlink:href="#DejaVuSans-30" transform="translate(866.796875 0)"/>
       <use xlink:href="#DejaVuSans-3a" transform="translate(930.419922 0)"/>
       <use xlink:href="#DejaVuSans-30" transform="translate(964.111328 0)"/>
       <use xlink:href="#DejaVuSans-30" transform="translate(1027.734375 0)"/>
      </g>
     </g>
    </g>
    <g id="xtick_6">
     <g id="line2d_14">
      <g>
       <use xlink:href="#m9c3f798ab0" x="217.103601" y="268.8" style="stroke: #000000; stroke-width: 0.8"/>
      </g>
     </g>
     <g id="text_11">
      <!-- 00:00:10 -->
      <g transform="translate(198.397545 282.129498) scale(0.0833 -0.0833)">
       <use xlink:href="#DejaVuSans-30"/>
       <use xlink:href="#DejaVuSans-30" transform="translate(63.623047 0)"/>
       <use xlink:href="#DejaVuSans-3a" transform="translate(127.246094 0)"/>
       <use xlink:href="#DejaVuSans-30" transform="translate(160.9375 0)"/>
       <use xlink:href="#DejaVuSans-30" transform="translate(224.560547 0)"/>
       <use xlink:href="#DejaVuSans-3a" transform="translate(288.183594 0)"/>
       <use xlink:href="#DejaVuSans-31" transform="translate(321.875 0)"/>
       <use xlink:href="#DejaVuSans-30" transform="translate(385.498047 0)"/>
      </g>
     </g>
    </g>
    <g id="xtick_7">
     <g id="line2d_15">
      <g>
       <use xlink:href="#m9c3f798ab0" x="376.660388" y="268.8" style="stroke: #000000; stroke-width: 0.8"/>
      </g>
     </g>
     <g id="text_12">
      <!-- 00:00:20 -->
      <g transform="translate(357.954332 282.129498) scale(0.0833 -0.0833)">
       <use xlink:href="#DejaVuSans-30"/>
       <use xlink:href="#DejaVuSans-30" transform="translate(63.623047 0)"/>
       <use xlink:href="#DejaVuSans-3a" transform="translate(127.246094 0)"/>
       <use xlink:href="#DejaVuSans-30" transform="translate(160.9375 0)"/>
       <use xlink:href="#DejaVuSans-30" transform="translate(224.560547 0)"/>
       <use xlink:href="#DejaVuSans-3a" transform="translate(288.183594 0)"/>
       <use xlink:href="#DejaVuSans-32" transform="translate(321.875 0)"/>
       <use xlink:href="#DejaVuSans-30" transform="translate(385.498047 0)"/>
      </g>
     </g>
    </g>
    <g id="xtick_8">
     <g id="line2d_16">
      <g>
       <use xlink:href="#m9c3f798ab0" x="536.217175" y="268.8" style="stroke: #000000; stroke-width: 0.8"/>
      </g>
     </g>
     <g id="text_13">
      <!-- 00:00:30 -->
      <g transform="translate(517.511118 282.129498) scale(0.0833 -0.0833)">
       <defs>
        <path id="DejaVuSans-33" d="M 2597 2516
Q 3050 2419 3304 2112
Q 3559 1806 3559 1356
Q 3559 666 3084 287
Q 2609 -91 1734 -91
Q 1441 -91 1130 -33
Q 819 25 488 141
L 488 750
Q 750 597 1062 519
Q 1375 441 1716 441
Q 2309 441 2620 675
Q 2931 909 2931 1356
Q 2931 1769 2642 2001
Q 2353 2234 1838 2234
L 1294 2234
L 1294 2753
L 1863 2753
Q 2328 2753 2575 2939
Q 2822 3125 2822 3475
Q 2822 3834 2567 4026
Q 2313 4219 1838 4219
Q 1578 4219 1281 4162
Q 984 4106 628 3988
L 628 4550
Q 988 4650 1302 4700
Q 1616 4750 1894 4750
Q 2613 4750 3031 4423
Q 3450 4097 3450 3541
Q 3450 3153 3228 2886
Q 3006 2619 2597 2516
z
" transform="scale(0.015625)"/>
       </defs>
       <use xlink:href="#DejaVuSans-30"/>
       <use xlink:href="#DejaVuSans-30" transform="translate(63.623047 0)"/>
       <use xlink:href="#DejaVuSans-3a" transform="translate(127.246094 0)"/>
       <use xlink:href="#DejaVuSans-30" transform="translate(160.9375 0)"/>
       <use xlink:href="#DejaVuSans-30" transform="translate(224.560547 0)"/>
       <use xlink:href="#DejaVuSans-3a" transform="translate(288.183594 0)"/>
       <use xlink:href="#DejaVuSans-33" transform="translate(321.875 0)"/>
       <use xlink:href="#DejaVuSans-30" transform="translate(385.498047 0)"/>
      </g>
     </g>
    </g>
   </g>
   <g id="matplotlib.axis_4">
    <g id="ytick_8">
     <g id="line2d_17">
      <g>
       <use xlink:href="#mfa37e6ab67" x="38.4" y="265.305741" style="stroke: #000000; stroke-width: 0.8"/>
      </g>
     </g>
     <g id="text_14">
      <!-- −2.4 -->
      <g transform="translate(11.172417 268.47049) scale(0.0833 -0.0833)">
       <use xlink:href="#DejaVuSans-2212"/>
       <use xlink:href="#DejaVuSans-32" transform="translate(83.789062 0)"/>
       <use xlink:href="#DejaVuSans-2e" transform="translate(147.412109 0)"/>
       <use xlink:href="#DejaVuSans-34" transform="translate(179.199219 0)"/>
      </g>
     </g>
    </g>
    <g id="ytick_9">
     <g id="line2d_18">
      <g>
       <use xlink:href="#mfa37e6ab67" x="38.4" y="247.429908" style="stroke: #000000; stroke-width: 0.8"/>
      </g>
     </g>
     <g id="text_15">
      <!-- −1.6 -->
      <g transform="translate(11.172417 250.594658) scale(0.0833 -0.0833)">
       <use xlink:href="#DejaVuSans-2212"/>
       <use xlink:href="#DejaVuSans-31" transform="translate(83.789062 0)"/>
       <use xlink:href="#DejaVuSans-2e" transform="translate(147.412109 0)"/>
       <use xlink:href="#DejaVuSans-36" transform="translate(179.199219 0)"/>
      </g>
     </g>
    </g>
    <g id="ytick_10">
     <g id="line2d_19">
      <g>
       <use xlink:href="#mfa37e6ab67" x="38.4" y="229.554076" style="stroke: #000000; stroke-width: 0.8"/>
      </g>
     </g>
     <g id="text_16">
      <!-- −0.8 -->
      <g transform="translate(11.172417 232.718825) scale(0.0833 -0.0833)">
       <use xlink:href="#DejaVuSans-2212"/>
       <use xlink:href="#DejaVuSans-30" transform="translate(83.789062 0)"/>
       <use xlink:href="#DejaVuSans-2e" transform="translate(147.412109 0)"/>
       <use xlink:href="#DejaVuSans-38" transform="translate(179.199219 0)"/>
      </g>
     </g>
    </g>
    <g id="ytick_11">
     <g id="line2d_20">
      <g>
       <use xlink:href="#mfa37e6ab67" x="38.4" y="211.678244" style="stroke: #000000; stroke-width: 0.8"/>
      </g>
     </g>
     <g id="text_17">
      <!-- 0.0 -->
      <g transform="translate(18.152697 214.842993) scale(0.0833 -0.0833)">
       <use xlink:href="#DejaVuSans-30"/>
       <use xlink:href="#DejaVuSans-2e" transform="translate(63.623047 0)"/>
       <use xlink:href="#DejaVuSans-30" transform="translate(95.410156 0)"/>
      </g>
     </g>
    </g>
    <g id="ytick_12">
     <g id="line2d_21">
      <g>
       <use xlink:href="#mfa37e6ab67" x="38.4" y="193.802411" style="stroke: #000000; stroke-width: 0.8"/>
      </g>
     </g>
     <g id="text_18">
      <!-- 0.8 -->
      <g transform="translate(18.152697 196.967161) scale(0.0833 -0.0833)">
       <use xlink:href="#DejaVuSans-30"/>
       <use xlink:href="#DejaVuSans-2e" transform="translate(63.623047 0)"/>
       <use xlink:href="#DejaVuSans-38" transform="translate(95.410156 0)"/>
      </g>
     </g>
    </g>
    <g id="ytick_13">
     <g id="line2d_22">
      <g>
       <use xlink:href="#mfa37e6ab67" x="38.4" y="175.926579" style="stroke: #000000; stroke-width: 0.8"/>
      </g>
     </g>
     <g id="text_19">
      <!-- 1.6 -->
      <g transform="translate(18.152697 179.091328) scale(0.0833 -0.0833)">
       <use xlink:href="#DejaVuSans-31"/>
       <use xlink:href="#DejaVuSans-2e" transform="translate(63.623047 0)"/>
       <use xlink:href="#DejaVuSans-36" transform="translate(95.410156 0)"/>
      </g>
     </g>
    </g>
    <g id="ytick_14">
     <g id="line2d_23">
      <g>
       <use xlink:href="#mfa37e6ab67" x="38.4" y="158.050747" style="stroke: #000000; stroke-width: 0.8"/>
      </g>
     </g>
     <g id="text_20">
      <!-- 2.4 -->
      <g transform="translate(18.152697 161.215496) scale(0.0833 -0.0833)">
       <use xlink:href="#DejaVuSans-32"/>
       <use xlink:href="#DejaVuSans-2e" transform="translate(63.623047 0)"/>
       <use xlink:href="#DejaVuSans-34" transform="translate(95.410156 0)"/>
      </g>
     </g>
    </g>
    <g id="text_21">
     <!-- 1e−15 -->
     <g transform="translate(38.4 145.8) scale(0.1 -0.1)">
      <use xlink:href="#DejaVuSans-31"/>
      <use xlink:href="#DejaVuSans-65" transform="translate(63.623047 0)"/>
      <use xlink:href="#DejaVuSans-2212" transform="translate(125.146484 0)"/>
      <use xlink:href="#DejaVuSans-31" transform="translate(208.935547 0)"/>
      <use xlink:href="#DejaVuSans-35" transform="translate(272.558594 0)"/>
     </g>
    </g>
   </g>
   <g id="line2d_24">
    <path d="M 38.4 211.678244
L 71.587812 211.582494
L 72.864266 211.339576
L 73.66205 210.989924
L 74.459834 210.366236
L 75.098061 209.583575
L 75.736288 208.480816
L 76.534072 206.603764
L 77.65097 203.25592
L 78.60831 200.522607
L 79.086981 199.682255
L 79.406094 199.47033
L 79.725208 199.6308
L 80.044321 200.259578
L 80.363435 201.385806
L 80.842105 204.174501
L 81.480332 210.073974
L 82.278116 220.769291
L 84.352355 251.097605
L 84.831025 254.141144
L 84.990582 254.619077
L 85.150139 254.683139
L 85.309695 254.623545
L 85.628809 253.115875
L 85.947922 250.212952
L 86.426593 243.280436
L 87.06482 230.093962
L 89.298615 180.0384
L 89.777285 174.879994
L 90.096399 173.354492
L 90.255956 173.169545
L 90.415512 173.299524
L 90.734626 174.576127
L 91.213296 178.730671
L 91.851524 187.310468
L 93.606648 212.145105
L 94.085319 215.806229
L 94.404432 217.047252
L 94.563989 217.337379
L 94.723546 217.376451
L 94.883102 217.296848
L 95.202216 216.539409
L 95.680886 214.084288
L 96.319114 209.508709
L 97.276454 203.110489
L 97.755125 201.134863
L 98.233795 200.639649
L 98.552909 201.163894
L 98.872022 202.437444
L 99.510249 206.838742
L 100.627147 218.292344
L 101.744044 229.179622
L 102.382271 232.977792
L 102.701385 234.024151
L 103.020499 234.453506
L 103.339612 234.078136
L 103.658726 232.973736
L 103.977839 231.236444
L 104.616066 226.167692
L 107.328532 200.550413
L 108.126316 196.700345
L 108.445429 196.096984
L 108.604986 195.720513
L 108.764543 195.837264
L 108.9241 195.626528
L 109.243213 196.009712
L 109.721884 196.882384
L 110.360111 198.792962
L 113.072576 211.93234
L 114.189474 217.732393
L 115.146814 221.621298
L 115.465928 222.392801
L 115.944598 223.271025
L 116.263712 223.583832
L 116.742382 223.488209
L 117.221053 222.71964
L 118.178393 219.350761
L 119.135734 215.02207
L 121.050416 206.585035
L 122.32687 203.604488
L 122.486427 203.352747
L 123.124654 203.471753
L 123.762881 204.086749
L 126.156233 210.365208
L 126.634903 211.55551
L 126.79446 211.76078
L 127.113573 212.339142
L 127.432687 212.864238
L 128.070914 213.234453
L 128.390028 213.017995
L 128.549584 213.081197
L 129.187812 212.609749
L 129.506925 212.411771
L 130.304709 211.661498
L 130.464266 211.449111
L 130.623823 211.521375
L 130.78338 211.322023
L 130.942936 211.356942
L 131.102493 211.208833
L 131.26205 211.261283
L 132.378947 210.655975
L 132.538504 210.686924
L 132.698061 210.561856
L 132.857618 210.598333
L 133.176731 210.430946
L 133.655402 210.44628
L 133.814958 210.3551
L 133.974515 210.523954
L 134.134072 210.506757
L 134.931856 210.954701
L 135.25097 211.318446
L 135.889197 212.578511
L 137.644321 217.622441
L 137.963435 218.518145
L 138.442105 219.479154
L 138.601662 219.763867
L 138.761219 219.820491
L 138.920776 220.02108
L 139.080332 219.909966
L 139.239889 220.134288
L 140.037673 218.859269
L 140.516343 217.369408
L 141.314127 214.163277
L 142.111911 210.447091
L 143.228809 206.692039
L 143.388366 206.550751
L 143.547922 205.983846
L 143.707479 206.033883
L 143.867036 205.706505
L 144.026593 205.8013
L 144.18615 205.65988
L 144.345706 205.875702
L 144.505263 205.828348
L 144.66482 206.135748
L 144.824377 206.117783
L 144.983934 206.438647
L 145.14349 206.492681
L 146.898615 209.868485
L 147.696399 210.948434
L 148.494183 211.459157
L 149.13241 211.348975
L 149.451524 211.346184
L 149.61108 211.251969
L 149.770637 211.378556
L 149.930194 211.199058
L 150.089751 211.336064
L 150.249307 211.092043
L 150.408864 211.28405
L 150.568421 211.204934
L 151.525762 211.670085
L 152.163989 212.245659
L 152.323546 212.387669
L 152.802216 213.125913
L 152.961773 213.282622
L 153.280886 213.776629
L 153.759557 214.385688
L 154.876454 215.80675
L 155.195568 215.975075
L 155.833795 215.866542
L 156.312465 215.571048
L 157.110249 214.34427
L 159.344044 208.618574
L 159.982271 207.435786
L 160.141828 207.025964
L 160.301385 206.982473
L 160.460942 206.575422
L 160.620499 206.630631
L 160.780055 206.378779
L 161.577839 206.899982
L 162.375623 208.301088
L 163.173407 211.146305
L 164.290305 216.899803
L 166.683657 230.136777
L 167.162327 231.107363
L 167.48144 231.073184
L 167.800554 230.42523
L 168.279224 227.862426
L 168.757895 223.407688
L 169.236565 217.079804
L 169.874792 205.907335
L 171.94903 162.946915
L 172.427701 157.152285
L 172.746814 155.358847
L 172.906371 155.222589
L 173.065928 155.391426
L 173.385042 157.050929
L 173.704155 160.623906
L 174.023269 165.945273
L 174.501939 176.78082
L 175.618837 210.788334
L 176.576177 239.949856
L 177.214404 253.774935
L 177.852632 261.006424
L 178.171745 262.184956
L 178.331302 262.377411
L 178.650416 261.248374
L 179.129086 256.719934
L 179.607756 250.632654
L 182.160665 212.605129
L 182.639335 208.190852
L 183.277562 204.720769
L 183.756233 203.006519
L 184.39446 202.058005
L 184.713573 202.245886
L 184.87313 202.290359
L 185.032687 202.603781
L 185.192244 202.532516
L 185.351801 202.755629
L 185.511357 202.727969
L 186.149584 203.702675
L 186.947368 206.053432
L 187.585596 207.606339
L 188.542936 210.300924
L 189.34072 211.403594
L 189.978947 211.69435
L 190.617175 210.978423
L 191.095845 210.383736
L 191.414958 209.855523
L 193.170083 206.328758
L 193.967867 205.058995
L 194.127424 205.02992
L 194.286981 204.802088
L 194.446537 204.986931
L 194.606094 204.8825
L 194.765651 205.082325
L 194.925208 205.088334
L 195.403878 205.417636
L 195.563435 205.831244
L 195.722992 205.777387
L 196.201662 207.057258
L 196.361219 207.248016
L 196.839889 208.930668
L 197.159003 209.722488
L 199.392798 215.90176
L 199.711911 216.476302
L 200.031025 216.672646
L 200.669252 216.174728
L 201.147922 215.134527
L 201.626593 213.925533
L 202.903047 209.693128
L 203.860388 207.526993
L 204.179501 207.269911
L 204.498615 207.383119
L 204.977285 208.44802
L 205.136842 208.684205
L 205.455956 209.588608
L 205.934626 211.170186
L 206.413296 213.166661
L 206.891967 215.5335
L 207.370637 217.10222
L 207.849307 218.708922
L 208.647091 220.623189
L 208.806648 220.666914
L 208.966205 220.989409
L 209.125762 220.854755
L 209.444875 220.858377
L 210.402216 219.171158
L 211.2 216.941847
L 212.157341 213.425522
L 212.316898 213.032323
L 212.476454 211.978174
L 212.636011 211.786214
L 212.955125 210.702083
L 214.391136 205.737289
L 215.986704 202.971198
L 216.624931 202.915303
L 216.784488 203.226713
L 216.944044 203.069019
L 218.060942 204.51498
L 219.337396 207.761287
L 219.975623 209.703667
L 220.773407 211.658797
L 222.049861 214.239801
L 222.368975 214.645679
L 222.847645 215.304877
L 223.326316 216.030962
L 223.485873 216.055304
L 223.645429 216.271396
L 223.804986 216.28195
L 224.1241 216.517687
L 224.283657 216.373271
L 224.443213 216.761569
L 224.60277 216.747577
L 225.400554 217.431922
L 225.560111 217.522231
L 226.038781 217.387525
L 226.198338 217.524289
L 226.357895 217.427134
L 226.517452 217.600498
L 226.677008 217.576426
L 226.836565 217.699845
L 226.996122 217.545235
L 227.155679 217.656065
L 227.634349 217.170935
L 228.272576 216.27301
L 228.432133 216.088942
L 229.229917 214.521629
L 229.389474 214.234517
L 229.708587 213.424333
L 230.825485 210.561966
L 230.985042 209.906735
L 231.144598 209.754402
L 231.463712 209.001476
L 231.782825 208.456183
L 232.421053 207.372262
L 232.580609 207.526923
L 232.740166 207.154597
L 233.218837 207.139118
L 233.53795 207.344594
L 234.01662 207.442315
L 234.176177 207.768124
L 234.335734 207.681362
L 234.495291 207.731977
L 234.973961 208.333733
L 235.293075 208.778462
L 235.452632 209.091296
L 235.612188 209.045299
L 235.771745 209.466893
L 236.250416 209.642064
L 236.409972 209.963976
L 236.729086 210.012015
L 237.207756 210.475301
L 237.367313 210.426593
L 237.52687 210.782147
L 237.686427 210.64796
L 238.00554 210.942067
L 238.165097 211.051241
L 238.324654 211.023704
L 238.484211 211.273024
L 238.803324 211.332404
L 239.760665 211.965933
L 240.079778 212.344972
L 240.239335 212.349991
L 240.398892 212.659909
L 240.558449 212.664942
L 240.718006 212.829167
L 241.037119 212.813473
L 241.196676 212.836061
L 241.356233 213.041112
L 241.515789 212.87498
L 241.99446 213.184177
L 242.154017 213.079811
L 242.313573 213.35817
L 242.47313 213.059305
L 242.632687 213.236093
L 243.909141 212.67799
L 244.068698 212.418426
L 244.387812 212.3619
L 244.547368 212.043902
L 244.706925 212.040604
L 245.026039 211.740289
L 245.185596 211.724357
L 245.345152 211.327711
L 245.504709 211.369008
L 245.664266 211.075433
L 245.823823 211.021474
L 245.98338 210.648012
L 246.142936 210.732183
L 246.302493 210.343916
L 246.46205 210.398268
L 246.621607 210.07718
L 246.781163 210.274814
L 246.94072 209.858241
L 247.100277 209.909291
L 247.578947 209.368246
L 249.653186 208.4698
L 249.972299 208.635587
L 250.92964 208.992554
L 251.089197 208.711926
L 251.248753 209.003099
L 251.40831 208.94161
L 251.567867 209.036104
L 251.727424 208.886939
L 251.886981 209.142403
L 252.046537 209.078497
L 252.365651 209.198957
L 252.525208 209.112825
L 252.684765 209.193563
L 252.844321 209.053855
L 253.163435 209.014407
L 253.322992 208.929729
L 253.482548 209.029345
L 253.961219 208.848555
L 254.280332 208.745054
L 254.759003 208.330174
L 254.91856 208.521461
L 255.237673 208.485837
L 255.556787 208.603035
L 255.716343 208.955033
L 255.8759 209.018791
L 256.992798 212.052655
L 257.790582 215.591359
L 258.269252 218.211346
L 259.545706 226.592413
L 260.183934 229.645877
L 260.503047 230.652068
L 260.822161 231.540704
L 260.981717 231.332994
L 261.141274 231.569
L 261.939058 229.359835
L 262.577285 225.652836
L 263.534626 217.301011
L 264.651524 205.925792
L 265.768421 197.761113
L 266.247091 195.613664
L 266.885319 194.401325
L 267.044875 194.408549
L 267.523546 194.887666
L 268.161773 196.832912
L 269.916898 206.628842
L 270.395568 209.276822
L 271.193352 212.640926
L 271.672022 213.789486
L 272.310249 214.503606
L 272.469806 214.431419
L 272.629363 214.528257
L 273.26759 213.362309
L 273.905817 212.02643
L 274.065374 211.439651
L 274.224931 211.36654
L 274.544044 210.559774
L 274.863158 209.785905
L 275.182271 209.351317
L 275.341828 209.203909
L 275.501385 209.267028
L 275.660942 209.083819
L 275.820499 209.204724
L 275.980055 209.071985
L 276.299169 209.291538
L 276.458726 209.282851
L 277.096953 210.203059
L 277.894737 212.16848
L 278.054294 212.379894
L 278.692521 213.910664
L 279.330748 215.231747
L 279.809418 215.262554
L 280.128532 215.321946
L 280.288089 215.153737
L 280.607202 215.2156
L 280.766759 214.911763
L 280.926316 215.047872
L 281.564543 213.771377
L 282.043213 212.802499
L 282.20277 212.786648
L 282.362327 212.559997
L 282.521884 212.532243
L 282.840997 212.187565
L 283.160111 212.016267
L 283.319668 211.835118
L 283.479224 211.977648
L 283.638781 211.864172
L 285.393906 215.005256
L 286.351247 217.289894
L 286.829917 217.572192
L 286.989474 218.036009
L 287.14903 217.816498
L 287.308587 218.072771
L 287.468144 217.729519
L 287.627701 218.060459
L 287.787258 217.546593
L 287.946814 217.495115
L 289.063712 214.269661
L 289.542382 212.16754
L 289.701939 211.87614
L 290.180609 209.866419
L 290.978393 207.36466
L 291.13795 207.140321
L 291.457064 206.180172
L 291.61662 206.037
L 291.776177 205.667996
L 291.935734 205.726067
L 292.095291 205.458868
L 292.254848 205.483311
L 292.414404 205.626352
L 292.573961 205.592919
L 292.733518 205.826628
L 292.893075 205.692068
L 293.052632 206.022791
L 293.212188 206.035563
L 294.009972 206.971629
L 294.169529 207.420906
L 294.329086 207.509217
L 294.648199 208.101582
L 295.12687 208.625297
L 295.286427 208.977129
L 295.445983 208.886767
L 295.765097 209.240398
L 296.084211 209.558879
L 296.403324 209.587599
L 296.562881 209.810744
L 296.722438 209.678554
L 296.881994 209.916524
L 297.041551 209.811015
L 297.201108 209.935986
L 297.360665 209.88835
L 297.520222 210.011943
L 297.679778 209.992114
L 297.839335 210.09963
L 297.998892 210.032744
L 298.158449 210.294531
L 298.318006 210.210997
L 298.637119 210.666474
L 299.275346 211.687681
L 299.434903 211.611286
L 299.754017 212.068665
L 301.349584 214.811209
L 301.509141 214.752621
L 301.828255 215.10997
L 302.466482 215.648459
L 303.104709 215.815858
L 303.264266 215.670212
L 303.423823 215.764279
L 303.58338 215.518118
L 303.742936 215.703472
L 303.902493 215.393016
L 304.06205 215.57625
L 304.381163 215.253267
L 304.54072 215.205927
L 305.498061 214.03357
L 305.657618 213.951326
L 305.817175 213.693982
L 305.976731 213.680074
L 306.295845 213.29836
L 306.774515 212.713767
L 306.934072 212.646228
L 307.253186 212.325714
L 308.689197 210.569854
L 309.00831 210.24535
L 309.806094 209.604378
L 309.965651 209.189872
L 310.125208 209.362776
L 310.284765 208.953891
L 310.444321 209.137149
L 310.603878 208.794941
L 310.763435 208.95838
L 310.922992 208.780792
L 311.082548 208.886269
L 311.242105 208.783074
L 311.401662 208.899551
L 311.720776 208.882446
L 312.837673 209.611738
L 312.99723 210.072785
L 313.156787 209.974075
L 313.4759 210.501631
L 313.635457 210.596185
L 313.795014 210.90337
L 313.954571 210.881044
L 314.114127 211.351695
L 314.273684 211.234832
L 314.433241 211.789249
L 314.592798 211.850066
L 315.231025 212.787614
L 315.390582 212.726534
L 315.550139 212.946542
L 315.869252 212.950207
L 316.028809 213.165806
L 316.188366 213.060794
L 316.667036 213.381785
L 316.826593 213.342159
L 316.98615 213.443097
L 317.46482 213.041931
L 317.624377 213.093925
L 317.783934 212.688439
L 318.103047 212.431586
L 318.581717 211.845814
L 319.060388 211.215489
L 319.219945 211.118998
L 319.698615 210.508867
L 320.975069 209.536806
L 321.294183 209.458711
L 322.41108 209.770106
L 322.730194 209.998154
L 323.208864 210.65215
L 323.687535 211.304118
L 324.006648 211.867584
L 324.644875 212.735666
L 324.963989 213.156689
L 325.123546 213.46336
L 325.283102 213.504686
L 325.602216 213.863421
L 326.4 214.300157
L 326.719114 214.367488
L 327.357341 214.0561
L 328.155125 213.282258
L 328.314681 213.238118
L 328.793352 212.429229
L 328.952909 212.306553
L 329.431579 211.662215
L 331.027147 210.157248
L 331.34626 210.374647
L 331.505817 210.309704
L 331.665374 210.562861
L 332.622715 210.897549
L 332.782271 211.160161
L 332.941828 211.20167
L 333.101385 211.67036
L 333.260942 211.755436
L 333.580055 212.143509
L 333.739612 212.42822
L 334.058726 212.55863
L 334.85651 213.213022
L 335.016066 213.226098
L 335.175623 213.486214
L 335.33518 213.25383
L 335.494737 213.356026
L 335.973407 212.989595
L 336.292521 213.077912
L 336.452078 212.845664
L 336.611634 212.938348
L 336.771191 212.761577
L 336.930748 212.771431
L 337.728532 211.882931
L 339.3241 210.627223
L 339.643213 210.526772
L 339.80277 210.704953
L 339.962327 210.572478
L 340.121884 210.826757
L 340.28144 210.738168
L 340.760111 210.860889
L 340.919668 210.81165
L 341.398338 211.647056
L 341.557895 211.730828
L 341.877008 212.413238
L 342.355679 212.898999
L 342.834349 213.179336
L 342.993906 213.664628
L 343.153463 213.577844
L 343.313019 214.13142
L 343.472576 214.129036
L 343.632133 214.525258
L 343.79169 214.481069
L 343.951247 214.609766
L 344.429917 214.448296
L 345.227701 213.666753
L 348.25928 205.391725
L 349.057064 204.630657
L 349.21662 204.561158
L 349.535734 204.722987
L 350.971745 207.824934
L 352.088643 211.165597
L 352.886427 212.810529
L 353.524654 214.226061
L 353.684211 214.280775
L 354.003324 214.579321
L 354.641551 214.750107
L 354.960665 215.134712
L 355.120222 215.357727
L 355.279778 215.367527
L 355.598892 215.496211
L 355.758449 215.554864
L 355.918006 215.453412
L 356.237119 215.622104
L 357.034903 215.976378
L 357.19446 216.062586
L 357.354017 215.918156
L 357.513573 216.002776
L 357.67313 215.758945
L 357.832687 215.937757
L 357.992244 215.784926
L 358.151801 215.988116
L 358.311357 215.809248
L 358.470914 215.852369
L 358.790028 215.590535
L 358.949584 215.44716
L 359.428255 214.620027
L 359.587812 214.653533
L 359.747368 214.396487
L 359.906925 214.361902
L 360.066482 214.104061
L 360.226039 214.108586
L 360.704709 213.227707
L 360.864266 213.162517
L 361.023823 212.709413
L 361.18338 212.664653
L 361.342936 212.394797
L 361.502493 212.5062
L 361.66205 212.286351
L 361.821607 212.38353
L 362.938504 210.831519
L 363.576731 210.163079
L 363.736288 210.139566
L 363.895845 209.663283
L 364.055402 209.619087
L 364.374515 208.905557
L 364.534072 208.815706
L 364.693629 208.479144
L 364.853186 208.477516
L 365.172299 208.152886
L 365.331856 208.117353
L 365.491413 207.797812
L 365.65097 207.864428
L 365.810526 207.376427
L 365.970083 207.488942
L 366.12964 207.141174
L 366.289197 207.248389
L 366.448753 207.164326
L 366.927424 207.340311
L 367.086981 207.718539
L 367.246537 207.601834
L 367.406094 207.891644
L 367.565651 207.841458
L 367.725208 208.276162
L 367.884765 208.342155
L 369.480332 212.084847
L 369.959003 213.554357
L 370.11856 213.786033
L 370.437673 214.409807
L 370.756787 214.703107
L 370.916343 214.868418
L 371.0759 214.859369
L 371.395014 215.104276
L 371.554571 215.232444
L 371.714127 215.150691
L 371.873684 215.274139
L 372.033241 215.194625
L 372.192798 214.838512
L 372.352355 214.818464
L 372.831025 213.588038
L 372.990582 213.605066
L 373.150139 213.060468
L 373.309695 212.981798
L 373.628809 212.340221
L 375.224377 208.633764
L 375.383934 208.621503
L 375.54349 208.206963
L 375.703047 208.113409
L 375.862604 207.721097
L 376.022161 207.826493
L 376.181717 207.540931
L 376.341274 207.737619
L 376.500831 207.69305
L 377.936842 210.083848
L 378.734626 212.37548
L 379.05374 212.966898
L 379.372853 213.741045
L 380.170637 215.801829
L 380.489751 216.361526
L 380.649307 216.318309
L 380.808864 216.506533
L 380.968421 216.328172
L 381.127978 216.522069
L 381.287535 216.414186
L 381.606648 216.576892
L 382.085319 216.362525
L 382.723546 214.994608
L 383.202216 213.778657
L 383.680886 212.846329
L 384.159557 211.655518
L 384.319114 211.503701
L 384.47867 210.942655
L 384.638227 210.884124
L 384.797784 210.371893
L 384.957341 210.426934
L 385.116898 209.915832
L 385.276454 210.03382
L 385.436011 209.70123
L 385.595568 209.702226
L 385.755125 209.475597
L 386.393352 209.420736
L 387.829363 210.128114
L 388.308033 210.613032
L 388.46759 210.917075
L 388.627147 210.921563
L 388.786704 211.226422
L 388.94626 211.12855
L 389.105817 211.30589
L 389.265374 211.131735
L 389.424931 211.475258
L 389.584488 211.296308
L 389.744044 211.568932
L 389.903601 211.389761
L 390.063158 211.780084
L 390.222715 211.654179
L 390.382271 211.86654
L 390.541828 211.674832
L 390.701385 211.733249
L 391.339612 211.157282
L 391.499169 211.176637
L 391.658726 210.888112
L 391.818283 210.976223
L 392.137396 210.730109
L 393.254294 209.658134
L 393.41385 209.673952
L 393.732964 209.408361
L 393.892521 209.495005
L 394.211634 209.287027
L 394.371191 209.373736
L 394.530748 209.248015
L 394.690305 209.367037
L 394.849861 209.146936
L 395.009418 209.24417
L 395.328532 209.233174
L 395.647645 209.18932
L 396.126316 209.710965
L 396.445429 209.975687
L 396.764543 210.40574
L 397.243213 211.04649
L 397.40277 211.190066
L 397.562327 211.671393
L 397.721884 211.642603
L 397.88144 212.178261
L 398.040997 212.287017
L 398.360111 213.002958
L 398.679224 213.783906
L 398.838781 213.988027
L 398.998338 214.498134
L 399.157895 214.594829
L 399.636565 215.501122
L 399.955679 215.961458
L 400.593906 216.838938
L 401.39169 217.031119
L 401.551247 216.877946
L 401.710803 216.971199
L 401.87036 216.761934
L 402.029917 216.751195
L 402.668144 215.971304
L 404.104155 211.839427
L 405.540166 207.215692
L 405.699723 207.154876
L 406.018837 206.435725
L 406.657064 205.549059
L 406.81662 205.707394
L 406.976177 205.480033
L 407.135734 205.627272
L 407.295291 205.594769
L 407.773961 206.132193
L 408.252632 207.041382
L 410.80554 214.400552
L 410.965097 214.522885
L 411.284211 215.00019
L 411.443767 215.270571
L 411.603324 215.27464
L 411.762881 215.392714
L 411.922438 215.371408
L 412.081994 215.548288
L 412.241551 215.388279
L 412.401108 215.563931
L 413.198892 214.945635
L 413.358449 214.55396
L 413.518006 214.461938
L 413.996676 213.793806
L 414.156233 213.861922
L 414.475346 213.551126
L 415.592244 212.323967
L 416.070914 212.092918
L 416.390028 212.082169
L 416.709141 211.75423
L 416.868698 211.716789
L 417.028255 211.352011
L 417.187812 211.521637
L 417.347368 211.146762
L 417.506925 211.311524
L 417.666482 210.883138
L 417.826039 211.1382
L 417.985596 210.927998
L 418.145152 210.9493
L 418.304709 210.742293
L 418.464266 210.833151
L 418.78338 210.538312
L 418.942936 210.590306
L 419.421607 210.158484
L 419.581163 210.202691
L 419.900277 209.773701
L 420.378947 209.423491
L 422.134072 209.634107
L 422.293629 209.988618
L 422.453186 209.943098
L 422.612742 210.239026
L 422.772299 210.295553
L 422.931856 210.629591
L 423.410526 210.78763
L 424.20831 211.172678
L 424.686981 211.723943
L 424.846537 211.777157
L 425.006094 211.996529
L 425.325208 212.088742
L 425.644321 212.180117
L 426.122992 212.336874
L 426.282548 212.211666
L 426.442105 212.338297
L 426.920776 212.168577
L 427.71856 212.173449
L 427.878116 211.854548
L 428.037673 211.952597
L 428.516343 211.485584
L 429.154571 211.419404
L 429.473684 211.502032
L 430.111911 211.214345
L 430.271468 211.288205
L 430.431025 211.093415
L 430.590582 211.358734
L 430.750139 211.152276
L 430.909695 211.542337
L 431.069252 211.439222
L 431.388366 211.709487
L 431.707479 211.915613
L 431.867036 211.965822
L 432.66482 212.892667
L 432.824377 213.203559
L 432.983934 213.253137
L 433.14349 213.521769
L 433.622161 213.668685
L 434.100831 213.884503
L 434.419945 214.027416
L 435.058172 213.729679
L 435.217729 213.487545
L 435.377285 213.574969
L 435.536842 213.114938
L 435.696399 213.301391
L 435.855956 212.884032
L 436.015512 213.108489
L 436.175069 212.55523
L 436.334626 212.634772
L 436.494183 212.107703
L 436.65374 212.050191
L 436.972853 211.338418
L 437.13241 211.206488
L 437.291967 210.87331
L 437.451524 210.91489
L 437.61108 210.640105
L 437.770637 210.663397
L 437.930194 210.434476
L 438.249307 210.399568
L 438.408864 210.139971
L 438.568421 210.39547
L 438.727978 210.16432
L 438.887535 210.45898
L 439.047091 210.451994
L 439.366205 210.956008
L 439.525762 211.122784
L 439.685319 211.566492
L 439.844875 211.627516
L 440.483102 212.686222
L 440.642659 212.894138
L 440.802216 213.476654
L 440.961773 213.530503
L 441.12133 214.014161
L 441.280886 214.032775
L 441.6 214.467028
L 441.759557 214.33592
L 441.919114 214.424135
L 442.07867 214.30068
L 442.238227 214.341868
L 443.036011 213.78748
L 443.514681 212.897044
L 443.993352 211.691683
L 444.472022 210.644453
L 445.269806 208.587742
L 445.908033 207.634768
L 446.386704 207.20283
L 446.705817 207.106444
L 446.865374 207.023562
L 447.344044 207.326019
L 448.939612 209.786323
L 449.418283 210.968931
L 449.577839 211.079842
L 449.737396 211.605618
L 449.896953 211.658356
L 450.216066 212.107416
L 450.375623 212.208014
L 450.53518 212.492386
L 450.694737 212.498881
L 450.854294 212.840191
L 451.01385 212.868774
L 451.492521 213.371174
L 451.652078 213.265373
L 451.811634 213.34721
L 452.449861 213.199363
L 452.609418 213.291048
L 452.768975 213.121679
L 453.088089 213.079762
L 453.566759 212.686502
L 453.726316 212.765586
L 454.045429 212.525982
L 454.364543 212.520423
L 455.48144 211.775219
L 455.640997 211.629352
L 455.960111 211.728029
L 456.119668 211.629795
L 456.279224 211.859722
L 456.438781 211.700849
L 456.598338 211.827021
L 456.917452 211.671322
L 457.396122 211.544696
L 458.193906 211.885863
L 458.353463 211.705534
L 458.672576 211.719958
L 458.832133 211.558672
L 458.99169 211.657965
L 459.151247 211.515635
L 459.310803 211.672813
L 459.47036 211.656007
L 459.629917 211.799764
L 459.94903 211.82864
L 460.108587 212.011589
L 460.427701 211.904036
L 461.065928 212.167584
L 461.225485 212.064405
L 461.385042 212.37516
L 461.544598 212.137284
L 461.704155 212.341342
L 462.342382 212.255955
L 462.980609 212.659133
L 463.140166 212.578111
L 463.299723 212.81979
L 463.45928 212.697311
L 463.778393 212.79814
L 463.93795 212.783602
L 464.097507 212.881118
L 464.257064 212.827426
L 464.41662 213.052952
L 464.735734 212.997365
L 464.895291 213.098148
L 465.054848 212.96004
L 465.214404 213.06996
L 465.373961 212.828961
L 465.533518 212.919719
L 466.171745 212.883561
L 466.331302 212.931259
L 467.129086 212.391059
L 467.448199 212.045357
L 467.767313 211.782589
L 468.724654 211.324585
L 469.203324 210.926762
L 469.841551 210.665221
L 470.160665 210.448623
L 470.320222 210.529485
L 470.479778 210.308271
L 470.639335 210.390637
L 470.798892 210.276682
L 470.958449 210.356359
L 471.118006 210.257159
L 472.554017 210.628577
L 472.713573 211.009852
L 472.87313 210.788193
L 473.032687 211.157253
L 473.192244 210.935092
L 473.351801 211.348036
L 473.511357 211.028866
L 473.670914 211.521251
L 473.830471 211.294321
L 473.990028 211.562431
L 474.149584 211.521558
L 474.309141 211.741246
L 474.628255 211.786964
L 474.787812 211.931813
L 474.947368 211.860901
L 475.106925 211.947531
L 475.266482 211.866327
L 475.426039 211.93758
L 475.585596 211.827084
L 475.745152 211.913916
L 475.904709 211.760974
L 476.064266 211.883871
L 476.223823 211.776159
L 476.38338 211.880801
L 476.542936 211.744608
L 476.702493 211.79263
L 477.34072 211.406808
L 477.500277 211.409723
L 477.659834 211.205916
L 477.819391 211.229366
L 477.978947 211.03486
L 478.138504 211.198168
L 478.298061 210.890861
L 478.457618 210.986349
L 478.936288 210.653179
L 479.095845 210.713546
L 479.255402 210.520769
L 479.414958 210.548346
L 479.734072 210.440948
L 479.893629 210.382841
L 480.212742 210.564054
L 480.691413 210.812155
L 481.170083 211.265677
L 481.489197 211.459014
L 481.967867 211.899106
L 482.127424 211.927974
L 482.286981 212.206697
L 482.446537 212.08186
L 482.606094 212.328228
L 482.765651 212.308597
L 482.925208 212.571878
L 483.084765 212.516286
L 483.403878 212.82494
L 483.882548 213.128003
L 484.042105 213.074304
L 484.201662 213.267782
L 484.361219 213.147473
L 484.520776 213.202172
L 484.680332 213.138605
L 484.839889 213.246342
L 485.79723 212.901803
L 486.435457 212.478705
L 486.914127 212.223483
L 487.392798 211.827697
L 487.552355 211.601819
L 487.711911 211.568775
L 487.871468 211.311661
L 488.190582 211.241104
L 488.988366 211.149283
L 489.147922 210.953259
L 489.307479 210.999569
L 489.467036 210.823742
L 489.626593 210.94158
L 489.78615 210.80078
L 490.26482 210.988925
L 491.062604 210.829085
L 491.541274 210.711321
L 491.700831 210.821798
L 491.860388 210.74664
L 492.019945 210.841749
L 492.179501 210.764464
L 492.339058 210.918041
L 492.498615 210.731645
L 492.658172 210.85094
L 492.817729 210.786142
L 493.136842 210.993063
L 493.296399 210.845789
L 493.455956 211.245284
L 493.615512 211.070702
L 493.775069 211.303995
L 493.934626 211.103579
L 494.094183 211.332982
L 494.25374 211.132197
L 494.413296 211.340178
L 494.572853 211.087898
L 494.73241 211.431813
L 494.891967 211.283142
L 495.051524 211.675518
L 495.21108 211.562498
L 495.370637 211.949419
L 495.530194 211.965258
L 495.849307 212.354577
L 496.168421 212.608856
L 496.806648 213.331243
L 496.966205 213.327427
L 497.125762 213.540127
L 497.285319 213.531091
L 497.444875 213.714402
L 497.604432 213.650936
L 497.923546 213.809601
L 498.083102 213.842715
L 498.242659 214.025678
L 498.402216 214.007795
L 498.561773 214.122328
L 498.72133 213.924527
L 498.880886 214.11491
L 499.2 213.616085
L 499.838227 212.801085
L 499.997784 212.72566
L 500.476454 212.101361
L 500.795568 211.517895
L 501.274238 210.387684
L 501.433795 210.24392
L 501.593352 209.878266
L 501.752909 209.815159
L 502.550693 208.860523
L 502.710249 208.476631
L 502.869806 208.465052
L 503.18892 208.077591
L 503.508033 208.011884
L 503.66759 208.143852
L 503.827147 208.017823
L 504.624931 208.430603
L 504.944044 208.939311
L 505.741828 210.292607
L 506.060942 210.904356
L 507.177839 213.290221
L 507.496953 213.714951
L 508.13518 214.578575
L 508.294737 214.737623
L 508.61385 215.311947
L 508.932964 215.547079
L 509.252078 215.583952
L 509.411634 215.339855
L 509.571191 215.395612
L 509.730748 215.166319
L 509.890305 215.22356
L 510.049861 215.05209
L 510.368975 215.050526
L 510.847645 214.518749
L 511.645429 212.996574
L 512.443213 212.018464
L 513.400554 210.346657
L 513.560111 210.377868
L 513.879224 209.988487
L 514.198338 209.679178
L 514.677008 209.212862
L 515.315235 209.14078
L 516.272576 209.047444
L 516.751247 209.439821
L 517.229917 210.02453
L 517.708587 210.290094
L 518.187258 210.548299
L 518.506371 211.069932
L 518.665928 211.219759
L 518.825485 211.619984
L 518.985042 211.620611
L 519.144598 211.95149
L 519.304155 211.918697
L 519.623269 212.272041
L 519.782825 212.303275
L 519.942382 212.686222
L 520.101939 212.668785
L 520.261496 212.986237
L 520.421053 213.010877
L 520.580609 213.248232
L 521.05928 213.302548
L 521.218837 213.443972
L 521.378393 213.29267
L 521.53795 213.492541
L 521.697507 213.430677
L 521.857064 213.684435
L 522.01662 213.486021
L 522.176177 213.752249
L 522.335734 213.584734
L 522.495291 213.629786
L 522.973961 213.307271
L 524.250416 212.548117
L 524.409972 212.2833
L 524.569529 212.279679
L 524.729086 211.874831
L 524.888643 211.86464
L 525.048199 211.535336
L 525.207756 211.492506
L 526.165097 210.01416
L 526.324654 210.067496
L 526.484211 209.777624
L 526.643767 209.781833
L 526.803324 209.542399
L 526.962881 209.584199
L 527.122438 209.288779
L 527.281994 209.296787
L 527.441551 208.926699
L 527.601108 208.957122
L 527.760665 208.522954
L 527.920222 208.567505
L 528.239335 208.368891
L 528.398892 208.487732
L 528.558449 208.421233
L 528.718006 208.662443
L 528.877562 208.609363
L 529.037119 208.807459
L 529.356233 208.85096
L 529.834903 209.274074
L 529.99446 209.446938
L 530.792244 211.075412
L 531.430471 212.342367
L 532.068698 213.819669
L 532.547368 214.554201
L 532.866482 215.091882
L 533.026039 215.266951
L 533.185596 215.672694
L 533.345152 215.710383
L 533.504709 216.049899
L 533.664266 216.064754
L 533.823823 216.342826
L 534.46205 216.225947
L 534.621607 215.910564
L 534.781163 216.024098
L 534.94072 215.697144
L 535.100277 215.867103
L 535.259834 215.492888
L 535.419391 215.556638
L 537.174515 212.064469
L 537.493629 211.469444
L 537.972299 210.386584
L 538.92964 209.002743
L 539.727424 208.325937
L 539.886981 208.493016
L 540.046537 208.202024
L 540.206094 208.38537
L 540.365651 208.368855
L 541.642105 209.398659
L 542.280332 210.365525
L 542.439889 210.501461
L 542.599446 210.889219
L 542.759003 210.878053
L 542.91856 211.400871
L 543.078116 211.447008
L 543.39723 212.041478
L 543.716343 212.574175
L 543.8759 212.623316
L 544.035457 212.9437
L 544.195014 212.916442
L 544.354571 213.091439
L 544.514127 213.09636
L 544.673684 213.26247
L 544.833241 213.217883
L 544.992798 213.421127
L 545.152355 213.274392
L 545.311911 213.542919
L 545.471468 213.356352
L 545.631025 213.455353
L 545.790582 213.267185
L 545.950139 213.291048
L 546.747922 212.655935
L 547.226593 212.387366
L 547.705263 211.919418
L 547.86482 211.814423
L 548.183934 211.470291
L 548.981717 210.842726
L 549.141274 210.856718
L 549.300831 210.602289
L 549.460388 210.721202
L 549.619945 210.439579
L 549.779501 210.690188
L 549.939058 210.325529
L 550.098615 210.507835
L 550.258172 210.343677
L 550.577285 210.374524
L 550.736842 210.330702
L 552.013296 210.936986
L 552.81108 211.115307
L 552.970637 211.395352
L 553.130194 211.369716
L 553.289751 211.691171
L 553.449307 211.617036
L 553.608864 211.941838
L 553.768421 211.934165
L 553.927978 212.089252
L 554.087535 211.982113
L 554.247091 212.177864
L 554.566205 212.090091
L 554.725762 212.110429
L 554.885319 212.257678
L 555.204432 212.295293
L 555.523546 212.494117
L 556.161773 212.644538
L 556.32133 212.534237
L 556.480886 212.610661
L 556.640443 212.440596
L 556.8 212.524166
L 556.8 212.524166
" clip-path="url(#pfd770bcebf)" style="fill: none; stroke: #000000; stroke-linecap: square"/>
   </g>
   <g id="patch_9">
    <path d="M 38.4 268.8
L 38.4 148.8
" style="fill: none; stroke: #000000; stroke-width: 0.8; stroke-linejoin: miter; stroke-linecap: square"/>
   </g>
   <g id="patch_10">
    <path d="M 556.8 268.8
L 556.8 148.8
" style="fill: none; stroke: #000000; stroke-width: 0.8; stroke-linejoin: miter; stroke-linecap: square"/>
   </g>
   <g id="patch_11">
    <path d="M 38.4 268.8
L 556.8 268.8
" style="fill: none; stroke: #000000; stroke-width: 0.8; stroke-linejoin: miter; stroke-linecap: square"/>
   </g>
   <g id="patch_12">
    <path d="M 38.4 148.8
L 556.8 148.8
" style="fill: none; stroke: #000000; stroke-width: 0.8; stroke-linejoin: miter; stroke-linecap: square"/>
   </g>
   <g id="text_22">
    <g id="patch_13">
     <path d="M 48.768 165.360878
L 121.340522 165.360878
Q 123.839522 165.360878 123.839522 162.861878
L 123.839522 154.8
Q 123.839522 152.301 121.340522 152.301
L 48.768 152.301
Q 46.269 152.301 46.269 154.8
L 46.269 162.861878
Q 46.269 165.360878 48.768 165.360878
z
" style="fill: #ffffff; opacity: 0.8; stroke: #000000; stroke-linejoin: miter"/>
    </g>
    <!-- AA.S0002.S2.PRE -->
    <g transform="translate(48.768 161.129498) scale(0.0833 -0.0833)">
     <use xlink:href="#DejaVuSans-41"/>
     <use xlink:href="#DejaVuSans-41" transform="translate(71.158203 0)"/>
     <use xlink:href="#DejaVuSans-2e" transform="translate(137.816406 0)"/>
     <use xlink:href="#DejaVuSans-53" transform="translate(169.603516 0)"/>
     <use xlink:href="#DejaVuSans-30" transform="translate(233.080078 0)"/>
     <use xlink:href="#DejaVuSans-30" transform="translate(296.703125 0)"/>
     <use xlink:href="#DejaVuSans-30" transform="translate(360.326172 0)"/>
     <use xlink:href="#DejaVuSans-32" transform="translate(423.949219 0)"/>
     <use xlink:href="#DejaVuSans-2e" transform="translate(487.572266 0)"/>
     <use xlink:href="#DejaVuSans-53" transform="translate(519.359375 0)"/>
     <use xlink:href="#DejaVuSans-32" transform="translate(582.835938 0)"/>
     <use xlink:href="#DejaVuSans-2e" transform="translate(646.458984 0)"/>
     <use xlink:href="#DejaVuSans-50" transform="translate(678.246094 0)"/>
     <use xlink:href="#DejaVuSans-52" transform="translate(738.548828 0)"/>
     <use xlink:href="#DejaVuSans-45" transform="translate(808.03125 0)"/>
    </g>
   </g>
  </g>
  <g id="text_23">
   <!-- 1969-12-31T23:59:58.8  -  1970-01-01T00:00:31.29 -->
   <g transform="translate(179.695032 13.529498) scale(0.0833 -0.0833)">
    <defs>
     <path id="DejaVuSans-20" transform="scale(0.015625)"/>
    </defs>
    <use xlink:href="#DejaVuSans-31"/>
    <use xlink:href="#DejaVuSans-39" transform="translate(63.623047 0)"/>
    <use xlink:href="#DejaVuSans-36" transform="translate(127.246094 0)"/>
    <use xlink:href="#DejaVuSans-39" transform="translate(190.869141 0)"/>
    <use xlink:href="#DejaVuSans-2d" transform="translate(254.492188 0)"/>
    <use xlink:href="#DejaVuSans-31" transform="translate(290.576172 0)"/>
    <use xlink:href="#DejaVuSans-32" transform="translate(354.199219 0)"/>
    <use xlink:href="#DejaVuSans-2d" transform="translate(417.822266 0)"/>
    <use xlink:href="#DejaVuSans-33" transform="translate(453.90625 0)"/>
    <use xlink:href="#DejaVuSans-31" transform="translate(517.529297 0)"/>
    <use xlink:href="#DejaVuSans-54" transform="translate(581.152344 0)"/>
    <use xlink:href="#DejaVuSans-32" transform="translate(642.236328 0)"/>
    <use xlink:href="#DejaVuSans-33" transform="translate(705.859375 0)"/>
    <use xlink:href="#DejaVuSans-3a" transform="translate(769.482422 0)"/>
    <use xlink:href="#DejaVuSans-35" transform="translate(803.173828 0)"/>
    <use xlink:href="#DejaVuSans-39" transform="translate(866.796875 0)"/>
    <use xlink:href="#DejaVuSans-3a" transform="translate(930.419922 0)"/>
    <use xlink:href="#DejaVuSans-35" transform="translate(964.111328 0)"/>
    <use xlink:href="#DejaVuSans-38" transform="translate(1027.734375 0)"/>
    <use xlink:href="#DejaVuSans-2e" transform="translate(1091.357422 0)"/>
    <use xlink:href="#DejaVuSans-38" transform="translate(1123.144531 0)"/>
    <use xlink:href="#DejaVuSans-20" transform="translate(1186.767578 0)"/>
    <use xlink:href="#DejaVuSans-20" transform="translate(1218.554688 0)"/>
    <use xlink:href="#DejaVuSans-2d" transform="translate(1250.341797 0)"/>
    <use xlink:href="#DejaVuSans-20" transform="translate(1286.425781 0)"/>
    <use xlink:href="#DejaVuSans-20" transform="translate(1318.212891 0)"/>
    <use xlink:href="#DejaVuSans-31" transform="translate(1350 0)"/>
    <use xlink:href="#DejaVuSans-39" transform="translate(1413.623047 0)"/>
    <use xlink:href="#DejaVuSans-37" transform="translate(1477.246094 0)"/>
    <use xlink:href="#DejaVuSans-30" transform="translate(1540.869141 0)"/>
    <use xlink:href="#DejaVuSans-2d" transform="translate(1604.492188 0)"/>
    <use xlink:href="#DejaVuSans-30" transform="translate(1640.576172 0)"/>
    <use xlink:href="#DejaVuSans-31" transform="translate(1704.199219 0)"/>
    <use xlink:href="#DejaVuSans-2d" transform="translate(1767.822266 0)"/>
    <use xlink:href="#DejaVuSans-30" transform="translate(1803.90625 0)"/>
    <use xlink:href="#DejaVuSans-31" transform="translate(1867.529297 0)"/>
    <use xlink:href="#DejaVuSans-54" transform="translate(1931.152344 0)"/>
    <use xlink:href="#DejaVuSans-30" transform="translate(1992.236328 0)"/>
    <use xlink:href="#DejaVuSans-30" transform="translate(2055.859375 0)"/>
    <use xlink:href="#DejaVuSans-3a" transform="translate(2119.482422 0)"/>
    <use xlink:href="#DejaVuSans-30" transform="translate(2153.173828 0)"/>
    <use xlink:href="#DejaVuSans-30" transform="translate(2216.796875 0)"/>
    <use xlink:href="#DejaVuSans-3a" transform="translate(2280.419922 0)"/>
    <use xlink:href="#DejaVuSans-33" transform="translate(2314.111328 0)"/>
    <use xlink:href="#DejaVuSans-31" transform="translate(2377.734375 0)"/>
    <use xlink:href="#DejaVuSans-2e" transform="translate(2441.357422 0)"/>
    <use xlink:href="#DejaVuSans-32" transform="translate(2473.144531 0)"/>
    <use xlink:href="#DejaVuSans-39" transform="translate(2536.767578 0)"/>
   </g>
  </g>
 </g>
 <defs>
  <clipPath id="p5c75c20a56">
   <rect x="38.4" y="28.8" width="518.4" height="120"/>
  </clipPath>
  <clipPath id="pfd770bcebf">
   <rect x="38.4" y="148.8" width="518.4" height="120"/>
  </clipPath>
 </defs>
</svg>
