<svg xmlns="http://www.w3.org/2000/svg" xmlns:xlink="http://www.w3.org/1999/xlink" xmlns:lucid="lucid" width="1321" height="1220"><g transform="translate(1580.5 700.5)" lucid:page-tab-id="0_0"><path d="M-2000-1000H0V500h-2000z" fill="#fff"/><path d="M-1100-534a6 6 0 0 1 6-6h348a6 6 0 0 1 6 6v159a6 6 0 0 1-6 6h-348a6 6 0 0 1-6-6z" stroke="#3a414a" fill="#fff"/><path d="M-1100-497.33h360m-360 64.16h360" stroke="#3a414a" fill="none"/><use xlink:href="#a" transform="matrix(1,0,0,1,-1092,-532) translate(1.1666666666666856 17.944444444444443)"/><use xlink:href="#b" transform="matrix(1,0,0,1,-1092,-532) translate(80.05555555555557 17.944444444444443)"/><use xlink:href="#c" transform="matrix(1,0,0,1,-1092,-532) translate(99.19135802469137 17.944444444444443)"/><use xlink:href="#d" transform="matrix(1,0,0,1,-1092,-532) translate(244.6851851851852 17.944444444444443)"/><use xlink:href="#e" transform="matrix(1,0,0,1,-1092,-532) translate(329.8703703703704 17.944444444444443)"/><use xlink:href="#f" transform="matrix(1,0,0,1,-1088,-489.3333333333333) translate(0 28.944444444444443)"/><use xlink:href="#g" transform="matrix(1,0,0,1,-1088,-489.3333333333333) translate(19.1358024691358 28.944444444444443)"/><use xlink:href="#h" transform="matrix(1,0,0,1,-1088,-489.3333333333333) translate(110.43209876543209 28.944444444444443)"/><use xlink:href="#i" transform="matrix(1,0,0,1,-1088,-489.3333333333333) translate(135.12345679012344 28.944444444444443)"/><use xlink:href="#j" transform="matrix(1,0,0,1,-1088,-489.3333333333333) translate(209.19753086419752 28.944444444444443)"/><use xlink:href="#k" transform="matrix(1,0,0,1,-1088,-425.16666666666663) translate(0 28.944444444444443)"/><use xlink:href="#l" transform="matrix(1,0,0,1,-1088,-425.16666666666663) translate(13.518518518518519 28.944444444444443)"/><use xlink:href="#m" transform="matrix(1,0,0,1,-1088,-425.16666666666663) translate(123.20987654320989 28.944444444444443)"/><use xlink:href="#n" transform="matrix(1,0,0,1,-1088,-425.16666666666663) translate(166.41975308641977 28.944444444444443)"/><use xlink:href="#o" transform="matrix(1,0,0,1,-1088,-425.16666666666663) translate(215.67901234567904 28.944444444444443)"/><path d="M-1100-280a6 6 0 0 1 6-6h348a6 6 0 0 1 6 6v159a6 6 0 0 1-6 6h-348a6 6 0 0 1-6-6z" stroke="#3a414a" fill="#fff"/><path d="M-1100-243.33h360m-360 64.16h360" stroke="#3a414a" fill="none"/><use xlink:href="#p" transform="matrix(1,0,0,1,-1092,-278.0000000001821) translate(1.1975308641975175 17.944444444444443)"/><use xlink:href="#b" transform="matrix(1,0,0,1,-1092,-278.0000000001821) translate(86.1975308641975 17.944444444444443)"/><use xlink:href="#c" transform="matrix(1,0,0,1,-1092,-278.0000000001821) translate(105.3333333333333 17.944444444444443)"/><use xlink:href="#q" transform="matrix(1,0,0,1,-1092,-278.0000000001821) translate(250.82716049382714 17.944444444444443)"/><use xlink:href="#f" transform="matrix(1,0,0,1,-1088,-235.33333333351544) translate(0 28.944444444444443)"/><use xlink:href="#g" transform="matrix(1,0,0,1,-1088,-235.33333333351544) translate(19.1358024691358 28.944444444444443)"/><use xlink:href="#h" transform="matrix(1,0,0,1,-1088,-235.33333333351544) translate(110.43209876543209 28.944444444444443)"/><use xlink:href="#r" transform="matrix(1,0,0,1,-1088,-235.33333333351544) translate(135.12345679012344 28.944444444444443)"/><use xlink:href="#s" transform="matrix(1,0,0,1,-1088,-235.33333333351544) translate(219.07407407407408 28.944444444444443)"/><use xlink:href="#k" transform="matrix(1,0,0,1,-1088,-171.16666666684876) translate(0 28.944444444444443)"/><use xlink:href="#t" transform="matrix(1,0,0,1,-1088,-171.16666666684876) translate(13.518518518518519 28.944444444444443)"/><use xlink:href="#u" transform="matrix(1,0,0,1,-1088,-171.16666666684876) translate(113.33333333333334 28.944444444444443)"/><use xlink:href="#v" transform="matrix(1,0,0,1,-1088,-171.16666666684876) translate(179.87654320987656 28.944444444444443)"/><path d="M-1100-26a6 6 0 0 1 6-6h348a6 6 0 0 1 6 6v212a6 6 0 0 1-6 6h-348a6 6 0 0 1-6-6z" stroke="#3a414a" fill="#fff"/><path d="M-1100 37.33h360m-360 64.17h360" stroke="#3a414a" fill="none"/><use xlink:href="#w" transform="matrix(1,0,0,1,-1092,-24.000000000364253) translate(2.8024691358024825 18.111111111111114)"/><use xlink:href="#x" transform="matrix(1,0,0,1,-1092,-24.000000000364253) translate(105.08641975308642 18.111111111111114)"/><use xlink:href="#b" transform="matrix(1,0,0,1,-1092,-24.000000000364253) translate(182.74074074074073 18.111111111111114)"/><use xlink:href="#y" transform="matrix(1,0,0,1,-1092,-24.000000000364253) translate(201.87654320987653 18.111111111111114)"/><use xlink:href="#z" transform="matrix(1,0,0,1,-1092,-24.000000000364253) translate(58.20370370370371 44.777777777777786)"/><use xlink:href="#A" transform="matrix(1,0,0,1,-1092,-24.000000000364253) translate(149.56172839506172 44.777777777777786)"/><use xlink:href="#e" transform="matrix(1,0,0,1,-1092,-24.000000000364253) translate(272.8333333333333 44.777777777777786)"/><use xlink:href="#f" transform="matrix(1,0,0,1,-1088,45.333333332969076) translate(0 28.944444444444443)"/><use xlink:href="#u" transform="matrix(1,0,0,1,-1088,45.333333332969076) translate(19.1358024691358 28.944444444444443)"/><use xlink:href="#v" transform="matrix(1,0,0,1,-1088,45.333333332969076) translate(85.679012345679 28.944444444444443)"/><use xlink:href="#k" transform="matrix(1,0,0,1,-1088,109.49999999963575) translate(0 28.611111111111114)"/><use xlink:href="#B" transform="matrix(1,0,0,1,-1088,109.49999999963575) translate(13.518518518518519 28.611111111111114)"/><use xlink:href="#C" transform="matrix(1,0,0,1,-1088,109.49999999963575) translate(129.320987654321 28.611111111111114)"/><use xlink:href="#D" transform="matrix(1,0,0,1,-1088,109.49999999963575) translate(191.0493827160494 28.611111111111114)"/><use xlink:href="#E" transform="matrix(1,0,0,1,-1088,109.49999999963575) translate(287.22222222222223 28.611111111111114)"/><use xlink:href="#F" transform="matrix(1,0,0,1,-1088,109.49999999963575) translate(0 55.27777777777778)"/><use xlink:href="#G" transform="matrix(1,0,0,1,-1088,109.49999999963575) translate(60.49382716049382 55.27777777777778)"/><path d="M-1560-26a6 6 0 0 1 6-6h348a6 6 0 0 1 6 6v212a6 6 0 0 1-6 6h-348a6 6 0 0 1-6-6z" stroke="#3a414a" fill="#fff"/><path d="M-1560 37.33h360m-360 64.17h360" stroke="#3a414a" fill="none"/><use xlink:href="#H" transform="matrix(1,0,0,1,-1552,-24.000000000364253) translate(17.555555555555543 18.111111111111114)"/><use xlink:href="#x" transform="matrix(1,0,0,1,-1552,-24.000000000364253) translate(90.33333333333331 18.111111111111114)"/><use xlink:href="#b" transform="matrix(1,0,0,1,-1552,-24.000000000364253) translate(167.98765432098764 18.111111111111114)"/><use xlink:href="#y" transform="matrix(1,0,0,1,-1552,-24.000000000364253) translate(187.12345679012344 18.111111111111114)"/><use xlink:href="#z" transform="matrix(1,0,0,1,-1552,-24.000000000364253) translate(58.20370370370371 44.777777777777786)"/><use xlink:href="#A" transform="matrix(1,0,0,1,-1552,-24.000000000364253) translate(149.56172839506172 44.777777777777786)"/><use xlink:href="#e" transform="matrix(1,0,0,1,-1552,-24.000000000364253) translate(272.8333333333333 44.777777777777786)"/><use xlink:href="#f" transform="matrix(1,0,0,1,-1548,45.333333332969076) translate(0 28.944444444444443)"/><use xlink:href="#u" transform="matrix(1,0,0,1,-1548,45.333333332969076) translate(19.1358024691358 28.944444444444443)"/><use xlink:href="#v" transform="matrix(1,0,0,1,-1548,45.333333332969076) translate(85.679012345679 28.944444444444443)"/><use xlink:href="#k" transform="matrix(1,0,0,1,-1548,109.49999999963575) translate(0 28.611111111111114)"/><use xlink:href="#B" transform="matrix(1,0,0,1,-1548,109.49999999963575) translate(13.518518518518519 28.611111111111114)"/><use xlink:href="#C" transform="matrix(1,0,0,1,-1548,109.49999999963575) translate(129.320987654321 28.611111111111114)"/><use xlink:href="#D" transform="matrix(1,0,0,1,-1548,109.49999999963575) translate(191.0493827160494 28.611111111111114)"/><use xlink:href="#E" transform="matrix(1,0,0,1,-1548,109.49999999963575) translate(287.22222222222223 28.611111111111114)"/><use xlink:href="#F" transform="matrix(1,0,0,1,-1548,109.49999999963575) translate(0 55.27777777777778)"/><use xlink:href="#G" transform="matrix(1,0,0,1,-1548,109.49999999963575) translate(60.49382716049382 55.27777777777778)"/><path d="M-640-26a6 6 0 0 1 6-6h348a6 6 0 0 1 6 6v212a6 6 0 0 1-6 6h-348a6 6 0 0 1-6-6z" stroke="#3a414a" fill="#fff"/><path d="M-640 37.33h360m-360 64.17h360" stroke="#3a414a" fill="none"/><use xlink:href="#I" transform="matrix(1,0,0,1,-632,-24.000000000364253) translate(13.882716049382736 18.111111111111114)"/><use xlink:href="#x" transform="matrix(1,0,0,1,-632,-24.000000000364253) translate(94.00617283950619 18.111111111111114)"/><use xlink:href="#b" transform="matrix(1,0,0,1,-632,-24.000000000364253) translate(171.6604938271605 18.111111111111114)"/><use xlink:href="#y" transform="matrix(1,0,0,1,-632,-24.000000000364253) translate(190.7962962962963 18.111111111111114)"/><use xlink:href="#z" transform="matrix(1,0,0,1,-632,-24.000000000364253) translate(58.20370370370371 44.777777777777786)"/><use xlink:href="#A" transform="matrix(1,0,0,1,-632,-24.000000000364253) translate(149.56172839506172 44.777777777777786)"/><use xlink:href="#e" transform="matrix(1,0,0,1,-632,-24.000000000364253) translate(272.8333333333333 44.777777777777786)"/><use xlink:href="#f" transform="matrix(1,0,0,1,-628,45.333333332969076) translate(0 28.944444444444443)"/><use xlink:href="#u" transform="matrix(1,0,0,1,-628,45.333333332969076) translate(19.1358024691358 28.944444444444443)"/><use xlink:href="#v" transform="matrix(1,0,0,1,-628,45.333333332969076) translate(85.679012345679 28.944444444444443)"/><g><use xlink:href="#k" transform="matrix(1,0,0,1,-628,109.49999999963575) translate(0 28.611111111111114)"/><use xlink:href="#B" transform="matrix(1,0,0,1,-628,109.49999999963575) translate(13.518518518518519 28.611111111111114)"/><use xlink:href="#C" transform="matrix(1,0,0,1,-628,109.49999999963575) translate(129.320987654321 28.611111111111114)"/><use xlink:href="#D" transform="matrix(1,0,0,1,-628,109.49999999963575) translate(191.0493827160494 28.611111111111114)"/><use xlink:href="#E" transform="matrix(1,0,0,1,-628,109.49999999963575) translate(287.22222222222223 28.611111111111114)"/><use xlink:href="#F" transform="matrix(1,0,0,1,-628,109.49999999963575) translate(0 55.27777777777778)"/><use xlink:href="#G" transform="matrix(1,0,0,1,-628,109.49999999963575) translate(60.49382716049382 55.27777777777778)"/></g><path d="M-1100 281a6 6 0 0 1 6-6h348a6 6 0 0 1 6 6v212a6 6 0 0 1-6 6h-348a6 6 0 0 1-6-6z" stroke="#3a414a" fill="#fff"/><path d="M-1100 344.33h360m-360 90.84h360" stroke="#3a414a" fill="none"/><g><use xlink:href="#J" transform="matrix(1,0,0,1,-1092,282.9999999994536) translate(3.3271604938271935 18.111111111111114)"/><use xlink:href="#b" transform="matrix(1,0,0,1,-1092,282.9999999994536) translate(90.85802469135804 18.111111111111114)"/><use xlink:href="#c" transform="matrix(1,0,0,1,-1092,282.9999999994536) translate(109.99382716049384 18.111111111111114)"/><use xlink:href="#K" transform="matrix(1,0,0,1,-1092,282.9999999994536) translate(255.48765432098764 18.111111111111114)"/><use xlink:href="#A" transform="matrix(1,0,0,1,-1092,282.9999999994536) translate(103.88271604938272 44.777777777777786)"/><use xlink:href="#e" transform="matrix(1,0,0,1,-1092,282.9999999994536) translate(227.15432098765433 44.777777777777786)"/></g><g><use xlink:href="#f" transform="matrix(1,0,0,1,-1088,352.33333333278694) translate(0 28.611111111111114)"/><use xlink:href="#g" transform="matrix(1,0,0,1,-1088,352.33333333278694) translate(19.1358024691358 28.611111111111114)"/><use xlink:href="#h" transform="matrix(1,0,0,1,-1088,352.33333333278694) translate(110.43209876543209 28.611111111111114)"/><use xlink:href="#L" transform="matrix(1,0,0,1,-1088,352.33333333278694) translate(135.12345679012344 28.611111111111114)"/><use xlink:href="#M" transform="matrix(1,0,0,1,-1088,352.33333333278694) translate(0 55.27777777777778)"/><use xlink:href="#h" transform="matrix(1,0,0,1,-1088,352.33333333278694) translate(131.9135802469136 55.27777777777778)"/><use xlink:href="#N" transform="matrix(1,0,0,1,-1088,352.33333333278694) translate(156.60493827160496 55.27777777777778)"/></g><path d="M-1560 281a6 6 0 0 1 6-6h348a6 6 0 0 1 6 6v212a6 6 0 0 1-6 6h-348a6 6 0 0 1-6-6z" stroke="#3a414a" fill="#fff"/><path d="M-1560 344.33h360m-360 90.84h360" stroke="#3a414a" fill="none"/><g><use xlink:href="#O" transform="matrix(1,0,0,1,-1552,282.9999999994536) translate(8.851851851851848 18.111111111111114)"/><use xlink:href="#b" transform="matrix(1,0,0,1,-1552,282.9999999994536) translate(85.33333333333333 18.111111111111114)"/><use xlink:href="#c" transform="matrix(1,0,0,1,-1552,282.9999999994536) translate(104.46913580246913 18.111111111111114)"/><use xlink:href="#K" transform="matrix(1,0,0,1,-1552,282.9999999994536) translate(249.96296296296293 18.111111111111114)"/><use xlink:href="#A" transform="matrix(1,0,0,1,-1552,282.9999999994536) translate(103.88271604938272 44.777777777777786)"/><use xlink:href="#e" transform="matrix(1,0,0,1,-1552,282.9999999994536) translate(227.15432098765433 44.777777777777786)"/></g><g><use xlink:href="#f" transform="matrix(1,0,0,1,-1548,352.33333333278694) translate(0 28.611111111111114)"/><use xlink:href="#g" transform="matrix(1,0,0,1,-1548,352.33333333278694) translate(19.1358024691358 28.611111111111114)"/><use xlink:href="#h" transform="matrix(1,0,0,1,-1548,352.33333333278694) translate(110.43209876543209 28.611111111111114)"/><use xlink:href="#L" transform="matrix(1,0,0,1,-1548,352.33333333278694) translate(135.12345679012344 28.611111111111114)"/><use xlink:href="#M" transform="matrix(1,0,0,1,-1548,352.33333333278694) translate(0 55.27777777777778)"/><use xlink:href="#h" transform="matrix(1,0,0,1,-1548,352.33333333278694) translate(131.9135802469136 55.27777777777778)"/><use xlink:href="#N" transform="matrix(1,0,0,1,-1548,352.33333333278694) translate(156.60493827160496 55.27777777777778)"/></g><path d="M-640 281a6 6 0 0 1 6-6h348a6 6 0 0 1 6 6v212a6 6 0 0 1-6 6h-348a6 6 0 0 1-6-6z" stroke="#3a414a" fill="#fff"/><path d="M-640 344.33h360m-360 90.84h360" stroke="#3a414a" fill="none"/><g><use xlink:href="#P" transform="matrix(1,0,0,1,-632,282.9999999994536) translate(4.592592592592609 18.111111111111114)"/><use xlink:href="#b" transform="matrix(1,0,0,1,-632,282.9999999994536) translate(89.59259259259261 18.111111111111114)"/><use xlink:href="#c" transform="matrix(1,0,0,1,-632,282.9999999994536) translate(108.7283950617284 18.111111111111114)"/><use xlink:href="#K" transform="matrix(1,0,0,1,-632,282.9999999994536) translate(254.22222222222223 18.111111111111114)"/><use xlink:href="#A" transform="matrix(1,0,0,1,-632,282.9999999994536) translate(103.88271604938272 44.777777777777786)"/><use xlink:href="#e" transform="matrix(1,0,0,1,-632,282.9999999994536) translate(227.15432098765433 44.777777777777786)"/></g><g><use xlink:href="#f" transform="matrix(1,0,0,1,-628,352.33333333278694) translate(0 28.611111111111114)"/><use xlink:href="#g" transform="matrix(1,0,0,1,-628,352.33333333278694) translate(19.1358024691358 28.611111111111114)"/><use xlink:href="#h" transform="matrix(1,0,0,1,-628,352.33333333278694) translate(110.43209876543209 28.611111111111114)"/><use xlink:href="#L" transform="matrix(1,0,0,1,-628,352.33333333278694) translate(135.12345679012344 28.611111111111114)"/><use xlink:href="#Q" transform="matrix(1,0,0,1,-628,352.33333333278694) translate(0 55.27777777777778)"/></g><path d="M-919.5-287h-1v-13.96h1zm0-35.3h-1v-15.82h1z" stroke="#3a414a" stroke-width=".05" fill="#3a414a"/><path d="M-919.5-286.5h-1v-.5h1z" fill="#3a414a"/><path d="M-919.48-286.48h-1.04v-.56h1.04zm-1-.5v.46h.96v-.47z" stroke="#3a414a" stroke-width=".05" fill="#3a414a"/><path d="M-905.15-352.94L-920-337.8l-14.85-15.14L-920-367.8z" fill="#3a414a"/><path d="M-904.45-352.95L-920-337.08l-15.55-15.87L-920-368.5zm-29.7 0L-920-338.5l14.15-14.44L-920-367.1z" stroke="#3a414a" stroke-width=".05" fill="#3a414a"/><g><use xlink:href="#R" transform="matrix(1,0,0,1,-924.9382716049382,-322.28921967284253) translate(0 14.222222222222223)"/></g><path d="M-919.5-33h-1v-3.53h1zm0-24.87h-1v-26.26h1z" stroke="#3a414a" stroke-width=".05" fill="#3a414a"/><path d="M-919.5-32.5h-1v-.5h1z" fill="#3a414a"/><path d="M-919.48-32.48h-1.04v-.56h1.04zm-1-.5v.45h.96v-.46z" stroke="#3a414a" stroke-width=".05" fill="#3a414a"/><path d="M-905.15-98.94L-920-83.8l-14.85-15.14L-920-113.8z" fill="#3a414a"/><path d="M-904.45-98.95L-920-83.08l-15.55-15.87L-920-114.5zm-29.7 0L-920-84.5l14.15-14.44L-920-113.1z" stroke="#3a414a" stroke-width=".05" fill="#3a414a"/><g><use xlink:href="#S" transform="matrix(1,0,0,1,-933.3333333333334,-57.867102161901016) translate(0 14.222222222222223)"/></g><path d="M-919.5 274h-1v-10h1zm0-31.33h-1v-19.8h1z" stroke="#3a414a" stroke-width=".05" fill="#3a414a"/><path d="M-919.5 274.5h-1v-.5h1z" fill="#3a414a"/><path d="M-919.48 274.52h-1.04v-.56h1.04zm-1-.5v.46h.96V274z" stroke="#3a414a" stroke-width=".05" fill="#3a414a"/><path d="M-905.15 208.06L-920 223.2l-14.85-15.14L-920 193.2z" fill="#3a414a"/><path d="M-904.45 208.05L-920 223.92l-15.55-15.87L-920 192.5zm-29.7 0L-920 222.5l14.15-14.44L-920 193.9z" stroke="#3a414a" stroke-width=".05" fill="#3a414a"/><g><use xlink:href="#R" transform="matrix(1,0,0,1,-924.9382716049382,242.6666666666666) translate(0 14.222222222222223)"/></g><path d="M-459.5 274h-1v-8.67h1zm0-30h-1v-21.13h1z" stroke="#3a414a" stroke-width=".05" fill="#3a414a"/><path d="M-459.5 274.5h-1v-.5h1z" fill="#3a414a"/><path d="M-459.48 274.52h-1.04v-.56h1.04zm-1-.5v.46h.96V274z" stroke="#3a414a" stroke-width=".05" fill="#3a414a"/><path d="M-445.15 208.06L-460 223.2l-14.85-15.14L-460 193.2z" fill="#3a414a"/><path d="M-444.45 208.05L-460 223.92l-15.55-15.87L-460 192.5zm-29.7 0L-460 222.5l14.15-14.44L-460 193.9z" stroke="#3a414a" stroke-width=".05" fill="#3a414a"/><g><use xlink:href="#R" transform="matrix(1,0,0,1,-464.9382716049383,244.00000000000009) translate(0 14.222222222222223)"/></g><path d="M-1379.5 274h-1v-7.33h1zm0-28.67h-1v-22.46h1z" stroke="#3a414a" stroke-width=".05" fill="#3a414a"/><path d="M-1379.5 274.5h-1v-.5h1z" fill="#3a414a"/><path d="M-1379.47 274.52h-1.06v-.56h1.06zm-1-.5v.46h.94V274z" stroke="#3a414a" stroke-width=".05" fill="#3a414a"/><path d="M-1365.15 208.06L-1380 223.2l-14.85-15.14 14.85-14.85z" fill="#3a414a"/><path d="M-1364.45 208.05l-15.55 15.87-15.55-15.87 15.55-15.55zm-29.7 0l14.15 14.44 14.15-14.44-14.15-14.15z" stroke="#3a414a" stroke-width=".05" fill="#3a414a"/><g><use xlink:href="#R" transform="matrix(1,0,0,1,-1384.9382716049383,245.33333333333334) translate(0 14.222222222222223)"/></g><path d="M-1293.33-73h-80.65l-.88.07-.84.2-.8.33-.73.45-.66.56-.55.67-.45.73-.33.8-.2.84-.07.88V-33h-1v-34.52l.08-1 .24-1 .4-.93.52-.87.66-.78.78-.66.87-.53.94-.38.98-.24 1-.08h80.7zm277.83-6.48l-.08 1-.24 1-.4.93-.52.87-.66.78-.78.66-.87.53-.94.38-.98.24-1 .08h-244.7v-1H-1022l.88-.07.84-.2.8-.33.73-.45.66-.56.55-.67.45-.73.33-.8.2-.84.07-.88v-4.6h1z" stroke="#3a414a" stroke-width=".05" fill="#3a414a"/><path d="M-1379.5-32.5h-1v-.5h1z" fill="#3a414a"/><path d="M-1379.47-32.48h-1.06v-.56h1.06zm-1-.5v.45h.94v-.46z" stroke="#3a414a" stroke-width=".05" fill="#3a414a"/><path d="M-1001.15-98.94L-1016-83.8l-14.85-15.14 14.85-14.85z" fill="#3a414a"/><path d="M-1000.45-98.95L-1016-83.08l-15.55-15.87 15.55-15.55zm-29.7 0L-1016-84.5l14.15-14.44-14.15-14.15z" stroke="#3a414a" stroke-width=".05" fill="#3a414a"/><g><use xlink:href="#S" transform="matrix(1,0,0,1,-1293.3333333333333,-84.16665287383616) translate(0 14.222222222222223)"/></g><path d="M-465.98-74l1 .08 1 .24.93.4.87.52.78.66.66.78.53.87.38.94.24.98.08 1V-33h-1v-34.48l-.07-.88-.2-.84-.33-.8-.45-.73-.56-.66-.67-.55-.73-.45-.8-.33-.84-.2-.88-.07H-540v-1zm-354.78-4.64l.2.84.33.8.45.73.56.66.65.55.74.45.8.33.84.2.9.07h248.63v1h-248.68l-1-.08-1-.24-.93-.4-.88-.52-.77-.66-.66-.78-.53-.87-.4-.94-.23-.98-.07-1v-4.64h1v4.6z" stroke="#3a414a" stroke-width=".05" fill="#3a414a"/><path d="M-459.5-32.5h-1v-.5h1z" fill="#3a414a"/><path d="M-459.48-32.48h-1.04v-.56h1.04zm-1-.5v.45h.96v-.46z" stroke="#3a414a" stroke-width=".05" fill="#3a414a"/><path d="M-806.48-98.94l-14.85 15.15-14.85-15.14 14.85-14.85z" fill="#3a414a"/><path d="M-805.78-98.95l-15.55 15.87-15.56-15.87 15.57-15.55zm-29.7 0l14.15 14.44 14.14-14.44-14.13-14.15z" stroke="#3a414a" stroke-width=".05" fill="#3a414a"/><g><use xlink:href="#S" transform="matrix(1,0,0,1,-566.6666666666666,-84.16668084318464) translate(0 14.222222222222223)"/></g><path d="M-1100-674a6 6 0 0 1 6-6h348a6 6 0 0 1 6 6v78.56a6 6 0 0 1-6 6h-348a6 6 0 0 1-6-6z" stroke="#000" stroke-opacity="0" fill="#fff" fill-opacity="0"/><g><use xlink:href="#T" transform="matrix(1,0,0,1,-1095,-675) translate(4.305555555555628 49.85069444444443)"/><use xlink:href="#U" transform="matrix(1,0,0,1,-1095,-675) translate(153.66319444444446 49.85069444444443)"/></g><defs><path fill="#3a414a" d="M85-194c31 0 48 13 60 33l-1-100h32l1 261h-30c-2-10 0-23-3-31C134-8 116 4 85 4 32 4 16-35 15-94c0-66 23-100 70-100zm9 24c-40 0-46 34-46 75 0 40 6 74 45 74 42 0 51-32 51-76 0-42-9-74-50-73" id="V"/><path fill="#3a414a" d="M100-194c62-1 85 37 85 99 1 63-27 99-86 99S16-35 15-95c0-66 28-99 85-99zM99-20c44 1 53-31 53-75 0-43-8-75-51-75s-53 32-53 75 10 74 51 75" id="W"/><path fill="#3a414a" d="M210-169c-67 3-38 105-44 169h-31v-121c0-29-5-50-35-48C34-165 62-65 56 0H25l-1-190h30c1 10-1 24 2 32 10-44 99-50 107 0 11-21 27-35 58-36 85-2 47 119 55 194h-31v-121c0-29-5-49-35-48" id="X"/><path fill="#3a414a" d="M141-36C126-15 110 5 73 4 37 3 15-17 15-53c-1-64 63-63 125-63 3-35-9-54-41-54-24 1-41 7-42 31l-33-3c5-37 33-52 76-52 45 0 72 20 72 64v82c-1 20 7 32 28 27v20c-31 9-61-2-59-35zM48-53c0 20 12 33 32 33 41-3 63-29 60-74-43 2-92-5-92 41" id="Y"/><path fill="#3a414a" d="M24-231v-30h32v30H24zM24 0v-190h32V0H24" id="Z"/><path fill="#3a414a" d="M117-194c89-4 53 116 60 194h-32v-121c0-31-8-49-39-48C34-167 62-67 57 0H25l-1-190h30c1 10-1 24 2 32 11-22 29-35 61-36" id="aa"/><g id="a"><use transform="matrix(0.06172839506172839,0,0,0.06172839506172839,0,0)" xlink:href="#V"/><use transform="matrix(0.06172839506172839,0,0,0.06172839506172839,12.345679012345679,0)" xlink:href="#W"/><use transform="matrix(0.06172839506172839,0,0,0.06172839506172839,24.691358024691358,0)" xlink:href="#X"/><use transform="matrix(0.06172839506172839,0,0,0.06172839506172839,43.148148148148145,0)" xlink:href="#Y"/><use transform="matrix(0.06172839506172839,0,0,0.06172839506172839,55.49382716049382,0)" xlink:href="#Z"/><use transform="matrix(0.06172839506172839,0,0,0.06172839506172839,60.37037037037037,0)" xlink:href="#aa"/></g><path fill="#3a414a" d="M18-100v-36l175-74v27L42-118l151 64v27" id="ab"/><use transform="matrix(0.06172839506172839,0,0,0.06172839506172839,0,0)" xlink:href="#ab" id="b"/><path fill="#3a414a" d="M100-194c63 0 86 42 84 106H49c0 40 14 67 53 68 26 1 43-12 49-29l28 8c-11 28-37 45-77 45C44 4 14-33 15-96c1-61 26-98 85-98zm52 81c6-60-76-77-97-28-3 7-6 17-6 28h103" id="ac"/><path fill="#3a414a" d="M84 4C-5 8 30-112 23-190h32v120c0 31 7 50 39 49 72-2 45-101 50-169h31l1 190h-30c-1-10 1-25-2-33-11 22-28 36-60 37" id="ad"/><path fill="#3a414a" d="M-5 72V49h209v23H-5" id="ae"/><path fill="#3a414a" d="M59-47c-2 24 18 29 38 22v24C64 9 27 4 27-40v-127H5v-23h24l9-43h21v43h35v23H59v120" id="af"/><path fill="#3a414a" d="M179-190L93 31C79 59 56 82 12 73V49c39 6 53-20 64-50L1-190h34L92-34l54-156h33" id="ag"/><path fill="#3a414a" d="M115-194c55 1 70 41 70 98S169 2 115 4C84 4 66-9 55-30l1 105H24l-1-265h31l2 30c10-21 28-34 59-34zm-8 174c40 0 45-34 45-75s-6-73-45-74c-42 0-51 32-51 76 0 43 10 73 51 73" id="ah"/><path fill="#3a414a" d="M68-38c1 34 0 65-14 84H32c9-13 17-26 17-46H33v-38h35" id="ai"/><g id="c"><use transform="matrix(0.06172839506172839,0,0,0.06172839506172839,0,0)" xlink:href="#X"/><use transform="matrix(0.06172839506172839,0,0,0.06172839506172839,18.456790123456788,0)" xlink:href="#ac"/><use transform="matrix(0.06172839506172839,0,0,0.06172839506172839,30.80246913580247,0)" xlink:href="#V"/><use transform="matrix(0.06172839506172839,0,0,0.06172839506172839,43.148148148148145,0)" xlink:href="#Z"/><use transform="matrix(0.06172839506172839,0,0,0.06172839506172839,48.02469135802469,0)" xlink:href="#ad"/><use transform="matrix(0.06172839506172839,0,0,0.06172839506172839,60.37037037037037,0)" xlink:href="#X"/><use transform="matrix(0.06172839506172839,0,0,0.06172839506172839,78.82716049382715,0)" xlink:href="#ae"/><use transform="matrix(0.06172839506172839,0,0,0.06172839506172839,91.17283950617283,0)" xlink:href="#af"/><use transform="matrix(0.06172839506172839,0,0,0.06172839506172839,97.34567901234567,0)" xlink:href="#ag"/><use transform="matrix(0.06172839506172839,0,0,0.06172839506172839,108.45679012345678,0)" xlink:href="#ah"/><use transform="matrix(0.06172839506172839,0,0,0.06172839506172839,120.80246913580247,0)" xlink:href="#ac"/><use transform="matrix(0.06172839506172839,0,0,0.06172839506172839,133.14814814814815,0)" xlink:href="#ai"/></g><path fill="#3a414a" d="M145-31C134-9 116 4 85 4 32 4 16-35 15-94c0-59 17-99 70-100 32-1 48 14 60 33 0-11-1-24 2-32h30l-1 268h-32zM93-21c41 0 51-33 51-76s-8-73-50-73c-40 0-46 35-46 75s5 74 45 74" id="aj"/><g id="d"><use transform="matrix(0.06172839506172839,0,0,0.06172839506172839,0,0)" xlink:href="#aj"/><use transform="matrix(0.06172839506172839,0,0,0.06172839506172839,12.345679012345679,0)" xlink:href="#ah"/><use transform="matrix(0.06172839506172839,0,0,0.06172839506172839,24.691358024691358,0)" xlink:href="#ae"/><use transform="matrix(0.06172839506172839,0,0,0.06172839506172839,37.03703703703704,0)" xlink:href="#af"/><use transform="matrix(0.06172839506172839,0,0,0.06172839506172839,43.20987654320988,0)" xlink:href="#ag"/><use transform="matrix(0.06172839506172839,0,0,0.06172839506172839,54.32098765432099,0)" xlink:href="#ah"/><use transform="matrix(0.06172839506172839,0,0,0.06172839506172839,66.66666666666667,0)" xlink:href="#ac"/></g><path fill="#3a414a" d="M18-27v-27l151-64-151-65v-27l175 74v36" id="ak"/><use transform="matrix(0.06172839506172839,0,0,0.06172839506172839,0,0)" xlink:href="#ak" id="e"/><path fill="#3a414a" d="M118-107v75H92v-75H18v-26h74v-75h26v75h74v26h-74" id="al"/><use transform="matrix(0.06172839506172839,0,0,0.06172839506172839,0,0)" xlink:href="#al" id="f"/><path fill="#3a414a" d="M106-169C34-169 62-67 57 0H25v-261h32l-1 103c12-21 28-36 61-36 89 0 53 116 60 194h-32v-121c2-32-8-49-39-48" id="am"/><path fill="#3a414a" d="M135-143c-3-34-86-38-87 0 15 53 115 12 119 90S17 21 10-45l28-5c4 36 97 45 98 0-10-56-113-15-118-90-4-57 82-63 122-42 12 7 21 19 24 35" id="an"/><g id="g"><use transform="matrix(0.06172839506172839,0,0,0.06172839506172839,0,0)" xlink:href="#X"/><use transform="matrix(0.06172839506172839,0,0,0.06172839506172839,18.456790123456788,0)" xlink:href="#ac"/><use transform="matrix(0.06172839506172839,0,0,0.06172839506172839,30.80246913580247,0)" xlink:href="#af"/><use transform="matrix(0.06172839506172839,0,0,0.06172839506172839,36.97530864197531,0)" xlink:href="#am"/><use transform="matrix(0.06172839506172839,0,0,0.06172839506172839,49.32098765432099,0)" xlink:href="#W"/><use transform="matrix(0.06172839506172839,0,0,0.06172839506172839,61.666666666666664,0)" xlink:href="#V"/><use transform="matrix(0.06172839506172839,0,0,0.06172839506172839,74.01234567901234,0)" xlink:href="#an"/></g><g id="h"><use transform="matrix(0.06172839506172839,0,0,0.06172839506172839,0,0)" xlink:href="#af"/><use transform="matrix(0.06172839506172839,0,0,0.06172839506172839,6.172839506172839,0)" xlink:href="#W"/></g><g id="i"><use transform="matrix(0.06172839506172839,0,0,0.06172839506172839,0,0)" xlink:href="#ad"/><use transform="matrix(0.06172839506172839,0,0,0.06172839506172839,12.345679012345679,0)" xlink:href="#ah"/><use transform="matrix(0.06172839506172839,0,0,0.06172839506172839,24.691358024691358,0)" xlink:href="#V"/><use transform="matrix(0.06172839506172839,0,0,0.06172839506172839,37.03703703703704,0)" xlink:href="#Y"/><use transform="matrix(0.06172839506172839,0,0,0.06172839506172839,49.382716049382715,0)" xlink:href="#af"/><use transform="matrix(0.06172839506172839,0,0,0.06172839506172839,55.55555555555556,0)" xlink:href="#ac"/></g><path fill="#3a414a" d="M206 0h-36l-40-164L89 0H53L-1-190h32L70-26l43-164h34l41 164 42-164h31" id="ao"/><path fill="#3a414a" d="M108 0H70L1-190h34L89-25l56-165h34" id="ap"/><path fill="#3a414a" d="M101-234c-31-9-42 10-38 44h38v23H63V0H32v-167H5v-23h27c-7-52 17-82 69-68v24" id="aq"/><path fill="#3a414a" d="M24 0v-261h32V0H24" id="ar"/><g id="j"><use transform="matrix(0.06172839506172839,0,0,0.06172839506172839,0,0)" xlink:href="#ao"/><use transform="matrix(0.06172839506172839,0,0,0.06172839506172839,15.987654320987653,0)" xlink:href="#Y"/><use transform="matrix(0.06172839506172839,0,0,0.06172839506172839,28.333333333333332,0)" xlink:href="#ap"/><use transform="matrix(0.06172839506172839,0,0,0.06172839506172839,39.44444444444444,0)" xlink:href="#ac"/><use transform="matrix(0.06172839506172839,0,0,0.06172839506172839,51.79012345679012,0)" xlink:href="#aq"/><use transform="matrix(0.06172839506172839,0,0,0.06172839506172839,57.96296296296296,0)" xlink:href="#Z"/><use transform="matrix(0.06172839506172839,0,0,0.06172839506172839,62.839506172839506,0)" xlink:href="#ac"/><use transform="matrix(0.06172839506172839,0,0,0.06172839506172839,75.18518518518519,0)" xlink:href="#ar"/><use transform="matrix(0.06172839506172839,0,0,0.06172839506172839,80.06172839506173,0)" xlink:href="#V"/><use transform="matrix(0.06172839506172839,0,0,0.06172839506172839,92.40740740740742,0)" xlink:href="#an"/></g><path fill="#3a414a" d="M16-82v-28h88v28H16" id="as"/><use transform="matrix(0.06172839506172839,0,0,0.06172839506172839,0,0)" xlink:href="#as" id="k"/><g id="l"><use transform="matrix(0.06172839506172839,0,0,0.06172839506172839,0,0)" xlink:href="#ao"/><use transform="matrix(0.06172839506172839,0,0,0.06172839506172839,15.987654320987653,0)" xlink:href="#Y"/><use transform="matrix(0.06172839506172839,0,0,0.06172839506172839,28.333333333333332,0)" xlink:href="#ap"/><use transform="matrix(0.06172839506172839,0,0,0.06172839506172839,39.44444444444444,0)" xlink:href="#ac"/><use transform="matrix(0.06172839506172839,0,0,0.06172839506172839,51.79012345679012,0)" xlink:href="#aq"/><use transform="matrix(0.06172839506172839,0,0,0.06172839506172839,57.96296296296296,0)" xlink:href="#Z"/><use transform="matrix(0.06172839506172839,0,0,0.06172839506172839,62.839506172839506,0)" xlink:href="#ac"/><use transform="matrix(0.06172839506172839,0,0,0.06172839506172839,75.18518518518519,0)" xlink:href="#ar"/><use transform="matrix(0.06172839506172839,0,0,0.06172839506172839,80.06172839506173,0)" xlink:href="#V"/><use transform="matrix(0.06172839506172839,0,0,0.06172839506172839,92.40740740740742,0)" xlink:href="#an"/></g><g id="m"><use transform="matrix(0.06172839506172839,0,0,0.06172839506172839,0,0)" xlink:href="#Y"/><use transform="matrix(0.06172839506172839,0,0,0.06172839506172839,12.345679012345679,0)" xlink:href="#aa"/><use transform="matrix(0.06172839506172839,0,0,0.06172839506172839,24.691358024691358,0)" xlink:href="#V"/></g><path fill="#3a414a" d="M114-163C36-179 61-72 57 0H25l-1-190h30c1 12-1 29 2 39 6-27 23-49 58-41v29" id="at"/><g id="n"><use transform="matrix(0.06172839506172839,0,0,0.06172839506172839,0,0)" xlink:href="#af"/><use transform="matrix(0.06172839506172839,0,0,0.06172839506172839,6.172839506172839,0)" xlink:href="#am"/><use transform="matrix(0.06172839506172839,0,0,0.06172839506172839,18.51851851851852,0)" xlink:href="#ac"/><use transform="matrix(0.06172839506172839,0,0,0.06172839506172839,30.864197530864196,0)" xlink:href="#Z"/><use transform="matrix(0.06172839506172839,0,0,0.06172839506172839,35.74074074074074,0)" xlink:href="#at"/></g><g id="o"><use transform="matrix(0.06172839506172839,0,0,0.06172839506172839,0,0)" xlink:href="#V"/><use transform="matrix(0.06172839506172839,0,0,0.06172839506172839,12.345679012345679,0)" xlink:href="#ac"/><use transform="matrix(0.06172839506172839,0,0,0.06172839506172839,24.691358024691358,0)" xlink:href="#at"/><use transform="matrix(0.06172839506172839,0,0,0.06172839506172839,32.03703703703704,0)" xlink:href="#Z"/><use transform="matrix(0.06172839506172839,0,0,0.06172839506172839,36.91358024691358,0)" xlink:href="#ap"/><use transform="matrix(0.06172839506172839,0,0,0.06172839506172839,48.0246913580247,0)" xlink:href="#Y"/><use transform="matrix(0.06172839506172839,0,0,0.06172839506172839,60.370370370370374,0)" xlink:href="#af"/><use transform="matrix(0.06172839506172839,0,0,0.06172839506172839,66.54320987654322,0)" xlink:href="#Z"/><use transform="matrix(0.06172839506172839,0,0,0.06172839506172839,71.41975308641976,0)" xlink:href="#ap"/><use transform="matrix(0.06172839506172839,0,0,0.06172839506172839,82.53086419753087,0)" xlink:href="#ac"/><use transform="matrix(0.06172839506172839,0,0,0.06172839506172839,94.87654320987656,0)" xlink:href="#an"/></g><path fill="#3a414a" d="M143 0L79-87 56-68V0H24v-261h32v163l83-92h37l-77 82L181 0h-38" id="au"/><g id="p"><use transform="matrix(0.06172839506172839,0,0,0.06172839506172839,0,0)" xlink:href="#au"/><use transform="matrix(0.06172839506172839,0,0,0.06172839506172839,11.11111111111111,0)" xlink:href="#ac"/><use transform="matrix(0.06172839506172839,0,0,0.06172839506172839,23.45679012345679,0)" xlink:href="#at"/><use transform="matrix(0.06172839506172839,0,0,0.06172839506172839,30.80246913580247,0)" xlink:href="#aa"/><use transform="matrix(0.06172839506172839,0,0,0.06172839506172839,43.148148148148145,0)" xlink:href="#ac"/><use transform="matrix(0.06172839506172839,0,0,0.06172839506172839,55.49382716049382,0)" xlink:href="#at"/><use transform="matrix(0.06172839506172839,0,0,0.06172839506172839,62.8395061728395,0)" xlink:href="#ar"/><use transform="matrix(0.06172839506172839,0,0,0.06172839506172839,67.71604938271604,0)" xlink:href="#an"/></g><g id="q"><use transform="matrix(0.06172839506172839,0,0,0.06172839506172839,0,0)" xlink:href="#aj"/><use transform="matrix(0.06172839506172839,0,0,0.06172839506172839,12.345679012345679,0)" xlink:href="#ah"/><use transform="matrix(0.06172839506172839,0,0,0.06172839506172839,24.691358024691358,0)" xlink:href="#ae"/><use transform="matrix(0.06172839506172839,0,0,0.06172839506172839,37.03703703703704,0)" xlink:href="#af"/><use transform="matrix(0.06172839506172839,0,0,0.06172839506172839,43.20987654320988,0)" xlink:href="#ag"/><use transform="matrix(0.06172839506172839,0,0,0.06172839506172839,54.32098765432099,0)" xlink:href="#ah"/><use transform="matrix(0.06172839506172839,0,0,0.06172839506172839,66.66666666666667,0)" xlink:href="#ac"/><use transform="matrix(0.06172839506172839,0,0,0.06172839506172839,79.01234567901236,0)" xlink:href="#ak"/></g><path fill="#3a414a" d="M141 0L90-78 38 0H4l68-98-65-92h35l48 74 47-74h35l-64 92 68 98h-35" id="av"/><path fill="#3a414a" d="M96-169c-40 0-48 33-48 73s9 75 48 75c24 0 41-14 43-38l32 2c-6 37-31 61-74 61-59 0-76-41-82-99-10-93 101-131 147-64 4 7 5 14 7 22l-32 3c-4-21-16-35-41-35" id="aw"/><g id="r"><use transform="matrix(0.06172839506172839,0,0,0.06172839506172839,0,0)" xlink:href="#ac"/><use transform="matrix(0.06172839506172839,0,0,0.06172839506172839,12.345679012345679,0)" xlink:href="#av"/><use transform="matrix(0.06172839506172839,0,0,0.06172839506172839,23.45679012345679,0)" xlink:href="#ac"/><use transform="matrix(0.06172839506172839,0,0,0.06172839506172839,35.80246913580247,0)" xlink:href="#aw"/><use transform="matrix(0.06172839506172839,0,0,0.06172839506172839,46.91358024691358,0)" xlink:href="#ad"/><use transform="matrix(0.06172839506172839,0,0,0.06172839506172839,59.25925925925926,0)" xlink:href="#af"/><use transform="matrix(0.06172839506172839,0,0,0.06172839506172839,65.4320987654321,0)" xlink:href="#ac"/></g><g id="s"><use transform="matrix(0.06172839506172839,0,0,0.06172839506172839,0,0)" xlink:href="#au"/><use transform="matrix(0.06172839506172839,0,0,0.06172839506172839,11.11111111111111,0)" xlink:href="#ac"/><use transform="matrix(0.06172839506172839,0,0,0.06172839506172839,23.45679012345679,0)" xlink:href="#at"/><use transform="matrix(0.06172839506172839,0,0,0.06172839506172839,30.80246913580247,0)" xlink:href="#aa"/><use transform="matrix(0.06172839506172839,0,0,0.06172839506172839,43.148148148148145,0)" xlink:href="#ac"/><use transform="matrix(0.06172839506172839,0,0,0.06172839506172839,55.49382716049382,0)" xlink:href="#ar"/><use transform="matrix(0.06172839506172839,0,0,0.06172839506172839,60.37037037037037,0)" xlink:href="#an"/></g><path fill="#3a414a" d="M33 0v-248h34V0H33" id="ax"/><g id="t"><use transform="matrix(0.06172839506172839,0,0,0.06172839506172839,0,0)" xlink:href="#ax"/><use transform="matrix(0.06172839506172839,0,0,0.06172839506172839,6.172839506172839,0)" xlink:href="#aa"/><use transform="matrix(0.06172839506172839,0,0,0.06172839506172839,18.51851851851852,0)" xlink:href="#V"/><use transform="matrix(0.06172839506172839,0,0,0.06172839506172839,30.864197530864196,0)" xlink:href="#Z"/><use transform="matrix(0.06172839506172839,0,0,0.06172839506172839,35.74074074074074,0)" xlink:href="#ap"/><use transform="matrix(0.06172839506172839,0,0,0.06172839506172839,46.85185185185185,0)" xlink:href="#Z"/><use transform="matrix(0.06172839506172839,0,0,0.06172839506172839,51.72839506172839,0)" xlink:href="#V"/><use transform="matrix(0.06172839506172839,0,0,0.06172839506172839,64.07407407407408,0)" xlink:href="#ad"/><use transform="matrix(0.06172839506172839,0,0,0.06172839506172839,76.41975308641976,0)" xlink:href="#Y"/><use transform="matrix(0.06172839506172839,0,0,0.06172839506172839,88.76543209876544,0)" xlink:href="#ar"/></g><g id="u"><use transform="matrix(0.06172839506172839,0,0,0.06172839506172839,0,0)" xlink:href="#au"/><use transform="matrix(0.06172839506172839,0,0,0.06172839506172839,11.11111111111111,0)" xlink:href="#ac"/><use transform="matrix(0.06172839506172839,0,0,0.06172839506172839,23.45679012345679,0)" xlink:href="#at"/><use transform="matrix(0.06172839506172839,0,0,0.06172839506172839,30.80246913580247,0)" xlink:href="#aa"/><use transform="matrix(0.06172839506172839,0,0,0.06172839506172839,43.148148148148145,0)" xlink:href="#ac"/><use transform="matrix(0.06172839506172839,0,0,0.06172839506172839,55.49382716049382,0)" xlink:href="#ar"/></g><g id="v"><use transform="matrix(0.06172839506172839,0,0,0.06172839506172839,0,0)" xlink:href="#Z"/><use transform="matrix(0.06172839506172839,0,0,0.06172839506172839,4.876543209876543,0)" xlink:href="#X"/><use transform="matrix(0.06172839506172839,0,0,0.06172839506172839,23.33333333333333,0)" xlink:href="#ah"/><use transform="matrix(0.06172839506172839,0,0,0.06172839506172839,35.679012345679006,0)" xlink:href="#ar"/><use transform="matrix(0.06172839506172839,0,0,0.06172839506172839,40.55555555555555,0)" xlink:href="#ac"/><use transform="matrix(0.06172839506172839,0,0,0.06172839506172839,52.90123456790123,0)" xlink:href="#X"/><use transform="matrix(0.06172839506172839,0,0,0.06172839506172839,71.35802469135801,0)" xlink:href="#ac"/><use transform="matrix(0.06172839506172839,0,0,0.06172839506172839,83.7037037037037,0)" xlink:href="#aa"/><use transform="matrix(0.06172839506172839,0,0,0.06172839506172839,96.04938271604938,0)" xlink:href="#af"/><use transform="matrix(0.06172839506172839,0,0,0.06172839506172839,102.22222222222221,0)" xlink:href="#Y"/><use transform="matrix(0.06172839506172839,0,0,0.06172839506172839,114.5679012345679,0)" xlink:href="#af"/><use transform="matrix(0.06172839506172839,0,0,0.06172839506172839,120.74074074074073,0)" xlink:href="#Z"/><use transform="matrix(0.06172839506172839,0,0,0.06172839506172839,125.61728395061728,0)" xlink:href="#W"/><use transform="matrix(0.06172839506172839,0,0,0.06172839506172839,137.96296296296296,0)" xlink:href="#aa"/></g><g id="w"><use transform="matrix(0.06172839506172839,0,0,0.06172839506172839,0,0)" xlink:href="#ac"/><use transform="matrix(0.06172839506172839,0,0,0.06172839506172839,12.345679012345679,0)" xlink:href="#ar"/><use transform="matrix(0.06172839506172839,0,0,0.06172839506172839,17.22222222222222,0)" xlink:href="#ac"/><use transform="matrix(0.06172839506172839,0,0,0.06172839506172839,29.5679012345679,0)" xlink:href="#X"/><use transform="matrix(0.06172839506172839,0,0,0.06172839506172839,48.02469135802468,0)" xlink:href="#ac"/><use transform="matrix(0.06172839506172839,0,0,0.06172839506172839,60.37037037037036,0)" xlink:href="#aa"/><use transform="matrix(0.06172839506172839,0,0,0.06172839506172839,72.71604938271604,0)" xlink:href="#af"/><use transform="matrix(0.06172839506172839,0,0,0.06172839506172839,78.88888888888887,0)" xlink:href="#Y"/><use transform="matrix(0.06172839506172839,0,0,0.06172839506172839,91.23456790123456,0)" xlink:href="#ar"/></g><g id="x"><use transform="matrix(0.06172839506172839,0,0,0.06172839506172839,0,0)" xlink:href="#au"/><use transform="matrix(0.06172839506172839,0,0,0.06172839506172839,11.11111111111111,0)" xlink:href="#ac"/><use transform="matrix(0.06172839506172839,0,0,0.06172839506172839,23.45679012345679,0)" xlink:href="#at"/><use transform="matrix(0.06172839506172839,0,0,0.06172839506172839,30.80246913580247,0)" xlink:href="#aa"/><use transform="matrix(0.06172839506172839,0,0,0.06172839506172839,43.148148148148145,0)" xlink:href="#ac"/><use transform="matrix(0.06172839506172839,0,0,0.06172839506172839,55.49382716049382,0)" xlink:href="#ar"/><use transform="matrix(0.06172839506172839,0,0,0.06172839506172839,60.37037037037037,0)" xlink:href="#an"/></g><g id="y"><use transform="matrix(0.06172839506172839,0,0,0.06172839506172839,0,0)" xlink:href="#X"/><use transform="matrix(0.06172839506172839,0,0,0.06172839506172839,18.456790123456788,0)" xlink:href="#ac"/><use transform="matrix(0.06172839506172839,0,0,0.06172839506172839,30.80246913580247,0)" xlink:href="#V"/><use transform="matrix(0.06172839506172839,0,0,0.06172839506172839,43.148148148148145,0)" xlink:href="#Z"/><use transform="matrix(0.06172839506172839,0,0,0.06172839506172839,48.02469135802469,0)" xlink:href="#ad"/><use transform="matrix(0.06172839506172839,0,0,0.06172839506172839,60.37037037037037,0)" xlink:href="#X"/><use transform="matrix(0.06172839506172839,0,0,0.06172839506172839,78.82716049382715,0)" xlink:href="#ae"/><use transform="matrix(0.06172839506172839,0,0,0.06172839506172839,91.17283950617283,0)" xlink:href="#af"/><use transform="matrix(0.06172839506172839,0,0,0.06172839506172839,97.34567901234567,0)" xlink:href="#ag"/><use transform="matrix(0.06172839506172839,0,0,0.06172839506172839,108.45679012345678,0)" xlink:href="#ah"/><use transform="matrix(0.06172839506172839,0,0,0.06172839506172839,120.80246913580247,0)" xlink:href="#ac"/><use transform="matrix(0.06172839506172839,0,0,0.06172839506172839,133.14814814814815,0)" xlink:href="#ai"/></g><g id="z"><use transform="matrix(0.06172839506172839,0,0,0.06172839506172839,0,0)" xlink:href="#aj"/><use transform="matrix(0.06172839506172839,0,0,0.06172839506172839,12.345679012345679,0)" xlink:href="#ah"/><use transform="matrix(0.06172839506172839,0,0,0.06172839506172839,24.691358024691358,0)" xlink:href="#ae"/><use transform="matrix(0.06172839506172839,0,0,0.06172839506172839,37.03703703703704,0)" xlink:href="#af"/><use transform="matrix(0.06172839506172839,0,0,0.06172839506172839,43.20987654320988,0)" xlink:href="#ag"/><use transform="matrix(0.06172839506172839,0,0,0.06172839506172839,54.32098765432099,0)" xlink:href="#ah"/><use transform="matrix(0.06172839506172839,0,0,0.06172839506172839,66.66666666666667,0)" xlink:href="#ac"/><use transform="matrix(0.06172839506172839,0,0,0.06172839506172839,79.01234567901236,0)" xlink:href="#ai"/></g><path fill="#3a414a" d="M33 0v-38h34V0H33" id="ay"/><g id="A"><use transform="matrix(0.06172839506172839,0,0,0.06172839506172839,0,0)" xlink:href="#ah"/><use transform="matrix(0.06172839506172839,0,0,0.06172839506172839,12.345679012345679,0)" xlink:href="#at"/><use transform="matrix(0.06172839506172839,0,0,0.06172839506172839,19.691358024691358,0)" xlink:href="#W"/><use transform="matrix(0.06172839506172839,0,0,0.06172839506172839,32.03703703703704,0)" xlink:href="#ah"/><use transform="matrix(0.06172839506172839,0,0,0.06172839506172839,44.382716049382715,0)" xlink:href="#ac"/><use transform="matrix(0.06172839506172839,0,0,0.06172839506172839,56.72839506172839,0)" xlink:href="#at"/><use transform="matrix(0.06172839506172839,0,0,0.06172839506172839,64.07407407407408,0)" xlink:href="#af"/><use transform="matrix(0.06172839506172839,0,0,0.06172839506172839,70.24691358024691,0)" xlink:href="#Z"/><use transform="matrix(0.06172839506172839,0,0,0.06172839506172839,75.12345679012346,0)" xlink:href="#ac"/><use transform="matrix(0.06172839506172839,0,0,0.06172839506172839,87.46913580246914,0)" xlink:href="#an"/><use transform="matrix(0.06172839506172839,0,0,0.06172839506172839,98.58024691358025,0)" xlink:href="#ay"/><use transform="matrix(0.06172839506172839,0,0,0.06172839506172839,104.75308641975309,0)" xlink:href="#ay"/><use transform="matrix(0.06172839506172839,0,0,0.06172839506172839,110.92592592592592,0)" xlink:href="#ay"/></g><g id="B"><use transform="matrix(0.06172839506172839,0,0,0.06172839506172839,0,0)" xlink:href="#Z"/><use transform="matrix(0.06172839506172839,0,0,0.06172839506172839,4.876543209876543,0)" xlink:href="#aa"/><use transform="matrix(0.06172839506172839,0,0,0.06172839506172839,17.22222222222222,0)" xlink:href="#aq"/><use transform="matrix(0.06172839506172839,0,0,0.06172839506172839,23.39506172839506,0)" xlink:href="#W"/><use transform="matrix(0.06172839506172839,0,0,0.06172839506172839,35.74074074074074,0)" xlink:href="#at"/><use transform="matrix(0.06172839506172839,0,0,0.06172839506172839,43.08641975308642,0)" xlink:href="#X"/><use transform="matrix(0.06172839506172839,0,0,0.06172839506172839,61.5432098765432,0)" xlink:href="#Y"/><use transform="matrix(0.06172839506172839,0,0,0.06172839506172839,73.88888888888889,0)" xlink:href="#af"/><use transform="matrix(0.06172839506172839,0,0,0.06172839506172839,80.06172839506172,0)" xlink:href="#Z"/><use transform="matrix(0.06172839506172839,0,0,0.06172839506172839,84.93827160493827,0)" xlink:href="#W"/><use transform="matrix(0.06172839506172839,0,0,0.06172839506172839,97.28395061728395,0)" xlink:href="#aa"/></g><path fill="#3a414a" d="M115-194c53 0 69 39 70 98 0 66-23 100-70 100C84 3 66-7 56-30L54 0H23l1-261h32v101c10-23 28-34 59-34zm-8 174c40 0 45-34 45-75 0-40-5-75-45-74-42 0-51 32-51 76 0 43 10 73 51 73" id="az"/><g id="C"><use transform="matrix(0.06172839506172839,0,0,0.06172839506172839,0,0)" xlink:href="#Y"/><use transform="matrix(0.06172839506172839,0,0,0.06172839506172839,12.345679012345679,0)" xlink:href="#az"/><use transform="matrix(0.06172839506172839,0,0,0.06172839506172839,24.691358024691358,0)" xlink:href="#W"/><use transform="matrix(0.06172839506172839,0,0,0.06172839506172839,37.03703703703704,0)" xlink:href="#ad"/><use transform="matrix(0.06172839506172839,0,0,0.06172839506172839,49.382716049382715,0)" xlink:href="#af"/></g><g id="D"><use transform="matrix(0.06172839506172839,0,0,0.06172839506172839,0,0)" xlink:href="#ac"/><use transform="matrix(0.06172839506172839,0,0,0.06172839506172839,12.345679012345679,0)" xlink:href="#ar"/><use transform="matrix(0.06172839506172839,0,0,0.06172839506172839,17.22222222222222,0)" xlink:href="#ac"/><use transform="matrix(0.06172839506172839,0,0,0.06172839506172839,29.5679012345679,0)" xlink:href="#X"/><use transform="matrix(0.06172839506172839,0,0,0.06172839506172839,48.02469135802468,0)" xlink:href="#ac"/><use transform="matrix(0.06172839506172839,0,0,0.06172839506172839,60.37037037037036,0)" xlink:href="#aa"/><use transform="matrix(0.06172839506172839,0,0,0.06172839506172839,72.71604938271604,0)" xlink:href="#af"/><use transform="matrix(0.06172839506172839,0,0,0.06172839506172839,78.88888888888887,0)" xlink:href="#an"/></g><g id="E"><use transform="matrix(0.06172839506172839,0,0,0.06172839506172839,0,0)" xlink:href="#ao"/><use transform="matrix(0.06172839506172839,0,0,0.06172839506172839,15.987654320987653,0)" xlink:href="#Z"/><use transform="matrix(0.06172839506172839,0,0,0.06172839506172839,20.864197530864196,0)" xlink:href="#af"/><use transform="matrix(0.06172839506172839,0,0,0.06172839506172839,27.037037037037035,0)" xlink:href="#am"/></g><g id="F"><use transform="matrix(0.06172839506172839,0,0,0.06172839506172839,0,0)" xlink:href="#af"/><use transform="matrix(0.06172839506172839,0,0,0.06172839506172839,6.172839506172839,0)" xlink:href="#am"/><use transform="matrix(0.06172839506172839,0,0,0.06172839506172839,18.51851851851852,0)" xlink:href="#ac"/><use transform="matrix(0.06172839506172839,0,0,0.06172839506172839,30.864197530864196,0)" xlink:href="#an"/><use transform="matrix(0.06172839506172839,0,0,0.06172839506172839,41.9753086419753,0)" xlink:href="#ac"/></g><g id="G"><use transform="matrix(0.06172839506172839,0,0,0.06172839506172839,0,0)" xlink:href="#ah"/><use transform="matrix(0.06172839506172839,0,0,0.06172839506172839,12.345679012345679,0)" xlink:href="#at"/><use transform="matrix(0.06172839506172839,0,0,0.06172839506172839,19.691358024691358,0)" xlink:href="#W"/><use transform="matrix(0.06172839506172839,0,0,0.06172839506172839,32.03703703703704,0)" xlink:href="#ah"/><use transform="matrix(0.06172839506172839,0,0,0.06172839506172839,44.382716049382715,0)" xlink:href="#ac"/><use transform="matrix(0.06172839506172839,0,0,0.06172839506172839,56.72839506172839,0)" xlink:href="#at"/><use transform="matrix(0.06172839506172839,0,0,0.06172839506172839,64.07407407407408,0)" xlink:href="#af"/><use transform="matrix(0.06172839506172839,0,0,0.06172839506172839,70.24691358024691,0)" xlink:href="#Z"/><use transform="matrix(0.06172839506172839,0,0,0.06172839506172839,75.12345679012346,0)" xlink:href="#ac"/><use transform="matrix(0.06172839506172839,0,0,0.06172839506172839,87.46913580246914,0)" xlink:href="#an"/></g><g id="H"><use transform="matrix(0.06172839506172839,0,0,0.06172839506172839,0,0)" xlink:href="#an"/><use transform="matrix(0.06172839506172839,0,0,0.06172839506172839,11.11111111111111,0)" xlink:href="#W"/><use transform="matrix(0.06172839506172839,0,0,0.06172839506172839,23.45679012345679,0)" xlink:href="#ad"/><use transform="matrix(0.06172839506172839,0,0,0.06172839506172839,35.80246913580247,0)" xlink:href="#at"/><use transform="matrix(0.06172839506172839,0,0,0.06172839506172839,43.148148148148145,0)" xlink:href="#aw"/><use transform="matrix(0.06172839506172839,0,0,0.06172839506172839,54.25925925925925,0)" xlink:href="#ac"/></g><g id="I"><use transform="matrix(0.06172839506172839,0,0,0.06172839506172839,0,0)" xlink:href="#at"/><use transform="matrix(0.06172839506172839,0,0,0.06172839506172839,7.345679012345679,0)" xlink:href="#ac"/><use transform="matrix(0.06172839506172839,0,0,0.06172839506172839,19.691358024691358,0)" xlink:href="#aw"/><use transform="matrix(0.06172839506172839,0,0,0.06172839506172839,30.80246913580247,0)" xlink:href="#ac"/><use transform="matrix(0.06172839506172839,0,0,0.06172839506172839,43.148148148148145,0)" xlink:href="#ap"/><use transform="matrix(0.06172839506172839,0,0,0.06172839506172839,54.25925925925925,0)" xlink:href="#ac"/><use transform="matrix(0.06172839506172839,0,0,0.06172839506172839,66.60493827160494,0)" xlink:href="#at"/></g><path fill="#3a414a" d="M30 0v-248h187v28H63v79h144v27H63v87h162V0H30" id="aA"/><g id="J"><use transform="matrix(0.06172839506172839,0,0,0.06172839506172839,0,0)" xlink:href="#aA"/><use transform="matrix(0.06172839506172839,0,0,0.06172839506172839,14.814814814814813,0)" xlink:href="#ar"/><use transform="matrix(0.06172839506172839,0,0,0.06172839506172839,19.691358024691354,0)" xlink:href="#ac"/><use transform="matrix(0.06172839506172839,0,0,0.06172839506172839,32.03703703703703,0)" xlink:href="#X"/><use transform="matrix(0.06172839506172839,0,0,0.06172839506172839,50.49382716049382,0)" xlink:href="#ac"/><use transform="matrix(0.06172839506172839,0,0,0.06172839506172839,62.8395061728395,0)" xlink:href="#aa"/><use transform="matrix(0.06172839506172839,0,0,0.06172839506172839,75.18518518518518,0)" xlink:href="#af"/></g><g id="K"><use transform="matrix(0.06172839506172839,0,0,0.06172839506172839,0,0)" xlink:href="#aj"/><use transform="matrix(0.06172839506172839,0,0,0.06172839506172839,12.345679012345679,0)" xlink:href="#ah"/><use transform="matrix(0.06172839506172839,0,0,0.06172839506172839,24.691358024691358,0)" xlink:href="#ae"/><use transform="matrix(0.06172839506172839,0,0,0.06172839506172839,37.03703703703704,0)" xlink:href="#af"/><use transform="matrix(0.06172839506172839,0,0,0.06172839506172839,43.20987654320988,0)" xlink:href="#ag"/><use transform="matrix(0.06172839506172839,0,0,0.06172839506172839,54.32098765432099,0)" xlink:href="#ah"/><use transform="matrix(0.06172839506172839,0,0,0.06172839506172839,66.66666666666667,0)" xlink:href="#ac"/><use transform="matrix(0.06172839506172839,0,0,0.06172839506172839,79.01234567901236,0)" xlink:href="#ai"/></g><g id="L"><use transform="matrix(0.06172839506172839,0,0,0.06172839506172839,0,0)" xlink:href="#aw"/><use transform="matrix(0.06172839506172839,0,0,0.06172839506172839,11.11111111111111,0)" xlink:href="#W"/><use transform="matrix(0.06172839506172839,0,0,0.06172839506172839,23.45679012345679,0)" xlink:href="#X"/><use transform="matrix(0.06172839506172839,0,0,0.06172839506172839,41.91358024691358,0)" xlink:href="#ah"/><use transform="matrix(0.06172839506172839,0,0,0.06172839506172839,54.25925925925926,0)" xlink:href="#ad"/><use transform="matrix(0.06172839506172839,0,0,0.06172839506172839,66.60493827160494,0)" xlink:href="#af"/><use transform="matrix(0.06172839506172839,0,0,0.06172839506172839,72.77777777777777,0)" xlink:href="#ac"/></g><g id="M"><use transform="matrix(0.06172839506172839,0,0,0.06172839506172839,0,0)" xlink:href="#aw"/><use transform="matrix(0.06172839506172839,0,0,0.06172839506172839,11.11111111111111,0)" xlink:href="#W"/><use transform="matrix(0.06172839506172839,0,0,0.06172839506172839,23.45679012345679,0)" xlink:href="#aa"/><use transform="matrix(0.06172839506172839,0,0,0.06172839506172839,35.80246913580247,0)" xlink:href="#af"/><use transform="matrix(0.06172839506172839,0,0,0.06172839506172839,41.97530864197531,0)" xlink:href="#at"/><use transform="matrix(0.06172839506172839,0,0,0.06172839506172839,49.32098765432099,0)" xlink:href="#Z"/><use transform="matrix(0.06172839506172839,0,0,0.06172839506172839,54.19753086419753,0)" xlink:href="#az"/><use transform="matrix(0.06172839506172839,0,0,0.06172839506172839,66.54320987654322,0)" xlink:href="#ad"/><use transform="matrix(0.06172839506172839,0,0,0.06172839506172839,78.8888888888889,0)" xlink:href="#af"/><use transform="matrix(0.06172839506172839,0,0,0.06172839506172839,85.06172839506173,0)" xlink:href="#Z"/><use transform="matrix(0.06172839506172839,0,0,0.06172839506172839,89.93827160493828,0)" xlink:href="#W"/><use transform="matrix(0.06172839506172839,0,0,0.06172839506172839,102.28395061728396,0)" xlink:href="#aa"/><use transform="matrix(0.06172839506172839,0,0,0.06172839506172839,114.62962962962965,0)" xlink:href="#an"/></g><g id="N"><use transform="matrix(0.06172839506172839,0,0,0.06172839506172839,0,0)" xlink:href="#ao"/><use transform="matrix(0.06172839506172839,0,0,0.06172839506172839,15.987654320987653,0)" xlink:href="#Y"/><use transform="matrix(0.06172839506172839,0,0,0.06172839506172839,28.333333333333332,0)" xlink:href="#ap"/><use transform="matrix(0.06172839506172839,0,0,0.06172839506172839,39.44444444444444,0)" xlink:href="#ac"/><use transform="matrix(0.06172839506172839,0,0,0.06172839506172839,51.79012345679012,0)" xlink:href="#aq"/><use transform="matrix(0.06172839506172839,0,0,0.06172839506172839,57.96296296296296,0)" xlink:href="#Z"/><use transform="matrix(0.06172839506172839,0,0,0.06172839506172839,62.839506172839506,0)" xlink:href="#ac"/><use transform="matrix(0.06172839506172839,0,0,0.06172839506172839,75.18518518518519,0)" xlink:href="#ar"/><use transform="matrix(0.06172839506172839,0,0,0.06172839506172839,80.06172839506173,0)" xlink:href="#V"/></g><path fill="#3a414a" d="M185-189c-5-48-123-54-124 2 14 75 158 14 163 119 3 78-121 87-175 55-17-10-28-26-33-46l33-7c5 56 141 63 141-1 0-78-155-14-162-118-5-82 145-84 179-34 5 7 8 16 11 25" id="aB"/><g id="O"><use transform="matrix(0.06172839506172839,0,0,0.06172839506172839,0,0)" xlink:href="#aB"/><use transform="matrix(0.06172839506172839,0,0,0.06172839506172839,14.814814814814813,0)" xlink:href="#W"/><use transform="matrix(0.06172839506172839,0,0,0.06172839506172839,27.160493827160494,0)" xlink:href="#ad"/><use transform="matrix(0.06172839506172839,0,0,0.06172839506172839,39.50617283950617,0)" xlink:href="#at"/><use transform="matrix(0.06172839506172839,0,0,0.06172839506172839,46.85185185185185,0)" xlink:href="#aw"/><use transform="matrix(0.06172839506172839,0,0,0.06172839506172839,57.96296296296296,0)" xlink:href="#ac"/></g><g id="P"><use transform="matrix(0.06172839506172839,0,0,0.06172839506172839,0,0)" xlink:href="#at"/><use transform="matrix(0.06172839506172839,0,0,0.06172839506172839,7.345679012345679,0)" xlink:href="#ac"/><use transform="matrix(0.06172839506172839,0,0,0.06172839506172839,19.691358024691358,0)" xlink:href="#aw"/><use transform="matrix(0.06172839506172839,0,0,0.06172839506172839,30.80246913580247,0)" xlink:href="#ac"/><use transform="matrix(0.06172839506172839,0,0,0.06172839506172839,43.148148148148145,0)" xlink:href="#Z"/><use transform="matrix(0.06172839506172839,0,0,0.06172839506172839,48.02469135802469,0)" xlink:href="#ap"/><use transform="matrix(0.06172839506172839,0,0,0.06172839506172839,59.1358024691358,0)" xlink:href="#ac"/><use transform="matrix(0.06172839506172839,0,0,0.06172839506172839,71.48148148148148,0)" xlink:href="#at"/></g><path fill="#3a414a" d="M177-190C167-65 218 103 67 71c-23-6-38-20-44-43l32-5c15 47 100 32 89-28v-30C133-14 115 1 83 1 29 1 15-40 15-95c0-56 16-97 71-98 29-1 48 16 59 35 1-10 0-23 2-32h30zM94-22c36 0 50-32 50-73 0-42-14-75-50-75-39 0-46 34-46 75s6 73 46 73" id="aC"/><g id="Q"><use transform="matrix(0.06172839506172839,0,0,0.06172839506172839,0,0)" xlink:href="#an"/><use transform="matrix(0.06172839506172839,0,0,0.06172839506172839,11.11111111111111,0)" xlink:href="#ac"/><use transform="matrix(0.06172839506172839,0,0,0.06172839506172839,23.45679012345679,0)" xlink:href="#Z"/><use transform="matrix(0.06172839506172839,0,0,0.06172839506172839,28.333333333333336,0)" xlink:href="#an"/><use transform="matrix(0.06172839506172839,0,0,0.06172839506172839,39.44444444444444,0)" xlink:href="#X"/><use transform="matrix(0.06172839506172839,0,0,0.06172839506172839,57.90123456790123,0)" xlink:href="#W"/><use transform="matrix(0.06172839506172839,0,0,0.06172839506172839,70.24691358024691,0)" xlink:href="#aC"/><use transform="matrix(0.06172839506172839,0,0,0.06172839506172839,82.5925925925926,0)" xlink:href="#at"/><use transform="matrix(0.06172839506172839,0,0,0.06172839506172839,89.93827160493828,0)" xlink:href="#Y"/><use transform="matrix(0.06172839506172839,0,0,0.06172839506172839,102.28395061728396,0)" xlink:href="#X"/></g><path fill="#333" d="M23 0v-37h61v-169l-59 37v-38l62-41h46v211h57V0H23" id="aD"/><use transform="matrix(0.04938271604938272,0,0,0.04938271604938272,0,0)" xlink:href="#aD" id="R"/><path fill="#333" d="M24 0v-54h51V0H24" id="aE"/><path fill="#333" d="M86-200l42-18 12 35-44 11 32 37-32 21-26-44-26 44-32-21 33-37-44-11 12-35 42 18-3-48h38" id="aF"/><g id="S"><use transform="matrix(0.04938271604938272,0,0,0.04938271604938272,0,0)" xlink:href="#aD"/><use transform="matrix(0.04938271604938272,0,0,0.04938271604938272,9.876543209876544,0)" xlink:href="#aE"/><use transform="matrix(0.04938271604938272,0,0,0.04938271604938272,14.814814814814817,0)" xlink:href="#aE"/><use transform="matrix(0.04938271604938272,0,0,0.04938271604938272,19.75308641975309,0)" xlink:href="#aF"/></g><path fill="#3a414a" d="M496-1349c439 0 656 222 653 664C1146-265 969 0 556 0H135v-1349h361zm36 1121c245-7 319-187 320-457 1-273-91-439-361-436h-61v893h102" id="aG"/><path fill="#3a414a" d="M616-1102c361 0 521 202 521 560 0 354-171 562-527 562C259 20 92-192 92-542c0-351 169-560 524-560zm-9 930c200-2 236-165 236-370 0-199-27-367-223-367-195 0-233 146-233 367 0 129 18 223 55 282s92 88 165 88" id="aH"/><path fill="#3a414a" d="M934-1102c199 0 220 177 220 381V0H926c-2-260 10-533-4-785-4-72-14-138-83-138-34 0-61 27-81 81s-29 134-29 241V0H501c-2-260 9-533-5-785-4-72-13-138-82-138-46 0-65 47-80 93-21 67-30 155-30 248V0H75c-3-360 6-732-6-1082h209c6 50 3 123 8 175 36-100 83-195 216-195 135 0 166 79 196 196 42-105 93-196 236-196" id="aI"/><path fill="#3a414a" d="M775-193C708-75 621 20 439 20 226 20 106-93 106-306c0-251 170-341 417-346l223-4c4-143-12-264-148-264-103 0-141 58-150 153l-293-14c37-219 194-321 455-321 263 0 418 130 417 390v392c1 84 5 161 89 160 21 0 42-2 62-6v152c-57 15-108 27-180 26-145 0-202-73-217-205h-6zm-256 17c168 0 234-139 227-325-166 4-347-25-347 173 0 94 33 152 120 152" id="aJ"/><path fill="#3a414a" d="M794-190h353V0H118v-190h395v-702H223v-190h571v892zM513-1277v-207h281v207H513" id="aK"/><path fill="#3a414a" d="M768-1103c247 0 336 167 336 416V0H824v-619c-3-164-24-273-171-273-164 0-229 142-229 312V0H143c-4-359 9-736-8-1082h268c7 63 12 146 13 215h4c67-145 160-236 348-236" id="aL"/><g id="T"><use transform="matrix(0.017361111111111105,0,0,0.017361111111111105,0,0)" xlink:href="#aG"/><use transform="matrix(0.017361111111111105,0,0,0.017361111111111105,21.336805555555546,0)" xlink:href="#aH"/><use transform="matrix(0.017361111111111105,0,0,0.017361111111111105,42.67361111111109,0)" xlink:href="#aI"/><use transform="matrix(0.017361111111111105,0,0,0.017361111111111105,64.01041666666664,0)" xlink:href="#aJ"/><use transform="matrix(0.017361111111111105,0,0,0.017361111111111105,85.34722222222219,0)" xlink:href="#aK"/><use transform="matrix(0.017361111111111105,0,0,0.017361111111111105,106.68402777777773,0)" xlink:href="#aL"/></g><path fill="#3a414a" d="M865-312c-44-312-23-686-28-1037h257V0H748L364-1010c44 304 24 668 28 1010H135v-1349h337" id="aM"/><path fill="#3a414a" d="M1113-274C1038-96 884 20 626 20c-352 0-526-209-526-566 0-358 185-556 530-556 358 0 496 251 499 615H395c5 180 68 319 245 319 102 0 186-45 208-129zM857-663c-6-177-128-307-315-247-94 30-141 121-145 247h460" id="aN"/><path fill="#3a414a" d="M622-916c-112 2-200 14-200 111 0 90 89 101 168 121 234 58 514 77 514 368C1104-4 751 54 434 5 267-21 161-112 121-270l247-37c24 111 113 145 252 141 114-3 226-12 226-124 0-101-103-113-192-134-225-54-490-76-490-351 0-247 201-328 458-328 245 0 413 88 457 292l-249 26c-16-98-92-133-208-131" id="aO"/><path fill="#3a414a" d="M427-171c3 195 2 397 2 596H148V-846c1-83-4-168-8-236h272c10 49 14 118 15 176h4c59-114 151-197 316-197 291 0 385 259 385 560 0 243-65 433-220 521-50 28-109 42-176 42-162-2-253-78-309-191zm69-661c-91 113-92 463-1 586 46 62 145 101 225 54 96-57 118-191 119-351 0-123-18-215-53-276-46-82-128-115-220-74-25 12-48 33-70 61" id="aP"/><path fill="#3a414a" d="M1109-360C1066-122 902 20 624 20c-347 0-514-209-514-555 0-353 168-567 518-567 270 0 425 136 473 361l-283 14c-16-106-75-183-196-182-75 0-130 31-165 93s-52 152-52 270c0 249 74 374 221 374 120 0 188-82 201-201" id="aQ"/><g id="U"><use transform="matrix(0.017361111111111105,0,0,0.017361111111111105,0,0)" xlink:href="#aM"/><use transform="matrix(0.017361111111111105,0,0,0.017361111111111105,21.336805555555546,0)" xlink:href="#aJ"/><use transform="matrix(0.017361111111111105,0,0,0.017361111111111105,42.67361111111109,0)" xlink:href="#aI"/><use transform="matrix(0.017361111111111105,0,0,0.017361111111111105,64.01041666666664,0)" xlink:href="#aN"/><use transform="matrix(0.017361111111111105,0,0,0.017361111111111105,85.34722222222219,0)" xlink:href="#aO"/><use transform="matrix(0.017361111111111105,0,0,0.017361111111111105,106.68402777777773,0)" xlink:href="#aP"/><use transform="matrix(0.017361111111111105,0,0,0.017361111111111105,128.0208333333333,0)" xlink:href="#aJ"/><use transform="matrix(0.017361111111111105,0,0,0.017361111111111105,149.35763888888883,0)" xlink:href="#aQ"/><use transform="matrix(0.017361111111111105,0,0,0.017361111111111105,170.69444444444437,0)" xlink:href="#aN"/></g></defs></g></svg>
