<?xml version="1.0" encoding="utf-8" standalone="no"?>
<!DOCTYPE svg PUBLIC "-//W3C//DTD SVG 1.1//EN"
  "http://www.w3.org/Graphics/SVG/1.1/DTD/svg11.dtd">
<svg xmlns:xlink="http://www.w3.org/1999/xlink" width="720pt" height="576pt" viewBox="0 0 720 576" xmlns="http://www.w3.org/2000/svg" version="1.1">
 <metadata>
  <rdf:RDF xmlns:dc="http://purl.org/dc/elements/1.1/" xmlns:cc="http://creativecommons.org/ns#" xmlns:rdf="http://www.w3.org/1999/02/22-rdf-syntax-ns#">
   <cc:Work>
    <dc:type rdf:resource="http://purl.org/dc/dcmitype/StillImage"/>
    <dc:date>2025-02-03T13:10:15.590650</dc:date>
    <dc:format>image/svg+xml</dc:format>
    <dc:creator>
     <cc:Agent>
      <dc:title>Matplotlib v3.10.0, https://matplotlib.org/</dc:title>
     </cc:Agent>
    </dc:creator>
   </cc:Work>
  </rdf:RDF>
 </metadata>
 <defs>
  <style type="text/css">*{stroke-linejoin: round; stroke-linecap: butt}</style>
 </defs>
 <g id="figure_1">
  <g id="patch_1">
   <path d="M 0 576
L 720 576
L 720 0
L 0 0
z
" style="fill: #ffffff"/>
  </g>
  <g id="axes_1">
   <g id="patch_2">
    <path d="M 57.6 127.2
L 691.2 127.2
L 691.2 43.2
L 57.6 43.2
z
" style="fill: #ffffff"/>
   </g>
   <g id="matplotlib.axis_1">
    <g id="xtick_1">
     <g id="line2d_1">
      <defs>
       <path id="md575176abd" d="M 0 0
L 0 3.5
" style="stroke: #000000; stroke-width: 0.8"/>
      </defs>
      <g>
       <use xlink:href="#md575176abd" x="100.827017" y="127.2" style="stroke: #000000; stroke-width: 0.8"/>
      </g>
     </g>
    </g>
    <g id="xtick_2">
     <g id="line2d_2">
      <g>
       <use xlink:href="#md575176abd" x="280.939587" y="127.2" style="stroke: #000000; stroke-width: 0.8"/>
      </g>
     </g>
    </g>
    <g id="xtick_3">
     <g id="line2d_3">
      <g>
       <use xlink:href="#md575176abd" x="461.052158" y="127.2" style="stroke: #000000; stroke-width: 0.8"/>
      </g>
     </g>
    </g>
    <g id="xtick_4">
     <g id="line2d_4">
      <g>
       <use xlink:href="#md575176abd" x="641.164728" y="127.2" style="stroke: #000000; stroke-width: 0.8"/>
      </g>
     </g>
    </g>
   </g>
   <g id="matplotlib.axis_2">
    <g id="ytick_1">
     <g id="line2d_5">
      <defs>
       <path id="m29282547e4" d="M 0 0
L -3.5 0
" style="stroke: #000000; stroke-width: 0.8"/>
      </defs>
      <g>
       <use xlink:href="#m29282547e4" x="57.6" y="123.261205" style="stroke: #000000; stroke-width: 0.8"/>
      </g>
     </g>
     <g id="text_1">
      <!-- −1.6 -->
      <g transform="translate(30.372417 126.425954) scale(0.0833 -0.0833)">
       <defs>
        <path id="DejaVuSans-2212" d="M 678 2272
L 4684 2272
L 4684 1741
L 678 1741
L 678 2272
z
" transform="scale(0.015625)"/>
        <path id="DejaVuSans-31" d="M 794 531
L 1825 531
L 1825 4091
L 703 3866
L 703 4441
L 1819 4666
L 2450 4666
L 2450 531
L 3481 531
L 3481 0
L 794 0
L 794 531
z
" transform="scale(0.015625)"/>
        <path id="DejaVuSans-2e" d="M 684 794
L 1344 794
L 1344 0
L 684 0
L 684 794
z
" transform="scale(0.015625)"/>
        <path id="DejaVuSans-36" d="M 2113 2584
Q 1688 2584 1439 2293
Q 1191 2003 1191 1497
Q 1191 994 1439 701
Q 1688 409 2113 409
Q 2538 409 2786 701
Q 3034 994 3034 1497
Q 3034 2003 2786 2293
Q 2538 2584 2113 2584
z
M 3366 4563
L 3366 3988
Q 3128 4100 2886 4159
Q 2644 4219 2406 4219
Q 1781 4219 1451 3797
Q 1122 3375 1075 2522
Q 1259 2794 1537 2939
Q 1816 3084 2150 3084
Q 2853 3084 3261 2657
Q 3669 2231 3669 1497
Q 3669 778 3244 343
Q 2819 -91 2113 -91
Q 1303 -91 875 529
Q 447 1150 447 2328
Q 447 3434 972 4092
Q 1497 4750 2381 4750
Q 2619 4750 2861 4703
Q 3103 4656 3366 4563
z
" transform="scale(0.015625)"/>
       </defs>
       <use xlink:href="#DejaVuSans-2212"/>
       <use xlink:href="#DejaVuSans-31" transform="translate(83.789062 0)"/>
       <use xlink:href="#DejaVuSans-2e" transform="translate(147.412109 0)"/>
       <use xlink:href="#DejaVuSans-36" transform="translate(179.199219 0)"/>
      </g>
     </g>
    </g>
    <g id="ytick_2">
     <g id="line2d_6">
      <g>
       <use xlink:href="#m29282547e4" x="57.6" y="108.803467" style="stroke: #000000; stroke-width: 0.8"/>
      </g>
     </g>
     <g id="text_2">
      <!-- −0.8 -->
      <g transform="translate(30.372417 111.968216) scale(0.0833 -0.0833)">
       <defs>
        <path id="DejaVuSans-30" d="M 2034 4250
Q 1547 4250 1301 3770
Q 1056 3291 1056 2328
Q 1056 1369 1301 889
Q 1547 409 2034 409
Q 2525 409 2770 889
Q 3016 1369 3016 2328
Q 3016 3291 2770 3770
Q 2525 4250 2034 4250
z
M 2034 4750
Q 2819 4750 3233 4129
Q 3647 3509 3647 2328
Q 3647 1150 3233 529
Q 2819 -91 2034 -91
Q 1250 -91 836 529
Q 422 1150 422 2328
Q 422 3509 836 4129
Q 1250 4750 2034 4750
z
" transform="scale(0.015625)"/>
        <path id="DejaVuSans-38" d="M 2034 2216
Q 1584 2216 1326 1975
Q 1069 1734 1069 1313
Q 1069 891 1326 650
Q 1584 409 2034 409
Q 2484 409 2743 651
Q 3003 894 3003 1313
Q 3003 1734 2745 1975
Q 2488 2216 2034 2216
z
M 1403 2484
Q 997 2584 770 2862
Q 544 3141 544 3541
Q 544 4100 942 4425
Q 1341 4750 2034 4750
Q 2731 4750 3128 4425
Q 3525 4100 3525 3541
Q 3525 3141 3298 2862
Q 3072 2584 2669 2484
Q 3125 2378 3379 2068
Q 3634 1759 3634 1313
Q 3634 634 3220 271
Q 2806 -91 2034 -91
Q 1263 -91 848 271
Q 434 634 434 1313
Q 434 1759 690 2068
Q 947 2378 1403 2484
z
M 1172 3481
Q 1172 3119 1398 2916
Q 1625 2713 2034 2713
Q 2441 2713 2670 2916
Q 2900 3119 2900 3481
Q 2900 3844 2670 4047
Q 2441 4250 2034 4250
Q 1625 4250 1398 4047
Q 1172 3844 1172 3481
z
" transform="scale(0.015625)"/>
       </defs>
       <use xlink:href="#DejaVuSans-2212"/>
       <use xlink:href="#DejaVuSans-30" transform="translate(83.789062 0)"/>
       <use xlink:href="#DejaVuSans-2e" transform="translate(147.412109 0)"/>
       <use xlink:href="#DejaVuSans-38" transform="translate(179.199219 0)"/>
      </g>
     </g>
    </g>
    <g id="ytick_3">
     <g id="line2d_7">
      <g>
       <use xlink:href="#m29282547e4" x="57.6" y="94.34573" style="stroke: #000000; stroke-width: 0.8"/>
      </g>
     </g>
     <g id="text_3">
      <!-- 0.0 -->
      <g transform="translate(37.352697 97.510479) scale(0.0833 -0.0833)">
       <use xlink:href="#DejaVuSans-30"/>
       <use xlink:href="#DejaVuSans-2e" transform="translate(63.623047 0)"/>
       <use xlink:href="#DejaVuSans-30" transform="translate(95.410156 0)"/>
      </g>
     </g>
    </g>
    <g id="ytick_4">
     <g id="line2d_8">
      <g>
       <use xlink:href="#m29282547e4" x="57.6" y="79.887992" style="stroke: #000000; stroke-width: 0.8"/>
      </g>
     </g>
     <g id="text_4">
      <!-- 0.8 -->
      <g transform="translate(37.352697 83.052742) scale(0.0833 -0.0833)">
       <use xlink:href="#DejaVuSans-30"/>
       <use xlink:href="#DejaVuSans-2e" transform="translate(63.623047 0)"/>
       <use xlink:href="#DejaVuSans-38" transform="translate(95.410156 0)"/>
      </g>
     </g>
    </g>
    <g id="ytick_5">
     <g id="line2d_9">
      <g>
       <use xlink:href="#m29282547e4" x="57.6" y="65.430255" style="stroke: #000000; stroke-width: 0.8"/>
      </g>
     </g>
     <g id="text_5">
      <!-- 1.6 -->
      <g transform="translate(37.352697 68.595004) scale(0.0833 -0.0833)">
       <use xlink:href="#DejaVuSans-31"/>
       <use xlink:href="#DejaVuSans-2e" transform="translate(63.623047 0)"/>
       <use xlink:href="#DejaVuSans-36" transform="translate(95.410156 0)"/>
      </g>
     </g>
    </g>
    <g id="ytick_6">
     <g id="line2d_10">
      <g>
       <use xlink:href="#m29282547e4" x="57.6" y="50.972518" style="stroke: #000000; stroke-width: 0.8"/>
      </g>
     </g>
     <g id="text_6">
      <!-- 2.4 -->
      <g transform="translate(37.352697 54.137267) scale(0.0833 -0.0833)">
       <defs>
        <path id="DejaVuSans-32" d="M 1228 531
L 3431 531
L 3431 0
L 469 0
L 469 531
Q 828 903 1448 1529
Q 2069 2156 2228 2338
Q 2531 2678 2651 2914
Q 2772 3150 2772 3378
Q 2772 3750 2511 3984
Q 2250 4219 1831 4219
Q 1534 4219 1204 4116
Q 875 4013 500 3803
L 500 4441
Q 881 4594 1212 4672
Q 1544 4750 1819 4750
Q 2544 4750 2975 4387
Q 3406 4025 3406 3419
Q 3406 3131 3298 2873
Q 3191 2616 2906 2266
Q 2828 2175 2409 1742
Q 1991 1309 1228 531
z
" transform="scale(0.015625)"/>
        <path id="DejaVuSans-34" d="M 2419 4116
L 825 1625
L 2419 1625
L 2419 4116
z
M 2253 4666
L 3047 4666
L 3047 1625
L 3713 1625
L 3713 1100
L 3047 1100
L 3047 0
L 2419 0
L 2419 1100
L 313 1100
L 313 1709
L 2253 4666
z
" transform="scale(0.015625)"/>
       </defs>
       <use xlink:href="#DejaVuSans-32"/>
       <use xlink:href="#DejaVuSans-2e" transform="translate(63.623047 0)"/>
       <use xlink:href="#DejaVuSans-34" transform="translate(95.410156 0)"/>
      </g>
     </g>
    </g>
   </g>
   <g id="line2d_11">
    <path d="M 57.6 94.34573
L 136.453283 94.251326
L 139.227017 94.038569
L 141.208255 93.693471
L 142.793246 93.217529
L 144.378236 92.489071
L 145.963227 91.445864
L 147.548218 90.057429
L 149.133208 88.361797
L 152.303189 84.785294
L 153.491932 83.83123
L 154.284428 83.475239
L 155.076923 83.421859
L 155.869418 83.736235
L 156.661914 84.475286
L 157.454409 85.68302
L 158.246904 87.385441
L 159.0394 89.585496
L 160.228143 93.756909
L 161.813133 100.580027
L 164.586867 113.226414
L 165.77561 117.535453
L 166.568105 119.641836
L 167.3606 120.987617
L 167.756848 121.345916
L 168.153096 121.483987
L 168.549343 121.397548
L 168.945591 121.085098
L 169.341839 120.548047
L 170.134334 118.820312
L 170.926829 116.28372
L 171.719325 113.050373
L 172.908068 107.222604
L 176.474296 88.438553
L 177.663039 83.654509
L 178.455535 81.223202
L 179.24803 79.455149
L 180.040525 78.357209
L 180.436773 78.052364
L 180.833021 77.902502
L 181.229268 77.899719
L 181.625516 78.034763
L 182.418011 78.675991
L 183.210507 79.73367
L 184.39925 81.882081
L 186.776735 87.025338
L 188.361726 90.275595
L 189.946717 92.996071
L 191.13546 94.65022
L 192.72045 96.443105
L 197.079174 100.977722
L 198.267917 102.623498
L 199.852908 105.243235
L 203.815385 112.297826
L 204.60788 113.210673
L 205.400375 113.709646
L 205.796623 113.766375
L 206.192871 113.675038
L 206.589118 113.421485
L 206.985366 112.992344
L 207.777861 111.559968
L 208.570356 109.301446
L 209.362852 106.174176
L 210.155347 102.176434
L 211.34409 94.669149
L 212.929081 82.518903
L 215.702814 60.421571
L 216.891557 53.110275
L 217.684053 49.649725
L 218.0803 48.427251
L 218.476548 47.571732
L 218.872795 47.098603
L 219.269043 47.018326
L 219.665291 47.336523
L 220.061538 48.053952
L 220.457786 49.166114
L 221.250281 52.529489
L 222.042777 57.284187
L 223.23152 66.541549
L 224.81651 81.312278
L 226.797749 99.959895
L 227.986492 109.414191
L 228.778987 114.5144
L 229.571482 118.491109
L 230.363977 121.283567
L 230.760225 122.233802
L 231.156473 122.893219
L 231.55272 123.271506
L 231.948968 123.381674
L 232.345216 123.239265
L 232.741463 122.861882
L 233.533959 121.480084
L 234.326454 119.407043
L 235.515197 115.404274
L 239.477674 100.828794
L 240.666417 97.519774
L 241.855159 94.984109
L 242.647655 93.718748
L 243.44015 92.764629
L 244.232645 92.089656
L 245.025141 91.654886
L 245.817636 91.416706
L 247.006379 91.344515
L 248.195122 91.50393
L 250.17636 92.024947
L 254.138837 93.106952
L 256.91257 93.599061
L 260.082552 93.931788
L 264.837523 94.178251
L 271.969981 94.265442
L 310.802251 94.354339
L 339.332083 94.336802
L 355.578236 94.332759
L 393.221764 94.34504
L 429.676548 94.345052
L 474.84878 94.468012
L 479.603752 94.757933
L 484.754972 95.110698
L 486.73621 95.046551
L 488.717448 94.762145
L 490.698687 94.24673
L 496.642402 92.412663
L 498.227392 92.28224
L 499.812383 92.431214
L 501.397373 92.84975
L 503.378612 93.642208
L 506.944841 95.14896
L 508.529831 95.591731
L 510.114822 95.812576
L 511.699812 95.815494
L 513.681051 95.583546
L 522.398499 94.193724
L 525.56848 94.100478
L 532.700938 94.214432
L 545.380863 94.333126
L 553.702064 94.26726
L 558.060788 94.030038
L 561.230769 93.643759
L 567.966979 92.660011
L 569.55197 92.717009
L 571.136961 93.023086
L 572.721951 93.611366
L 574.306942 94.467622
L 576.684428 96.062193
L 579.061914 97.586144
L 580.250657 98.142731
L 581.4394 98.481487
L 582.628143 98.566794
L 583.816886 98.387712
L 585.005629 97.962279
L 586.590619 97.083792
L 588.968105 95.409282
L 591.345591 93.79523
L 592.930582 92.971699
L 594.515572 92.429949
L 596.100563 92.174803
L 597.685553 92.170171
L 599.666792 92.411371
L 606.403002 93.477451
L 608.38424 93.484747
L 610.365478 93.267106
L 612.346717 92.838269
L 617.101689 91.661457
L 618.290432 91.611887
L 619.479174 91.778824
L 620.667917 92.212577
L 621.85666 92.93402
L 623.045403 93.937208
L 624.630394 95.620297
L 628.196623 99.614594
L 629.385366 100.515484
L 630.177861 100.882752
L 630.970356 101.031645
L 631.762852 100.950546
L 632.555347 100.635232
L 633.347842 100.095785
L 634.536585 98.924271
L 636.121576 96.880046
L 639.291557 92.616658
L 640.4803 91.426532
L 641.669043 90.618455
L 642.461538 90.302726
L 643.254034 90.163686
L 644.442777 90.249802
L 645.63152 90.61747
L 647.21651 91.383151
L 651.178987 93.425957
L 653.160225 94.103477
L 655.141463 94.532427
L 658.311445 94.947635
L 662.670169 95.309764
L 665.047655 95.315764
L 667.425141 95.103857
L 674.953846 94.114163
L 676.935084 94.24654
L 678.916323 94.61657
L 683.671295 95.683451
L 685.256285 95.722506
L 686.445028 95.555464
L 688.030019 95.05422
L 689.615009 94.274647
L 691.2 93.340101
L 691.2 93.340101
" clip-path="url(#p0800cdfa0c)" style="fill: none; stroke: #000000; stroke-linecap: square"/>
   </g>
   <g id="patch_3">
    <path d="M 57.6 127.2
L 57.6 43.2
" style="fill: none; stroke: #000000; stroke-width: 0.8; stroke-linejoin: miter; stroke-linecap: square"/>
   </g>
   <g id="patch_4">
    <path d="M 691.2 127.2
L 691.2 43.2
" style="fill: none; stroke: #000000; stroke-width: 0.8; stroke-linejoin: miter; stroke-linecap: square"/>
   </g>
   <g id="patch_5">
    <path d="M 57.6 127.2
L 691.2 127.2
" style="fill: none; stroke: #000000; stroke-width: 0.8; stroke-linejoin: miter; stroke-linecap: square"/>
   </g>
   <g id="patch_6">
    <path d="M 57.6 43.2
L 691.2 43.2
" style="fill: none; stroke: #000000; stroke-width: 0.8; stroke-linejoin: miter; stroke-linecap: square"/>
   </g>
   <g id="text_7">
    <g id="patch_7">
     <path d="M 70.272 57.960878
L 143.897486 57.960878
Q 146.396486 57.960878 146.396486 55.461878
L 146.396486 47.4
Q 146.396486 44.901 143.897486 44.901
L 70.272 44.901
Q 67.773 44.901 67.773 47.4
L 67.773 55.461878
Q 67.773 57.960878 70.272 57.960878
z
" style="fill: #ffffff; opacity: 0.8; stroke: #000000; stroke-linejoin: miter"/>
    </g>
    <!-- AA.S0001.S2.BXX -->
    <g transform="translate(70.272 53.729498) scale(0.0833 -0.0833)">
     <defs>
      <path id="DejaVuSans-41" d="M 2188 4044
L 1331 1722
L 3047 1722
L 2188 4044
z
M 1831 4666
L 2547 4666
L 4325 0
L 3669 0
L 3244 1197
L 1141 1197
L 716 0
L 50 0
L 1831 4666
z
" transform="scale(0.015625)"/>
      <path id="DejaVuSans-53" d="M 3425 4513
L 3425 3897
Q 3066 4069 2747 4153
Q 2428 4238 2131 4238
Q 1616 4238 1336 4038
Q 1056 3838 1056 3469
Q 1056 3159 1242 3001
Q 1428 2844 1947 2747
L 2328 2669
Q 3034 2534 3370 2195
Q 3706 1856 3706 1288
Q 3706 609 3251 259
Q 2797 -91 1919 -91
Q 1588 -91 1214 -16
Q 841 59 441 206
L 441 856
Q 825 641 1194 531
Q 1563 422 1919 422
Q 2459 422 2753 634
Q 3047 847 3047 1241
Q 3047 1584 2836 1778
Q 2625 1972 2144 2069
L 1759 2144
Q 1053 2284 737 2584
Q 422 2884 422 3419
Q 422 4038 858 4394
Q 1294 4750 2059 4750
Q 2388 4750 2728 4690
Q 3069 4631 3425 4513
z
" transform="scale(0.015625)"/>
      <path id="DejaVuSans-42" d="M 1259 2228
L 1259 519
L 2272 519
Q 2781 519 3026 730
Q 3272 941 3272 1375
Q 3272 1813 3026 2020
Q 2781 2228 2272 2228
L 1259 2228
z
M 1259 4147
L 1259 2741
L 2194 2741
Q 2656 2741 2882 2914
Q 3109 3088 3109 3444
Q 3109 3797 2882 3972
Q 2656 4147 2194 4147
L 1259 4147
z
M 628 4666
L 2241 4666
Q 2963 4666 3353 4366
Q 3744 4066 3744 3513
Q 3744 3084 3544 2831
Q 3344 2578 2956 2516
Q 3422 2416 3680 2098
Q 3938 1781 3938 1306
Q 3938 681 3513 340
Q 3088 0 2303 0
L 628 0
L 628 4666
z
" transform="scale(0.015625)"/>
      <path id="DejaVuSans-58" d="M 403 4666
L 1081 4666
L 2241 2931
L 3406 4666
L 4084 4666
L 2584 2425
L 4184 0
L 3506 0
L 2194 1984
L 872 0
L 191 0
L 1856 2491
L 403 4666
z
" transform="scale(0.015625)"/>
     </defs>
     <use xlink:href="#DejaVuSans-41"/>
     <use xlink:href="#DejaVuSans-41" transform="translate(71.158203 0)"/>
     <use xlink:href="#DejaVuSans-2e" transform="translate(137.816406 0)"/>
     <use xlink:href="#DejaVuSans-53" transform="translate(169.603516 0)"/>
     <use xlink:href="#DejaVuSans-30" transform="translate(233.080078 0)"/>
     <use xlink:href="#DejaVuSans-30" transform="translate(296.703125 0)"/>
     <use xlink:href="#DejaVuSans-30" transform="translate(360.326172 0)"/>
     <use xlink:href="#DejaVuSans-31" transform="translate(423.949219 0)"/>
     <use xlink:href="#DejaVuSans-2e" transform="translate(487.572266 0)"/>
     <use xlink:href="#DejaVuSans-53" transform="translate(519.359375 0)"/>
     <use xlink:href="#DejaVuSans-32" transform="translate(582.835938 0)"/>
     <use xlink:href="#DejaVuSans-2e" transform="translate(646.458984 0)"/>
     <use xlink:href="#DejaVuSans-42" transform="translate(678.246094 0)"/>
     <use xlink:href="#DejaVuSans-58" transform="translate(746.849609 0)"/>
     <use xlink:href="#DejaVuSans-58" transform="translate(815.355469 0)"/>
    </g>
   </g>
  </g>
  <g id="axes_2">
   <g id="patch_8">
    <path d="M 57.6 211.2
L 691.2 211.2
L 691.2 127.2
L 57.6 127.2
z
" style="fill: #ffffff"/>
   </g>
   <g id="matplotlib.axis_3">
    <g id="xtick_5">
     <g id="line2d_12">
      <g>
       <use xlink:href="#md575176abd" x="100.827017" y="211.2" style="stroke: #000000; stroke-width: 0.8"/>
      </g>
     </g>
    </g>
    <g id="xtick_6">
     <g id="line2d_13">
      <g>
       <use xlink:href="#md575176abd" x="280.939587" y="211.2" style="stroke: #000000; stroke-width: 0.8"/>
      </g>
     </g>
    </g>
    <g id="xtick_7">
     <g id="line2d_14">
      <g>
       <use xlink:href="#md575176abd" x="461.052158" y="211.2" style="stroke: #000000; stroke-width: 0.8"/>
      </g>
     </g>
    </g>
    <g id="xtick_8">
     <g id="line2d_15">
      <g>
       <use xlink:href="#md575176abd" x="641.164728" y="211.2" style="stroke: #000000; stroke-width: 0.8"/>
      </g>
     </g>
    </g>
   </g>
   <g id="matplotlib.axis_4">
    <g id="ytick_7">
     <g id="line2d_16">
      <g>
       <use xlink:href="#m29282547e4" x="57.6" y="210.875548" style="stroke: #000000; stroke-width: 0.8"/>
      </g>
     </g>
     <g id="text_8">
      <!-- −2.4 -->
      <g transform="translate(30.372417 214.040297) scale(0.0833 -0.0833)">
       <use xlink:href="#DejaVuSans-2212"/>
       <use xlink:href="#DejaVuSans-32" transform="translate(83.789062 0)"/>
       <use xlink:href="#DejaVuSans-2e" transform="translate(147.412109 0)"/>
       <use xlink:href="#DejaVuSans-34" transform="translate(179.199219 0)"/>
      </g>
     </g>
    </g>
    <g id="ytick_8">
     <g id="line2d_17">
      <g>
       <use xlink:href="#m29282547e4" x="57.6" y="196.41781" style="stroke: #000000; stroke-width: 0.8"/>
      </g>
     </g>
     <g id="text_9">
      <!-- −1.6 -->
      <g transform="translate(30.372417 199.582559) scale(0.0833 -0.0833)">
       <use xlink:href="#DejaVuSans-2212"/>
       <use xlink:href="#DejaVuSans-31" transform="translate(83.789062 0)"/>
       <use xlink:href="#DejaVuSans-2e" transform="translate(147.412109 0)"/>
       <use xlink:href="#DejaVuSans-36" transform="translate(179.199219 0)"/>
      </g>
     </g>
    </g>
    <g id="ytick_9">
     <g id="line2d_18">
      <g>
       <use xlink:href="#m29282547e4" x="57.6" y="181.960073" style="stroke: #000000; stroke-width: 0.8"/>
      </g>
     </g>
     <g id="text_10">
      <!-- −0.8 -->
      <g transform="translate(30.372417 185.124822) scale(0.0833 -0.0833)">
       <use xlink:href="#DejaVuSans-2212"/>
       <use xlink:href="#DejaVuSans-30" transform="translate(83.789062 0)"/>
       <use xlink:href="#DejaVuSans-2e" transform="translate(147.412109 0)"/>
       <use xlink:href="#DejaVuSans-38" transform="translate(179.199219 0)"/>
      </g>
     </g>
    </g>
    <g id="ytick_10">
     <g id="line2d_19">
      <g>
       <use xlink:href="#m29282547e4" x="57.6" y="167.502335" style="stroke: #000000; stroke-width: 0.8"/>
      </g>
     </g>
     <g id="text_11">
      <!-- 0.0 -->
      <g transform="translate(37.352697 170.667085) scale(0.0833 -0.0833)">
       <use xlink:href="#DejaVuSans-30"/>
       <use xlink:href="#DejaVuSans-2e" transform="translate(63.623047 0)"/>
       <use xlink:href="#DejaVuSans-30" transform="translate(95.410156 0)"/>
      </g>
     </g>
    </g>
    <g id="ytick_11">
     <g id="line2d_20">
      <g>
       <use xlink:href="#m29282547e4" x="57.6" y="153.044598" style="stroke: #000000; stroke-width: 0.8"/>
      </g>
     </g>
     <g id="text_12">
      <!-- 0.8 -->
      <g transform="translate(37.352697 156.209347) scale(0.0833 -0.0833)">
       <use xlink:href="#DejaVuSans-30"/>
       <use xlink:href="#DejaVuSans-2e" transform="translate(63.623047 0)"/>
       <use xlink:href="#DejaVuSans-38" transform="translate(95.410156 0)"/>
      </g>
     </g>
    </g>
    <g id="ytick_12">
     <g id="line2d_21">
      <g>
       <use xlink:href="#m29282547e4" x="57.6" y="138.586861" style="stroke: #000000; stroke-width: 0.8"/>
      </g>
     </g>
     <g id="text_13">
      <!-- 1.6 -->
      <g transform="translate(37.352697 141.75161) scale(0.0833 -0.0833)">
       <use xlink:href="#DejaVuSans-31"/>
       <use xlink:href="#DejaVuSans-2e" transform="translate(63.623047 0)"/>
       <use xlink:href="#DejaVuSans-36" transform="translate(95.410156 0)"/>
      </g>
     </g>
    </g>
   </g>
   <g id="line2d_22">
    <path d="M 57.6 167.502335
L 437.997749 167.602118
L 442.356473 167.85528
L 449.885178 168.429253
L 451.866417 168.273601
L 453.451407 167.952656
L 455.432645 167.308323
L 460.980113 165.219683
L 462.168856 165.043949
L 463.357598 165.052389
L 464.546341 165.251701
L 466.131332 165.788315
L 468.11257 166.756993
L 471.282552 168.359481
L 472.867542 168.91522
L 474.452533 169.209673
L 476.037523 169.242956
L 477.622514 169.061875
L 480.396248 168.457802
L 483.962477 167.685847
L 486.73621 167.342757
L 489.906191 167.222681
L 495.453659 167.320227
L 506.152345 167.471928
L 517.24728 167.433262
L 521.209756 167.22974
L 524.379737 166.849984
L 528.342214 166.109206
L 531.115947 165.683362
L 532.700938 165.644556
L 534.285929 165.856807
L 535.474672 166.214841
L 537.059662 166.97245
L 538.644653 168.006897
L 543.399625 171.429874
L 544.588368 171.956591
L 545.777111 172.219098
L 546.965854 172.186673
L 548.154597 171.860821
L 549.34334 171.270423
L 550.92833 170.172759
L 556.07955 166.250123
L 557.66454 165.503499
L 558.853283 165.163883
L 560.438274 164.98947
L 562.023265 165.076779
L 564.004503 165.426094
L 569.55197 166.555432
L 571.533208 166.679294
L 573.514447 166.554938
L 575.495685 166.164182
L 577.873171 165.402767
L 581.043152 164.344391
L 582.231895 164.145625
L 583.420638 164.173917
L 584.609381 164.49914
L 585.798124 165.172256
L 586.986867 166.208713
L 588.17561 167.581085
L 589.7606 169.789394
L 592.534334 173.730881
L 593.723077 174.988527
L 594.515572 175.557106
L 595.308068 175.865641
L 596.100563 175.890684
L 596.893058 175.623301
L 597.685553 175.069452
L 598.478049 174.251435
L 599.666792 172.613241
L 601.251782 169.940259
L 603.629268 165.907175
L 604.818011 164.310611
L 605.610507 163.501504
L 606.403002 162.924423
L 607.195497 162.587312
L 607.987992 162.485504
L 608.780488 162.602149
L 609.572983 162.910453
L 610.761726 163.656659
L 612.346717 164.968651
L 614.724203 166.96611
L 615.912946 167.735415
L 617.101689 168.251665
L 618.290432 168.482569
L 619.479174 168.426617
L 620.667917 168.113421
L 622.252908 167.391798
L 626.611632 165.094399
L 627.800375 164.76479
L 628.989118 164.666983
L 630.177861 164.812678
L 631.366604 165.18482
L 632.951595 165.95412
L 638.102814 168.816734
L 639.687805 169.317765
L 641.272795 169.545669
L 642.857786 169.528267
L 644.839024 169.25535
L 653.95272 167.598452
L 657.518949 167.395837
L 664.255159 167.288475
L 672.57636 167.341565
L 684.860038 167.533321
L 691.2 167.464077
L 691.2 167.464077
" clip-path="url(#p1cc49efd97)" style="fill: none; stroke: #000000; stroke-linecap: square"/>
   </g>
   <g id="patch_9">
    <path d="M 57.6 211.2
L 57.6 127.2
" style="fill: none; stroke: #000000; stroke-width: 0.8; stroke-linejoin: miter; stroke-linecap: square"/>
   </g>
   <g id="patch_10">
    <path d="M 691.2 211.2
L 691.2 127.2
" style="fill: none; stroke: #000000; stroke-width: 0.8; stroke-linejoin: miter; stroke-linecap: square"/>
   </g>
   <g id="patch_11">
    <path d="M 57.6 211.2
L 691.2 211.2
" style="fill: none; stroke: #000000; stroke-width: 0.8; stroke-linejoin: miter; stroke-linecap: square"/>
   </g>
   <g id="patch_12">
    <path d="M 57.6 127.2
L 691.2 127.2
" style="fill: none; stroke: #000000; stroke-width: 0.8; stroke-linejoin: miter; stroke-linecap: square"/>
   </g>
   <g id="text_14">
    <g id="patch_13">
     <path d="M 70.272 141.960878
L 143.897486 141.960878
Q 146.396486 141.960878 146.396486 139.461878
L 146.396486 131.4
Q 146.396486 128.901 143.897486 128.901
L 70.272 128.901
Q 67.773 128.901 67.773 131.4
L 67.773 139.461878
Q 67.773 141.960878 70.272 141.960878
z
" style="fill: #ffffff; opacity: 0.8; stroke: #000000; stroke-linejoin: miter"/>
    </g>
    <!-- AA.S0002.S2.BXX -->
    <g transform="translate(70.272 137.729498) scale(0.0833 -0.0833)">
     <use xlink:href="#DejaVuSans-41"/>
     <use xlink:href="#DejaVuSans-41" transform="translate(71.158203 0)"/>
     <use xlink:href="#DejaVuSans-2e" transform="translate(137.816406 0)"/>
     <use xlink:href="#DejaVuSans-53" transform="translate(169.603516 0)"/>
     <use xlink:href="#DejaVuSans-30" transform="translate(233.080078 0)"/>
     <use xlink:href="#DejaVuSans-30" transform="translate(296.703125 0)"/>
     <use xlink:href="#DejaVuSans-30" transform="translate(360.326172 0)"/>
     <use xlink:href="#DejaVuSans-32" transform="translate(423.949219 0)"/>
     <use xlink:href="#DejaVuSans-2e" transform="translate(487.572266 0)"/>
     <use xlink:href="#DejaVuSans-53" transform="translate(519.359375 0)"/>
     <use xlink:href="#DejaVuSans-32" transform="translate(582.835938 0)"/>
     <use xlink:href="#DejaVuSans-2e" transform="translate(646.458984 0)"/>
     <use xlink:href="#DejaVuSans-42" transform="translate(678.246094 0)"/>
     <use xlink:href="#DejaVuSans-58" transform="translate(746.849609 0)"/>
     <use xlink:href="#DejaVuSans-58" transform="translate(815.355469 0)"/>
    </g>
   </g>
  </g>
  <g id="axes_3">
   <g id="patch_14">
    <path d="M 57.6 295.2
L 691.2 295.2
L 691.2 211.2
L 57.6 211.2
z
" style="fill: #ffffff"/>
   </g>
   <g id="matplotlib.axis_5">
    <g id="xtick_9">
     <g id="line2d_23">
      <g>
       <use xlink:href="#md575176abd" x="100.827017" y="295.2" style="stroke: #000000; stroke-width: 0.8"/>
      </g>
     </g>
    </g>
    <g id="xtick_10">
     <g id="line2d_24">
      <g>
       <use xlink:href="#md575176abd" x="280.939587" y="295.2" style="stroke: #000000; stroke-width: 0.8"/>
      </g>
     </g>
    </g>
    <g id="xtick_11">
     <g id="line2d_25">
      <g>
       <use xlink:href="#md575176abd" x="461.052158" y="295.2" style="stroke: #000000; stroke-width: 0.8"/>
      </g>
     </g>
    </g>
    <g id="xtick_12">
     <g id="line2d_26">
      <g>
       <use xlink:href="#md575176abd" x="641.164728" y="295.2" style="stroke: #000000; stroke-width: 0.8"/>
      </g>
     </g>
    </g>
   </g>
   <g id="matplotlib.axis_6">
    <g id="ytick_13">
     <g id="line2d_27">
      <g>
       <use xlink:href="#m29282547e4" x="57.6" y="287.427844" style="stroke: #000000; stroke-width: 0.8"/>
      </g>
     </g>
     <g id="text_15">
      <!-- −2.4 -->
      <g transform="translate(30.372417 290.592593) scale(0.0833 -0.0833)">
       <use xlink:href="#DejaVuSans-2212"/>
       <use xlink:href="#DejaVuSans-32" transform="translate(83.789062 0)"/>
       <use xlink:href="#DejaVuSans-2e" transform="translate(147.412109 0)"/>
       <use xlink:href="#DejaVuSans-34" transform="translate(179.199219 0)"/>
      </g>
     </g>
    </g>
    <g id="ytick_14">
     <g id="line2d_28">
      <g>
       <use xlink:href="#m29282547e4" x="57.6" y="272.970106" style="stroke: #000000; stroke-width: 0.8"/>
      </g>
     </g>
     <g id="text_16">
      <!-- −1.6 -->
      <g transform="translate(30.372417 276.134856) scale(0.0833 -0.0833)">
       <use xlink:href="#DejaVuSans-2212"/>
       <use xlink:href="#DejaVuSans-31" transform="translate(83.789062 0)"/>
       <use xlink:href="#DejaVuSans-2e" transform="translate(147.412109 0)"/>
       <use xlink:href="#DejaVuSans-36" transform="translate(179.199219 0)"/>
      </g>
     </g>
    </g>
    <g id="ytick_15">
     <g id="line2d_29">
      <g>
       <use xlink:href="#m29282547e4" x="57.6" y="258.512369" style="stroke: #000000; stroke-width: 0.8"/>
      </g>
     </g>
     <g id="text_17">
      <!-- −0.8 -->
      <g transform="translate(30.372417 261.677118) scale(0.0833 -0.0833)">
       <use xlink:href="#DejaVuSans-2212"/>
       <use xlink:href="#DejaVuSans-30" transform="translate(83.789062 0)"/>
       <use xlink:href="#DejaVuSans-2e" transform="translate(147.412109 0)"/>
       <use xlink:href="#DejaVuSans-38" transform="translate(179.199219 0)"/>
      </g>
     </g>
    </g>
    <g id="ytick_16">
     <g id="line2d_30">
      <g>
       <use xlink:href="#m29282547e4" x="57.6" y="244.054632" style="stroke: #000000; stroke-width: 0.8"/>
      </g>
     </g>
     <g id="text_18">
      <!-- 0.0 -->
      <g transform="translate(37.352697 247.219381) scale(0.0833 -0.0833)">
       <use xlink:href="#DejaVuSans-30"/>
       <use xlink:href="#DejaVuSans-2e" transform="translate(63.623047 0)"/>
       <use xlink:href="#DejaVuSans-30" transform="translate(95.410156 0)"/>
      </g>
     </g>
    </g>
    <g id="ytick_17">
     <g id="line2d_31">
      <g>
       <use xlink:href="#m29282547e4" x="57.6" y="229.596894" style="stroke: #000000; stroke-width: 0.8"/>
      </g>
     </g>
     <g id="text_19">
      <!-- 0.8 -->
      <g transform="translate(37.352697 232.761644) scale(0.0833 -0.0833)">
       <use xlink:href="#DejaVuSans-30"/>
       <use xlink:href="#DejaVuSans-2e" transform="translate(63.623047 0)"/>
       <use xlink:href="#DejaVuSans-38" transform="translate(95.410156 0)"/>
      </g>
     </g>
    </g>
    <g id="ytick_18">
     <g id="line2d_32">
      <g>
       <use xlink:href="#m29282547e4" x="57.6" y="215.139157" style="stroke: #000000; stroke-width: 0.8"/>
      </g>
     </g>
     <g id="text_20">
      <!-- 1.6 -->
      <g transform="translate(37.352697 218.303906) scale(0.0833 -0.0833)">
       <use xlink:href="#DejaVuSans-31"/>
       <use xlink:href="#DejaVuSans-2e" transform="translate(63.623047 0)"/>
       <use xlink:href="#DejaVuSans-36" transform="translate(95.410156 0)"/>
      </g>
     </g>
    </g>
   </g>
   <g id="line2d_33">
    <path d="M 57.6 244.054632
L 136.453283 244.149032
L 139.227017 244.361785
L 141.208255 244.706874
L 142.793246 245.182801
L 144.378236 245.911251
L 145.963227 246.954426
L 147.548218 248.342836
L 149.133208 250.038442
L 152.303189 253.614919
L 153.491932 254.568945
L 154.284428 254.924973
L 155.076923 254.978372
L 155.869418 254.664021
L 156.661914 253.924978
L 157.454409 252.717357
L 158.246904 251.014995
L 159.0394 248.814909
L 160.228143 244.643716
L 161.813133 237.820725
L 164.586867 225.17458
L 165.77561 220.865397
L 166.568105 218.759176
L 167.3606 217.413504
L 167.756848 217.055078
L 168.153096 216.916826
L 168.549343 217.003247
L 168.945591 217.315769
L 169.341839 217.852892
L 170.134334 219.580375
L 170.926829 222.116696
L 171.719325 225.350205
L 172.908068 231.177497
L 176.474296 249.961145
L 177.663039 254.744976
L 178.455535 257.176355
L 179.24803 258.944299
L 180.040525 260.042377
L 180.436773 260.347392
L 180.833021 260.497332
L 181.229268 260.500075
L 181.625516 260.364924
L 182.418011 259.723705
L 183.210507 258.666268
L 184.39925 256.51798
L 186.776735 251.375059
L 188.361726 248.124982
L 189.946717 245.404852
L 191.13546 243.750516
L 192.72045 241.957738
L 197.079174 237.423186
L 198.267917 235.777116
L 199.852908 233.157596
L 203.815385 226.102774
L 204.60788 225.189851
L 205.400375 224.69095
L 205.796623 224.634276
L 206.192871 224.725631
L 206.589118 224.979111
L 206.985366 225.408163
L 207.777861 226.840509
L 208.570356 229.09897
L 209.362852 232.226146
L 210.155347 236.223938
L 211.34409 243.73106
L 212.929081 255.88101
L 215.702814 277.978068
L 216.891557 285.289671
L 217.684053 288.749968
L 218.0803 289.972333
L 218.476548 290.827978
L 218.872795 291.301379
L 219.269043 291.381818
L 219.665291 291.063477
L 220.061538 290.345777
L 220.457786 289.233471
L 221.250281 285.870655
L 222.042777 281.115975
L 223.23152 271.858433
L 224.81651 257.087861
L 226.797749 238.440542
L 227.986492 228.986228
L 228.778987 223.886251
L 229.571482 219.908999
L 230.363977 217.116885
L 230.760225 216.166885
L 231.156473 215.507305
L 231.55272 215.128603
L 231.948968 215.018182
L 232.345216 215.160699
L 232.741463 215.538552
L 233.533959 216.920694
L 234.326454 218.992885
L 235.515197 222.996612
L 239.477674 237.571667
L 240.666417 240.88075
L 241.855159 243.416199
L 242.647655 244.682066
L 243.44015 245.635547
L 244.232645 246.310406
L 245.025141 246.745473
L 245.817636 246.983296
L 247.006379 247.055834
L 248.195122 246.896085
L 250.17636 246.37516
L 254.138837 245.293868
L 256.91257 244.801439
L 260.082552 244.468364
L 264.837523 244.221459
L 271.969981 244.135034
L 314.764728 244.060851
L 342.502064 244.043676
L 356.766979 244.06323
L 399.957974 244.112495
L 404.316698 244.261877
L 407.882927 244.584865
L 413.826642 245.208048
L 415.80788 245.117901
L 417.392871 244.81596
L 418.977861 244.290799
L 420.959099 243.375645
L 424.525328 241.626388
L 426.110319 241.157588
L 427.299062 241.043916
L 428.487805 241.156988
L 429.676548 241.500056
L 431.261538 242.252202
L 433.639024 243.735261
L 436.01651 245.13172
L 437.601501 245.773226
L 438.790244 246.048896
L 439.978987 246.141686
L 441.563977 246.020147
L 443.545216 245.588678
L 449.092683 244.166068
L 451.470169 243.854436
L 454.243902 243.734443
L 458.602627 243.818618
L 467.716323 243.99581
L 480.396248 244.006452
L 484.358724 243.812217
L 487.528705 243.444699
L 490.698687 242.844955
L 494.661163 242.079233
L 496.246154 241.992676
L 497.434897 242.096973
L 498.62364 242.383109
L 499.812383 242.87089
L 501.001126 243.558174
L 502.586116 244.740022
L 507.341088 248.586129
L 508.529831 249.157649
L 509.718574 249.423878
L 510.511069 249.413309
L 511.699812 249.113298
L 512.888555 248.497758
L 514.077298 247.625163
L 516.058537 245.829086
L 518.83227 243.331282
L 520.417261 242.255154
L 521.606004 241.699408
L 522.794747 241.368126
L 523.98349 241.249578
L 525.56848 241.363819
L 527.549719 241.798961
L 532.30469 243.021805
L 534.285929 243.259169
L 536.267167 243.253536
L 538.248405 243.00863
L 540.625891 242.448951
L 546.173358 240.913374
L 547.362101 240.831474
L 548.550844 240.95608
L 549.739587 241.343117
L 550.92833 242.023123
L 552.117073 243.006701
L 553.305816 244.261387
L 555.287054 246.750203
L 557.268293 249.230888
L 558.457036 250.420287
L 559.249531 250.992732
L 560.042026 251.347189
L 560.834522 251.460328
L 561.627017 251.312869
L 562.419512 250.907185
L 563.212008 250.258994
L 564.40075 248.886008
L 565.985741 246.548678
L 568.759475 242.290566
L 569.948218 240.864854
L 571.136961 239.852998
L 571.929456 239.436505
L 572.721951 239.225424
L 573.514447 239.203737
L 574.306942 239.354678
L 575.495685 239.835647
L 577.080675 240.782549
L 580.646904 243.035953
L 582.231895 243.760162
L 583.816886 244.252986
L 585.798124 244.59384
L 588.17561 244.73655
L 592.138086 244.698655
L 600.855535 244.364604
L 606.79925 244.154097
L 611.554221 244.228909
L 619.875422 244.465946
L 623.837899 244.24535
L 628.196623 244.033907
L 630.970356 244.157453
L 638.102814 244.752994
L 640.084053 244.554322
L 642.065291 244.091097
L 644.046529 243.40219
L 647.612758 241.874622
L 649.990244 240.929745
L 651.575235 240.485848
L 653.160225 240.307924
L 654.348968 240.418357
L 655.537711 240.778105
L 656.726454 241.426542
L 657.915197 242.364347
L 659.10394 243.581671
L 660.688931 245.530758
L 663.858912 249.644324
L 665.047655 250.84717
L 665.84015 251.445405
L 666.632645 251.839332
L 667.425141 252.012584
L 668.217636 251.961619
L 669.010131 251.682659
L 669.802627 251.196837
L 670.99137 250.151024
L 672.972608 247.914235
L 674.953846 245.758045
L 676.142589 244.795888
L 677.331332 244.188521
L 678.520075 243.92339
L 679.708818 243.919747
L 682.086304 243.991857
L 682.878799 243.809671
L 683.671295 243.42395
L 684.46379 242.795817
L 685.256285 241.887545
L 686.04878 240.697814
L 687.237523 238.438124
L 688.822514 234.810302
L 690.803752 230.314567
L 691.2 229.561637
L 691.2 229.561637
" clip-path="url(#p45c6e52b27)" style="fill: none; stroke: #000000; stroke-linecap: square"/>
   </g>
   <g id="patch_15">
    <path d="M 57.6 295.2
L 57.6 211.2
" style="fill: none; stroke: #000000; stroke-width: 0.8; stroke-linejoin: miter; stroke-linecap: square"/>
   </g>
   <g id="patch_16">
    <path d="M 691.2 295.2
L 691.2 211.2
" style="fill: none; stroke: #000000; stroke-width: 0.8; stroke-linejoin: miter; stroke-linecap: square"/>
   </g>
   <g id="patch_17">
    <path d="M 57.6 295.2
L 691.2 295.2
" style="fill: none; stroke: #000000; stroke-width: 0.8; stroke-linejoin: miter; stroke-linecap: square"/>
   </g>
   <g id="patch_18">
    <path d="M 57.6 211.2
L 691.2 211.2
" style="fill: none; stroke: #000000; stroke-width: 0.8; stroke-linejoin: miter; stroke-linecap: square"/>
   </g>
   <g id="text_21">
    <g id="patch_19">
     <path d="M 70.272 225.960878
L 143.897486 225.960878
Q 146.396486 225.960878 146.396486 223.461878
L 146.396486 215.4
Q 146.396486 212.901 143.897486 212.901
L 70.272 212.901
Q 67.773 212.901 67.773 215.4
L 67.773 223.461878
Q 67.773 225.960878 70.272 225.960878
z
" style="fill: #ffffff; opacity: 0.8; stroke: #000000; stroke-linejoin: miter"/>
    </g>
    <!-- AA.S0003.S2.BXX -->
    <g transform="translate(70.272 221.729498) scale(0.0833 -0.0833)">
     <defs>
      <path id="DejaVuSans-33" d="M 2597 2516
Q 3050 2419 3304 2112
Q 3559 1806 3559 1356
Q 3559 666 3084 287
Q 2609 -91 1734 -91
Q 1441 -91 1130 -33
Q 819 25 488 141
L 488 750
Q 750 597 1062 519
Q 1375 441 1716 441
Q 2309 441 2620 675
Q 2931 909 2931 1356
Q 2931 1769 2642 2001
Q 2353 2234 1838 2234
L 1294 2234
L 1294 2753
L 1863 2753
Q 2328 2753 2575 2939
Q 2822 3125 2822 3475
Q 2822 3834 2567 4026
Q 2313 4219 1838 4219
Q 1578 4219 1281 4162
Q 984 4106 628 3988
L 628 4550
Q 988 4650 1302 4700
Q 1616 4750 1894 4750
Q 2613 4750 3031 4423
Q 3450 4097 3450 3541
Q 3450 3153 3228 2886
Q 3006 2619 2597 2516
z
" transform="scale(0.015625)"/>
     </defs>
     <use xlink:href="#DejaVuSans-41"/>
     <use xlink:href="#DejaVuSans-41" transform="translate(71.158203 0)"/>
     <use xlink:href="#DejaVuSans-2e" transform="translate(137.816406 0)"/>
     <use xlink:href="#DejaVuSans-53" transform="translate(169.603516 0)"/>
     <use xlink:href="#DejaVuSans-30" transform="translate(233.080078 0)"/>
     <use xlink:href="#DejaVuSans-30" transform="translate(296.703125 0)"/>
     <use xlink:href="#DejaVuSans-30" transform="translate(360.326172 0)"/>
     <use xlink:href="#DejaVuSans-33" transform="translate(423.949219 0)"/>
     <use xlink:href="#DejaVuSans-2e" transform="translate(487.572266 0)"/>
     <use xlink:href="#DejaVuSans-53" transform="translate(519.359375 0)"/>
     <use xlink:href="#DejaVuSans-32" transform="translate(582.835938 0)"/>
     <use xlink:href="#DejaVuSans-2e" transform="translate(646.458984 0)"/>
     <use xlink:href="#DejaVuSans-42" transform="translate(678.246094 0)"/>
     <use xlink:href="#DejaVuSans-58" transform="translate(746.849609 0)"/>
     <use xlink:href="#DejaVuSans-58" transform="translate(815.355469 0)"/>
    </g>
   </g>
  </g>
  <g id="axes_4">
   <g id="patch_20">
    <path d="M 57.6 379.2
L 691.2 379.2
L 691.2 295.2
L 57.6 295.2
z
" style="fill: #ffffff"/>
   </g>
   <g id="matplotlib.axis_7">
    <g id="xtick_13">
     <g id="line2d_34">
      <g>
       <use xlink:href="#md575176abd" x="100.827017" y="379.2" style="stroke: #000000; stroke-width: 0.8"/>
      </g>
     </g>
    </g>
    <g id="xtick_14">
     <g id="line2d_35">
      <g>
       <use xlink:href="#md575176abd" x="280.939587" y="379.2" style="stroke: #000000; stroke-width: 0.8"/>
      </g>
     </g>
    </g>
    <g id="xtick_15">
     <g id="line2d_36">
      <g>
       <use xlink:href="#md575176abd" x="461.052158" y="379.2" style="stroke: #000000; stroke-width: 0.8"/>
      </g>
     </g>
    </g>
    <g id="xtick_16">
     <g id="line2d_37">
      <g>
       <use xlink:href="#md575176abd" x="641.164728" y="379.2" style="stroke: #000000; stroke-width: 0.8"/>
      </g>
     </g>
    </g>
   </g>
   <g id="matplotlib.axis_8">
    <g id="ytick_19">
     <g id="line2d_38">
      <g>
       <use xlink:href="#m29282547e4" x="57.6" y="365.055424" style="stroke: #000000; stroke-width: 0.8"/>
      </g>
     </g>
     <g id="text_22">
      <!-- −1.6 -->
      <g transform="translate(30.372417 368.220174) scale(0.0833 -0.0833)">
       <use xlink:href="#DejaVuSans-2212"/>
       <use xlink:href="#DejaVuSans-31" transform="translate(83.789062 0)"/>
       <use xlink:href="#DejaVuSans-2e" transform="translate(147.412109 0)"/>
       <use xlink:href="#DejaVuSans-36" transform="translate(179.199219 0)"/>
      </g>
     </g>
    </g>
    <g id="ytick_20">
     <g id="line2d_39">
      <g>
       <use xlink:href="#m29282547e4" x="57.6" y="350.597687" style="stroke: #000000; stroke-width: 0.8"/>
      </g>
     </g>
     <g id="text_23">
      <!-- −0.8 -->
      <g transform="translate(30.372417 353.762436) scale(0.0833 -0.0833)">
       <use xlink:href="#DejaVuSans-2212"/>
       <use xlink:href="#DejaVuSans-30" transform="translate(83.789062 0)"/>
       <use xlink:href="#DejaVuSans-2e" transform="translate(147.412109 0)"/>
       <use xlink:href="#DejaVuSans-38" transform="translate(179.199219 0)"/>
      </g>
     </g>
    </g>
    <g id="ytick_21">
     <g id="line2d_40">
      <g>
       <use xlink:href="#m29282547e4" x="57.6" y="336.13995" style="stroke: #000000; stroke-width: 0.8"/>
      </g>
     </g>
     <g id="text_24">
      <!-- 0.0 -->
      <g transform="translate(37.352697 339.304699) scale(0.0833 -0.0833)">
       <use xlink:href="#DejaVuSans-30"/>
       <use xlink:href="#DejaVuSans-2e" transform="translate(63.623047 0)"/>
       <use xlink:href="#DejaVuSans-30" transform="translate(95.410156 0)"/>
      </g>
     </g>
    </g>
    <g id="ytick_22">
     <g id="line2d_41">
      <g>
       <use xlink:href="#m29282547e4" x="57.6" y="321.682212" style="stroke: #000000; stroke-width: 0.8"/>
      </g>
     </g>
     <g id="text_25">
      <!-- 0.8 -->
      <g transform="translate(37.352697 324.846961) scale(0.0833 -0.0833)">
       <use xlink:href="#DejaVuSans-30"/>
       <use xlink:href="#DejaVuSans-2e" transform="translate(63.623047 0)"/>
       <use xlink:href="#DejaVuSans-38" transform="translate(95.410156 0)"/>
      </g>
     </g>
    </g>
    <g id="ytick_23">
     <g id="line2d_42">
      <g>
       <use xlink:href="#m29282547e4" x="57.6" y="307.224475" style="stroke: #000000; stroke-width: 0.8"/>
      </g>
     </g>
     <g id="text_26">
      <!-- 1.6 -->
      <g transform="translate(37.352697 310.389224) scale(0.0833 -0.0833)">
       <use xlink:href="#DejaVuSans-31"/>
       <use xlink:href="#DejaVuSans-2e" transform="translate(63.623047 0)"/>
       <use xlink:href="#DejaVuSans-36" transform="translate(95.410156 0)"/>
      </g>
     </g>
    </g>
   </g>
   <g id="line2d_43">
    <path d="M 57.6 336.13995
L 523.190994 336.032877
L 527.153471 335.767531
L 531.115947 335.262694
L 534.682176 334.868344
L 536.663415 334.907285
L 538.248405 335.173987
L 539.833396 335.683341
L 541.418386 336.415954
L 546.569606 339.082123
L 547.758349 339.389975
L 548.947092 339.470806
L 550.135835 339.308797
L 551.324578 338.914675
L 552.909568 338.097415
L 558.457036 334.78336
L 560.042026 334.288909
L 561.627017 334.101335
L 563.212008 334.180827
L 565.193246 334.537669
L 571.533208 335.904972
L 574.306942 336.17008
L 577.873171 336.256058
L 585.798124 336.134134
L 593.723077 335.85229
L 600.063039 335.615636
L 602.440525 335.769205
L 604.818011 336.171573
L 608.38424 337.092178
L 610.365478 337.517057
L 611.950469 337.657963
L 613.53546 337.550017
L 615.12045 337.17827
L 617.101689 336.426564
L 620.27167 335.13626
L 621.85666 334.756001
L 623.045403 334.670641
L 624.234146 334.769856
L 625.819137 335.154322
L 628.196623 336.053178
L 630.574109 336.915552
L 632.159099 337.269338
L 633.74409 337.37857
L 635.329081 337.25112
L 637.310319 336.851336
L 642.461538 335.667987
L 644.839024 335.449728
L 647.21651 335.468962
L 651.971482 335.815795
L 655.537711 335.978494
L 658.707692 335.892341
L 661.481426 335.588807
L 668.217636 334.621456
L 669.802627 334.731779
L 670.99137 335.006034
L 672.180113 335.463282
L 673.765103 336.347063
L 675.746341 337.764488
L 678.123827 339.4773
L 679.31257 340.12244
L 680.501313 340.510672
L 681.690056 340.580783
L 682.482552 340.436625
L 683.671295 339.940262
L 684.860038 339.147255
L 686.445028 337.768024
L 689.615009 334.857328
L 690.803752 334.027383
L 691.2 333.804891
L 691.2 333.804891
" clip-path="url(#p0ee2cecc0c)" style="fill: none; stroke: #000000; stroke-linecap: square"/>
   </g>
   <g id="patch_21">
    <path d="M 57.6 379.2
L 57.6 295.2
" style="fill: none; stroke: #000000; stroke-width: 0.8; stroke-linejoin: miter; stroke-linecap: square"/>
   </g>
   <g id="patch_22">
    <path d="M 691.2 379.2
L 691.2 295.2
" style="fill: none; stroke: #000000; stroke-width: 0.8; stroke-linejoin: miter; stroke-linecap: square"/>
   </g>
   <g id="patch_23">
    <path d="M 57.6 379.2
L 691.2 379.2
" style="fill: none; stroke: #000000; stroke-width: 0.8; stroke-linejoin: miter; stroke-linecap: square"/>
   </g>
   <g id="patch_24">
    <path d="M 57.6 295.2
L 691.2 295.2
" style="fill: none; stroke: #000000; stroke-width: 0.8; stroke-linejoin: miter; stroke-linecap: square"/>
   </g>
   <g id="text_27">
    <g id="patch_25">
     <path d="M 70.272 309.960878
L 143.897486 309.960878
Q 146.396486 309.960878 146.396486 307.461878
L 146.396486 299.4
Q 146.396486 296.901 143.897486 296.901
L 70.272 296.901
Q 67.773 296.901 67.773 299.4
L 67.773 307.461878
Q 67.773 309.960878 70.272 309.960878
z
" style="fill: #ffffff; opacity: 0.8; stroke: #000000; stroke-linejoin: miter"/>
    </g>
    <!-- AA.S0004.S2.BXX -->
    <g transform="translate(70.272 305.729498) scale(0.0833 -0.0833)">
     <use xlink:href="#DejaVuSans-41"/>
     <use xlink:href="#DejaVuSans-41" transform="translate(71.158203 0)"/>
     <use xlink:href="#DejaVuSans-2e" transform="translate(137.816406 0)"/>
     <use xlink:href="#DejaVuSans-53" transform="translate(169.603516 0)"/>
     <use xlink:href="#DejaVuSans-30" transform="translate(233.080078 0)"/>
     <use xlink:href="#DejaVuSans-30" transform="translate(296.703125 0)"/>
     <use xlink:href="#DejaVuSans-30" transform="translate(360.326172 0)"/>
     <use xlink:href="#DejaVuSans-34" transform="translate(423.949219 0)"/>
     <use xlink:href="#DejaVuSans-2e" transform="translate(487.572266 0)"/>
     <use xlink:href="#DejaVuSans-53" transform="translate(519.359375 0)"/>
     <use xlink:href="#DejaVuSans-32" transform="translate(582.835938 0)"/>
     <use xlink:href="#DejaVuSans-2e" transform="translate(646.458984 0)"/>
     <use xlink:href="#DejaVuSans-42" transform="translate(678.246094 0)"/>
     <use xlink:href="#DejaVuSans-58" transform="translate(746.849609 0)"/>
     <use xlink:href="#DejaVuSans-58" transform="translate(815.355469 0)"/>
    </g>
   </g>
  </g>
  <g id="axes_5">
   <g id="patch_26">
    <path d="M 57.6 463.2
L 691.2 463.2
L 691.2 379.2
L 57.6 379.2
z
" style="fill: #ffffff"/>
   </g>
   <g id="matplotlib.axis_9">
    <g id="xtick_17">
     <g id="line2d_44">
      <g>
       <use xlink:href="#md575176abd" x="100.827017" y="463.2" style="stroke: #000000; stroke-width: 0.8"/>
      </g>
     </g>
    </g>
    <g id="xtick_18">
     <g id="line2d_45">
      <g>
       <use xlink:href="#md575176abd" x="280.939587" y="463.2" style="stroke: #000000; stroke-width: 0.8"/>
      </g>
     </g>
    </g>
    <g id="xtick_19">
     <g id="line2d_46">
      <g>
       <use xlink:href="#md575176abd" x="461.052158" y="463.2" style="stroke: #000000; stroke-width: 0.8"/>
      </g>
     </g>
    </g>
    <g id="xtick_20">
     <g id="line2d_47">
      <g>
       <use xlink:href="#md575176abd" x="641.164728" y="463.2" style="stroke: #000000; stroke-width: 0.8"/>
      </g>
     </g>
    </g>
   </g>
   <g id="matplotlib.axis_10">
    <g id="ytick_24">
     <g id="line2d_48">
      <g>
       <use xlink:href="#m29282547e4" x="57.6" y="450.141416" style="stroke: #000000; stroke-width: 0.8"/>
      </g>
     </g>
     <g id="text_28">
      <!-- −1.6 -->
      <g transform="translate(30.372417 453.306166) scale(0.0833 -0.0833)">
       <use xlink:href="#DejaVuSans-2212"/>
       <use xlink:href="#DejaVuSans-31" transform="translate(83.789062 0)"/>
       <use xlink:href="#DejaVuSans-2e" transform="translate(147.412109 0)"/>
       <use xlink:href="#DejaVuSans-36" transform="translate(179.199219 0)"/>
      </g>
     </g>
    </g>
    <g id="ytick_25">
     <g id="line2d_49">
      <g>
       <use xlink:href="#m29282547e4" x="57.6" y="435.683679" style="stroke: #000000; stroke-width: 0.8"/>
      </g>
     </g>
     <g id="text_29">
      <!-- −0.8 -->
      <g transform="translate(30.372417 438.848428) scale(0.0833 -0.0833)">
       <use xlink:href="#DejaVuSans-2212"/>
       <use xlink:href="#DejaVuSans-30" transform="translate(83.789062 0)"/>
       <use xlink:href="#DejaVuSans-2e" transform="translate(147.412109 0)"/>
       <use xlink:href="#DejaVuSans-38" transform="translate(179.199219 0)"/>
      </g>
     </g>
    </g>
    <g id="ytick_26">
     <g id="line2d_50">
      <g>
       <use xlink:href="#m29282547e4" x="57.6" y="421.225942" style="stroke: #000000; stroke-width: 0.8"/>
      </g>
     </g>
     <g id="text_30">
      <!-- 0.0 -->
      <g transform="translate(37.352697 424.390691) scale(0.0833 -0.0833)">
       <use xlink:href="#DejaVuSans-30"/>
       <use xlink:href="#DejaVuSans-2e" transform="translate(63.623047 0)"/>
       <use xlink:href="#DejaVuSans-30" transform="translate(95.410156 0)"/>
      </g>
     </g>
    </g>
    <g id="ytick_27">
     <g id="line2d_51">
      <g>
       <use xlink:href="#m29282547e4" x="57.6" y="406.768204" style="stroke: #000000; stroke-width: 0.8"/>
      </g>
     </g>
     <g id="text_31">
      <!-- 0.8 -->
      <g transform="translate(37.352697 409.932954) scale(0.0833 -0.0833)">
       <use xlink:href="#DejaVuSans-30"/>
       <use xlink:href="#DejaVuSans-2e" transform="translate(63.623047 0)"/>
       <use xlink:href="#DejaVuSans-38" transform="translate(95.410156 0)"/>
      </g>
     </g>
    </g>
    <g id="ytick_28">
     <g id="line2d_52">
      <g>
       <use xlink:href="#m29282547e4" x="57.6" y="392.310467" style="stroke: #000000; stroke-width: 0.8"/>
      </g>
     </g>
     <g id="text_32">
      <!-- 1.6 -->
      <g transform="translate(37.352697 395.475216) scale(0.0833 -0.0833)">
       <use xlink:href="#DejaVuSans-31"/>
       <use xlink:href="#DejaVuSans-2e" transform="translate(63.623047 0)"/>
       <use xlink:href="#DejaVuSans-36" transform="translate(95.410156 0)"/>
      </g>
     </g>
    </g>
   </g>
   <g id="line2d_53">
    <path d="M 57.6 421.225942
L 437.601501 421.116173
L 448.696435 420.839999
L 451.073921 421.084832
L 454.243902 421.655927
L 457.810131 422.271111
L 459.79137 422.38986
L 461.772608 422.27282
L 464.150094 421.859429
L 469.697561 420.710287
L 472.075047 420.539391
L 474.452533 420.606143
L 484.754972 421.235281
L 497.434897 421.261555
L 504.567355 421.291714
L 520.813508 421.216253
L 530.323452 421.133372
L 534.285929 420.876112
L 537.45591 420.439213
L 543.003377 419.563577
L 544.588368 419.579414
L 545.777111 419.765986
L 546.965854 420.1308
L 548.154597 420.682017
L 549.739587 421.67695
L 554.890807 425.272755
L 556.07955 425.672193
L 557.268293 425.757026
L 558.060788 425.626463
L 559.249531 425.156905
L 560.438274 424.399802
L 562.023265 423.076172
L 565.193246 420.261802
L 566.381989 419.450354
L 567.570732 418.881855
L 568.759475 418.586794
L 569.948218 418.565517
L 571.136961 418.792301
L 572.721951 419.399906
L 575.099437 420.669552
L 577.476923 421.907017
L 579.061914 422.484602
L 580.250657 422.712773
L 581.4394 422.733991
L 582.628143 422.536747
L 583.816886 422.127651
L 585.401876 421.300351
L 587.779362 419.706579
L 589.7606 418.418873
L 591.345591 417.667132
L 592.534334 417.360311
L 593.723077 417.312165
L 594.91182 417.528381
L 596.100563 417.987219
L 597.685553 418.894173
L 603.233021 422.483881
L 604.818011 423.060612
L 606.403002 423.334785
L 607.987992 423.344559
L 609.969231 423.107692
L 613.931707 422.552742
L 615.516698 422.544236
L 617.101689 422.723421
L 619.082927 423.169591
L 622.252908 423.93704
L 623.441651 424.040776
L 624.630394 423.947775
L 625.819137 423.617871
L 627.00788 423.037373
L 628.196623 422.225932
L 630.177861 420.517611
L 632.951595 418.09267
L 634.140338 417.319316
L 635.329081 416.819825
L 636.517824 416.634186
L 637.706567 416.76573
L 638.89531 417.183399
L 640.084053 417.828437
L 642.065291 419.194684
L 644.839024 421.097344
L 646.424015 421.915004
L 648.009006 422.451794
L 649.593996 422.710718
L 651.178987 422.737889
L 653.160225 422.546866
L 657.122702 421.871221
L 662.273921 421.059774
L 666.236398 420.643617
L 668.613884 420.588929
L 670.595122 420.728339
L 672.57636 421.059306
L 675.350094 421.774674
L 679.31257 422.801761
L 681.293809 423.06969
L 683.275047 423.098506
L 685.256285 422.909464
L 688.030019 422.391544
L 691.2 421.609731
L 691.2 421.609731
" clip-path="url(#pc24db11b30)" style="fill: none; stroke: #000000; stroke-linecap: square"/>
   </g>
   <g id="patch_27">
    <path d="M 57.6 463.2
L 57.6 379.2
" style="fill: none; stroke: #000000; stroke-width: 0.8; stroke-linejoin: miter; stroke-linecap: square"/>
   </g>
   <g id="patch_28">
    <path d="M 691.2 463.2
L 691.2 379.2
" style="fill: none; stroke: #000000; stroke-width: 0.8; stroke-linejoin: miter; stroke-linecap: square"/>
   </g>
   <g id="patch_29">
    <path d="M 57.6 463.2
L 691.2 463.2
" style="fill: none; stroke: #000000; stroke-width: 0.8; stroke-linejoin: miter; stroke-linecap: square"/>
   </g>
   <g id="patch_30">
    <path d="M 57.6 379.2
L 691.2 379.2
" style="fill: none; stroke: #000000; stroke-width: 0.8; stroke-linejoin: miter; stroke-linecap: square"/>
   </g>
   <g id="text_33">
    <g id="patch_31">
     <path d="M 70.272 393.960878
L 143.897486 393.960878
Q 146.396486 393.960878 146.396486 391.461878
L 146.396486 383.4
Q 146.396486 380.901 143.897486 380.901
L 70.272 380.901
Q 67.773 380.901 67.773 383.4
L 67.773 391.461878
Q 67.773 393.960878 70.272 393.960878
z
" style="fill: #ffffff; opacity: 0.8; stroke: #000000; stroke-linejoin: miter"/>
    </g>
    <!-- AA.S0005.S2.BXX -->
    <g transform="translate(70.272 389.729498) scale(0.0833 -0.0833)">
     <defs>
      <path id="DejaVuSans-35" d="M 691 4666
L 3169 4666
L 3169 4134
L 1269 4134
L 1269 2991
Q 1406 3038 1543 3061
Q 1681 3084 1819 3084
Q 2600 3084 3056 2656
Q 3513 2228 3513 1497
Q 3513 744 3044 326
Q 2575 -91 1722 -91
Q 1428 -91 1123 -41
Q 819 9 494 109
L 494 744
Q 775 591 1075 516
Q 1375 441 1709 441
Q 2250 441 2565 725
Q 2881 1009 2881 1497
Q 2881 1984 2565 2268
Q 2250 2553 1709 2553
Q 1456 2553 1204 2497
Q 953 2441 691 2322
L 691 4666
z
" transform="scale(0.015625)"/>
     </defs>
     <use xlink:href="#DejaVuSans-41"/>
     <use xlink:href="#DejaVuSans-41" transform="translate(71.158203 0)"/>
     <use xlink:href="#DejaVuSans-2e" transform="translate(137.816406 0)"/>
     <use xlink:href="#DejaVuSans-53" transform="translate(169.603516 0)"/>
     <use xlink:href="#DejaVuSans-30" transform="translate(233.080078 0)"/>
     <use xlink:href="#DejaVuSans-30" transform="translate(296.703125 0)"/>
     <use xlink:href="#DejaVuSans-30" transform="translate(360.326172 0)"/>
     <use xlink:href="#DejaVuSans-35" transform="translate(423.949219 0)"/>
     <use xlink:href="#DejaVuSans-2e" transform="translate(487.572266 0)"/>
     <use xlink:href="#DejaVuSans-53" transform="translate(519.359375 0)"/>
     <use xlink:href="#DejaVuSans-32" transform="translate(582.835938 0)"/>
     <use xlink:href="#DejaVuSans-2e" transform="translate(646.458984 0)"/>
     <use xlink:href="#DejaVuSans-42" transform="translate(678.246094 0)"/>
     <use xlink:href="#DejaVuSans-58" transform="translate(746.849609 0)"/>
     <use xlink:href="#DejaVuSans-58" transform="translate(815.355469 0)"/>
    </g>
   </g>
  </g>
  <g id="axes_6">
   <g id="patch_32">
    <path d="M 57.6 547.2
L 691.2 547.2
L 691.2 463.2
L 57.6 463.2
z
" style="fill: #ffffff"/>
   </g>
   <g id="matplotlib.axis_11">
    <g id="xtick_21">
     <g id="line2d_54">
      <g>
       <use xlink:href="#md575176abd" x="100.827017" y="547.2" style="stroke: #000000; stroke-width: 0.8"/>
      </g>
     </g>
     <g id="text_34">
      <!-- 00:00:00 -->
      <g transform="translate(82.120961 560.529498) scale(0.0833 -0.0833)">
       <defs>
        <path id="DejaVuSans-3a" d="M 750 794
L 1409 794
L 1409 0
L 750 0
L 750 794
z
M 750 3309
L 1409 3309
L 1409 2516
L 750 2516
L 750 3309
z
" transform="scale(0.015625)"/>
       </defs>
       <use xlink:href="#DejaVuSans-30"/>
       <use xlink:href="#DejaVuSans-30" transform="translate(63.623047 0)"/>
       <use xlink:href="#DejaVuSans-3a" transform="translate(127.246094 0)"/>
       <use xlink:href="#DejaVuSans-30" transform="translate(160.9375 0)"/>
       <use xlink:href="#DejaVuSans-30" transform="translate(224.560547 0)"/>
       <use xlink:href="#DejaVuSans-3a" transform="translate(288.183594 0)"/>
       <use xlink:href="#DejaVuSans-30" transform="translate(321.875 0)"/>
       <use xlink:href="#DejaVuSans-30" transform="translate(385.498047 0)"/>
      </g>
     </g>
    </g>
    <g id="xtick_22">
     <g id="line2d_55">
      <g>
       <use xlink:href="#md575176abd" x="280.939587" y="547.2" style="stroke: #000000; stroke-width: 0.8"/>
      </g>
     </g>
     <g id="text_35">
      <!-- 00:00:00.5 -->
      <g transform="translate(258.259861 560.529498) scale(0.0833 -0.0833)">
       <use xlink:href="#DejaVuSans-30"/>
       <use xlink:href="#DejaVuSans-30" transform="translate(63.623047 0)"/>
       <use xlink:href="#DejaVuSans-3a" transform="translate(127.246094 0)"/>
       <use xlink:href="#DejaVuSans-30" transform="translate(160.9375 0)"/>
       <use xlink:href="#DejaVuSans-30" transform="translate(224.560547 0)"/>
       <use xlink:href="#DejaVuSans-3a" transform="translate(288.183594 0)"/>
       <use xlink:href="#DejaVuSans-30" transform="translate(321.875 0)"/>
       <use xlink:href="#DejaVuSans-30" transform="translate(385.498047 0)"/>
       <use xlink:href="#DejaVuSans-2e" transform="translate(449.121094 0)"/>
       <use xlink:href="#DejaVuSans-35" transform="translate(480.908203 0)"/>
      </g>
     </g>
    </g>
    <g id="xtick_23">
     <g id="line2d_56">
      <g>
       <use xlink:href="#md575176abd" x="461.052158" y="547.2" style="stroke: #000000; stroke-width: 0.8"/>
      </g>
     </g>
     <g id="text_36">
      <!-- 00:00:01 -->
      <g transform="translate(442.346101 560.529498) scale(0.0833 -0.0833)">
       <use xlink:href="#DejaVuSans-30"/>
       <use xlink:href="#DejaVuSans-30" transform="translate(63.623047 0)"/>
       <use xlink:href="#DejaVuSans-3a" transform="translate(127.246094 0)"/>
       <use xlink:href="#DejaVuSans-30" transform="translate(160.9375 0)"/>
       <use xlink:href="#DejaVuSans-30" transform="translate(224.560547 0)"/>
       <use xlink:href="#DejaVuSans-3a" transform="translate(288.183594 0)"/>
       <use xlink:href="#DejaVuSans-30" transform="translate(321.875 0)"/>
       <use xlink:href="#DejaVuSans-31" transform="translate(385.498047 0)"/>
      </g>
     </g>
    </g>
    <g id="xtick_24">
     <g id="line2d_57">
      <g>
       <use xlink:href="#md575176abd" x="641.164728" y="547.2" style="stroke: #000000; stroke-width: 0.8"/>
      </g>
     </g>
     <g id="text_37">
      <!-- 00:00:01.5 -->
      <g transform="translate(618.485001 560.529498) scale(0.0833 -0.0833)">
       <use xlink:href="#DejaVuSans-30"/>
       <use xlink:href="#DejaVuSans-30" transform="translate(63.623047 0)"/>
       <use xlink:href="#DejaVuSans-3a" transform="translate(127.246094 0)"/>
       <use xlink:href="#DejaVuSans-30" transform="translate(160.9375 0)"/>
       <use xlink:href="#DejaVuSans-30" transform="translate(224.560547 0)"/>
       <use xlink:href="#DejaVuSans-3a" transform="translate(288.183594 0)"/>
       <use xlink:href="#DejaVuSans-30" transform="translate(321.875 0)"/>
       <use xlink:href="#DejaVuSans-31" transform="translate(385.498047 0)"/>
       <use xlink:href="#DejaVuSans-2e" transform="translate(449.121094 0)"/>
       <use xlink:href="#DejaVuSans-35" transform="translate(480.908203 0)"/>
      </g>
     </g>
    </g>
   </g>
   <g id="matplotlib.axis_12">
    <g id="ytick_29">
     <g id="line2d_58">
      <g>
       <use xlink:href="#m29282547e4" x="57.6" y="535.929196" style="stroke: #000000; stroke-width: 0.8"/>
      </g>
     </g>
     <g id="text_38">
      <!-- −1.6 -->
      <g transform="translate(30.372417 539.093945) scale(0.0833 -0.0833)">
       <use xlink:href="#DejaVuSans-2212"/>
       <use xlink:href="#DejaVuSans-31" transform="translate(83.789062 0)"/>
       <use xlink:href="#DejaVuSans-2e" transform="translate(147.412109 0)"/>
       <use xlink:href="#DejaVuSans-36" transform="translate(179.199219 0)"/>
      </g>
     </g>
    </g>
    <g id="ytick_30">
     <g id="line2d_59">
      <g>
       <use xlink:href="#m29282547e4" x="57.6" y="521.471459" style="stroke: #000000; stroke-width: 0.8"/>
      </g>
     </g>
     <g id="text_39">
      <!-- −0.8 -->
      <g transform="translate(30.372417 524.636208) scale(0.0833 -0.0833)">
       <use xlink:href="#DejaVuSans-2212"/>
       <use xlink:href="#DejaVuSans-30" transform="translate(83.789062 0)"/>
       <use xlink:href="#DejaVuSans-2e" transform="translate(147.412109 0)"/>
       <use xlink:href="#DejaVuSans-38" transform="translate(179.199219 0)"/>
      </g>
     </g>
    </g>
    <g id="ytick_31">
     <g id="line2d_60">
      <g>
       <use xlink:href="#m29282547e4" x="57.6" y="507.013721" style="stroke: #000000; stroke-width: 0.8"/>
      </g>
     </g>
     <g id="text_40">
      <!-- 0.0 -->
      <g transform="translate(37.352697 510.178471) scale(0.0833 -0.0833)">
       <use xlink:href="#DejaVuSans-30"/>
       <use xlink:href="#DejaVuSans-2e" transform="translate(63.623047 0)"/>
       <use xlink:href="#DejaVuSans-30" transform="translate(95.410156 0)"/>
      </g>
     </g>
    </g>
    <g id="ytick_32">
     <g id="line2d_61">
      <g>
       <use xlink:href="#m29282547e4" x="57.6" y="492.555984" style="stroke: #000000; stroke-width: 0.8"/>
      </g>
     </g>
     <g id="text_41">
      <!-- 0.8 -->
      <g transform="translate(37.352697 495.720733) scale(0.0833 -0.0833)">
       <use xlink:href="#DejaVuSans-30"/>
       <use xlink:href="#DejaVuSans-2e" transform="translate(63.623047 0)"/>
       <use xlink:href="#DejaVuSans-38" transform="translate(95.410156 0)"/>
      </g>
     </g>
    </g>
    <g id="ytick_33">
     <g id="line2d_62">
      <g>
       <use xlink:href="#m29282547e4" x="57.6" y="478.098247" style="stroke: #000000; stroke-width: 0.8"/>
      </g>
     </g>
     <g id="text_42">
      <!-- 1.6 -->
      <g transform="translate(37.352697 481.262996) scale(0.0833 -0.0833)">
       <use xlink:href="#DejaVuSans-31"/>
       <use xlink:href="#DejaVuSans-2e" transform="translate(63.623047 0)"/>
       <use xlink:href="#DejaVuSans-36" transform="translate(95.410156 0)"/>
      </g>
     </g>
    </g>
    <g id="ytick_34">
     <g id="line2d_63">
      <g>
       <use xlink:href="#m29282547e4" x="57.6" y="463.640509" style="stroke: #000000; stroke-width: 0.8"/>
      </g>
     </g>
     <g id="text_43">
      <!-- 2.4 -->
      <g transform="translate(37.352697 466.805258) scale(0.0833 -0.0833)">
       <use xlink:href="#DejaVuSans-32"/>
       <use xlink:href="#DejaVuSans-2e" transform="translate(63.623047 0)"/>
       <use xlink:href="#DejaVuSans-34" transform="translate(95.410156 0)"/>
      </g>
     </g>
    </g>
   </g>
   <g id="line2d_64">
    <path d="M 57.6 507.013721
L 440.771482 506.909078
L 445.526454 506.63049
L 451.866417 506.187879
L 453.847655 506.286096
L 455.828893 506.615607
L 457.810131 507.178394
L 463.357598 508.982703
L 464.942589 509.153609
L 466.52758 509.044986
L 468.11257 508.665494
L 470.093809 507.911345
L 474.056285 506.286159
L 475.641276 505.872515
L 477.226266 505.669646
L 478.811257 505.667903
L 480.792495 505.878516
L 489.113696 507.071651
L 492.679925 507.187752
L 498.227392 507.095756
L 506.548593 506.955359
L 524.775985 507.007733
L 535.078424 506.98881
L 543.003377 506.903634
L 546.569606 506.667171
L 549.739587 506.251288
L 554.890807 505.505971
L 556.475797 505.507383
L 558.060788 505.751261
L 559.645779 506.288044
L 561.230769 507.113879
L 563.212008 508.432992
L 565.985741 510.259404
L 567.174484 510.806067
L 568.363227 511.107773
L 569.55197 511.122912
L 570.740713 510.845531
L 571.929456 510.305094
L 573.514447 509.291238
L 576.684428 507.104721
L 577.873171 506.523743
L 579.061914 506.179098
L 580.250657 506.092714
L 581.4394 506.247677
L 583.02439 506.733735
L 586.194371 507.842939
L 587.383114 507.989066
L 588.571857 507.855456
L 589.7606 507.400415
L 590.949343 506.626132
L 592.138086 505.582087
L 596.893058 501.019155
L 597.685553 500.614823
L 598.478049 500.408438
L 599.270544 500.41827
L 600.063039 500.651424
L 600.855535 501.10276
L 602.044278 502.148602
L 603.233021 503.542829
L 607.987992 509.627198
L 609.176735 510.587121
L 609.969231 511.01636
L 610.761726 511.273914
L 611.554221 511.367519
L 612.742964 511.234009
L 613.931707 510.837422
L 615.516698 510.047235
L 619.875422 507.707644
L 621.85666 506.996978
L 623.441651 506.641694
L 625.422889 506.443969
L 627.404128 506.498384
L 629.385366 506.8077
L 630.970356 507.257759
L 632.555347 507.901054
L 634.536585 508.95382
L 638.499062 511.192441
L 639.687805 511.569284
L 640.4803 511.656198
L 641.272795 511.581174
L 642.065291 511.323481
L 642.857786 510.871076
L 643.650281 510.220753
L 644.839024 508.893842
L 646.027767 507.218319
L 650.386492 500.56183
L 651.178987 499.734175
L 651.971482 499.14078
L 652.763977 498.80814
L 653.556473 498.748009
L 654.348968 498.958897
L 655.141463 499.424985
L 655.933959 500.117048
L 657.122702 501.493399
L 659.10394 504.280949
L 661.085178 507.010888
L 662.273921 508.354772
L 663.462664 509.372812
L 664.651407 510.036258
L 665.84015 510.355035
L 667.028893 510.375454
L 668.217636 510.161886
L 669.802627 509.643725
L 674.557598 507.891562
L 676.538837 507.457144
L 678.520075 507.237711
L 681.293809 507.187314
L 688.822514 507.236052
L 691.2 506.982538
L 691.2 506.982538
" clip-path="url(#p6876805ec8)" style="fill: none; stroke: #000000; stroke-linecap: square"/>
   </g>
   <g id="patch_33">
    <path d="M 57.6 547.2
L 57.6 463.2
" style="fill: none; stroke: #000000; stroke-width: 0.8; stroke-linejoin: miter; stroke-linecap: square"/>
   </g>
   <g id="patch_34">
    <path d="M 691.2 547.2
L 691.2 463.2
" style="fill: none; stroke: #000000; stroke-width: 0.8; stroke-linejoin: miter; stroke-linecap: square"/>
   </g>
   <g id="patch_35">
    <path d="M 57.6 547.2
L 691.2 547.2
" style="fill: none; stroke: #000000; stroke-width: 0.8; stroke-linejoin: miter; stroke-linecap: square"/>
   </g>
   <g id="patch_36">
    <path d="M 57.6 463.2
L 691.2 463.2
" style="fill: none; stroke: #000000; stroke-width: 0.8; stroke-linejoin: miter; stroke-linecap: square"/>
   </g>
   <g id="text_44">
    <g id="patch_37">
     <path d="M 70.272 477.960878
L 143.897486 477.960878
Q 146.396486 477.960878 146.396486 475.461878
L 146.396486 467.4
Q 146.396486 464.901 143.897486 464.901
L 70.272 464.901
Q 67.773 464.901 67.773 467.4
L 67.773 475.461878
Q 67.773 477.960878 70.272 477.960878
z
" style="fill: #ffffff; opacity: 0.8; stroke: #000000; stroke-linejoin: miter"/>
    </g>
    <!-- AA.S0006.S2.BXX -->
    <g transform="translate(70.272 473.729498) scale(0.0833 -0.0833)">
     <use xlink:href="#DejaVuSans-41"/>
     <use xlink:href="#DejaVuSans-41" transform="translate(71.158203 0)"/>
     <use xlink:href="#DejaVuSans-2e" transform="translate(137.816406 0)"/>
     <use xlink:href="#DejaVuSans-53" transform="translate(169.603516 0)"/>
     <use xlink:href="#DejaVuSans-30" transform="translate(233.080078 0)"/>
     <use xlink:href="#DejaVuSans-30" transform="translate(296.703125 0)"/>
     <use xlink:href="#DejaVuSans-30" transform="translate(360.326172 0)"/>
     <use xlink:href="#DejaVuSans-36" transform="translate(423.949219 0)"/>
     <use xlink:href="#DejaVuSans-2e" transform="translate(487.572266 0)"/>
     <use xlink:href="#DejaVuSans-53" transform="translate(519.359375 0)"/>
     <use xlink:href="#DejaVuSans-32" transform="translate(582.835938 0)"/>
     <use xlink:href="#DejaVuSans-2e" transform="translate(646.458984 0)"/>
     <use xlink:href="#DejaVuSans-42" transform="translate(678.246094 0)"/>
     <use xlink:href="#DejaVuSans-58" transform="translate(746.849609 0)"/>
     <use xlink:href="#DejaVuSans-58" transform="translate(815.355469 0)"/>
    </g>
   </g>
  </g>
  <g id="text_45">
   <!-- 1969-12-31T23:59:59.88  -  1970-01-01T00:00:01.6389 -->
   <g transform="translate(243.745088 17.129498) scale(0.0833 -0.0833)">
    <defs>
     <path id="DejaVuSans-39" d="M 703 97
L 703 672
Q 941 559 1184 500
Q 1428 441 1663 441
Q 2288 441 2617 861
Q 2947 1281 2994 2138
Q 2813 1869 2534 1725
Q 2256 1581 1919 1581
Q 1219 1581 811 2004
Q 403 2428 403 3163
Q 403 3881 828 4315
Q 1253 4750 1959 4750
Q 2769 4750 3195 4129
Q 3622 3509 3622 2328
Q 3622 1225 3098 567
Q 2575 -91 1691 -91
Q 1453 -91 1209 -44
Q 966 3 703 97
z
M 1959 2075
Q 2384 2075 2632 2365
Q 2881 2656 2881 3163
Q 2881 3666 2632 3958
Q 2384 4250 1959 4250
Q 1534 4250 1286 3958
Q 1038 3666 1038 3163
Q 1038 2656 1286 2365
Q 1534 2075 1959 2075
z
" transform="scale(0.015625)"/>
     <path id="DejaVuSans-2d" d="M 313 2009
L 1997 2009
L 1997 1497
L 313 1497
L 313 2009
z
" transform="scale(0.015625)"/>
     <path id="DejaVuSans-54" d="M -19 4666
L 3928 4666
L 3928 4134
L 2272 4134
L 2272 0
L 1638 0
L 1638 4134
L -19 4134
L -19 4666
z
" transform="scale(0.015625)"/>
     <path id="DejaVuSans-20" transform="scale(0.015625)"/>
     <path id="DejaVuSans-37" d="M 525 4666
L 3525 4666
L 3525 4397
L 1831 0
L 1172 0
L 2766 4134
L 525 4134
L 525 4666
z
" transform="scale(0.015625)"/>
    </defs>
    <use xlink:href="#DejaVuSans-31"/>
    <use xlink:href="#DejaVuSans-39" transform="translate(63.623047 0)"/>
    <use xlink:href="#DejaVuSans-36" transform="translate(127.246094 0)"/>
    <use xlink:href="#DejaVuSans-39" transform="translate(190.869141 0)"/>
    <use xlink:href="#DejaVuSans-2d" transform="translate(254.492188 0)"/>
    <use xlink:href="#DejaVuSans-31" transform="translate(290.576172 0)"/>
    <use xlink:href="#DejaVuSans-32" transform="translate(354.199219 0)"/>
    <use xlink:href="#DejaVuSans-2d" transform="translate(417.822266 0)"/>
    <use xlink:href="#DejaVuSans-33" transform="translate(453.90625 0)"/>
    <use xlink:href="#DejaVuSans-31" transform="translate(517.529297 0)"/>
    <use xlink:href="#DejaVuSans-54" transform="translate(581.152344 0)"/>
    <use xlink:href="#DejaVuSans-32" transform="translate(642.236328 0)"/>
    <use xlink:href="#DejaVuSans-33" transform="translate(705.859375 0)"/>
    <use xlink:href="#DejaVuSans-3a" transform="translate(769.482422 0)"/>
    <use xlink:href="#DejaVuSans-35" transform="translate(803.173828 0)"/>
    <use xlink:href="#DejaVuSans-39" transform="translate(866.796875 0)"/>
    <use xlink:href="#DejaVuSans-3a" transform="translate(930.419922 0)"/>
    <use xlink:href="#DejaVuSans-35" transform="translate(964.111328 0)"/>
    <use xlink:href="#DejaVuSans-39" transform="translate(1027.734375 0)"/>
    <use xlink:href="#DejaVuSans-2e" transform="translate(1091.357422 0)"/>
    <use xlink:href="#DejaVuSans-38" transform="translate(1123.144531 0)"/>
    <use xlink:href="#DejaVuSans-38" transform="translate(1186.767578 0)"/>
    <use xlink:href="#DejaVuSans-20" transform="translate(1250.390625 0)"/>
    <use xlink:href="#DejaVuSans-20" transform="translate(1282.177734 0)"/>
    <use xlink:href="#DejaVuSans-2d" transform="translate(1313.964844 0)"/>
    <use xlink:href="#DejaVuSans-20" transform="translate(1350.048828 0)"/>
    <use xlink:href="#DejaVuSans-20" transform="translate(1381.835938 0)"/>
    <use xlink:href="#DejaVuSans-31" transform="translate(1413.623047 0)"/>
    <use xlink:href="#DejaVuSans-39" transform="translate(1477.246094 0)"/>
    <use xlink:href="#DejaVuSans-37" transform="translate(1540.869141 0)"/>
    <use xlink:href="#DejaVuSans-30" transform="translate(1604.492188 0)"/>
    <use xlink:href="#DejaVuSans-2d" transform="translate(1668.115234 0)"/>
    <use xlink:href="#DejaVuSans-30" transform="translate(1704.199219 0)"/>
    <use xlink:href="#DejaVuSans-31" transform="translate(1767.822266 0)"/>
    <use xlink:href="#DejaVuSans-2d" transform="translate(1831.445312 0)"/>
    <use xlink:href="#DejaVuSans-30" transform="translate(1867.529297 0)"/>
    <use xlink:href="#DejaVuSans-31" transform="translate(1931.152344 0)"/>
    <use xlink:href="#DejaVuSans-54" transform="translate(1994.775391 0)"/>
    <use xlink:href="#DejaVuSans-30" transform="translate(2055.859375 0)"/>
    <use xlink:href="#DejaVuSans-30" transform="translate(2119.482422 0)"/>
    <use xlink:href="#DejaVuSans-3a" transform="translate(2183.105469 0)"/>
    <use xlink:href="#DejaVuSans-30" transform="translate(2216.796875 0)"/>
    <use xlink:href="#DejaVuSans-30" transform="translate(2280.419922 0)"/>
    <use xlink:href="#DejaVuSans-3a" transform="translate(2344.042969 0)"/>
    <use xlink:href="#DejaVuSans-30" transform="translate(2377.734375 0)"/>
    <use xlink:href="#DejaVuSans-31" transform="translate(2441.357422 0)"/>
    <use xlink:href="#DejaVuSans-2e" transform="translate(2504.980469 0)"/>
    <use xlink:href="#DejaVuSans-36" transform="translate(2536.767578 0)"/>
    <use xlink:href="#DejaVuSans-33" transform="translate(2600.390625 0)"/>
    <use xlink:href="#DejaVuSans-38" transform="translate(2664.013672 0)"/>
    <use xlink:href="#DejaVuSans-39" transform="translate(2727.636719 0)"/>
   </g>
  </g>
 </g>
 <defs>
  <clipPath id="p0800cdfa0c">
   <rect x="57.6" y="43.2" width="633.6" height="84"/>
  </clipPath>
  <clipPath id="p1cc49efd97">
   <rect x="57.6" y="127.2" width="633.6" height="84"/>
  </clipPath>
  <clipPath id="p45c6e52b27">
   <rect x="57.6" y="211.2" width="633.6" height="84"/>
  </clipPath>
  <clipPath id="p0ee2cecc0c">
   <rect x="57.6" y="295.2" width="633.6" height="84"/>
  </clipPath>
  <clipPath id="pc24db11b30">
   <rect x="57.6" y="379.2" width="633.6" height="84"/>
  </clipPath>
  <clipPath id="p6876805ec8">
   <rect x="57.6" y="463.2" width="633.6" height="84"/>
  </clipPath>
 </defs>
</svg>
